SplineFontDB: 1.0
FontName: DBThaiText-Oblique
FullName: DBThaiText Oblique
FamilyName: DBThaiText
Weight: Medium
Copyright: Typeface (c) The Monotype Corporation plc. Data (c) The Monotype Corporation plc/Type Solutions Inc. 1990-1992. All Rights Reserved\n\nModified by TLWG
Version: 1.1 : May 12, 2003
ItalicAngle: -18
UnderlinePosition: -477
UnderlineWidth: 205
Ascent: 1638
Descent: 410
NeedsXUIDChange: 1
FSType: 0
PfmFamily: 33
TTFWeight: 500
TTFWidth: 5
Panose: 2 0 6 3 0 0 0 0 0 0
LineGap: 184
VLineGap: 0
LangName: 1033 "" "" "" "PfaEdit : DBThaiTextOblique : 13-0-2003" 
Encoding: compacted
OldEncoding: iso8859_1
DisplaySize: -36
AntiAlias: 1
WinInfo: 128 16 4
BeginPrivate: 2
BlueValues 37 [-33 9 0 0 744 782 786 804 1010 1029]
OtherBlues 11 [-272 -270]
EndPrivate
BeginChars: 257 257
StartChar: .notdef
Encoding: 0 -1
OldEncoding: 0
Width: 1090
Flags: W
HStem: 1745.29 143.51<235 797>
VStem: 76.9502 145.77<104 1738> 801.28 145.77<104 1738>
Fore
76.9502 -54.7998 m 1
 76.9502 1888.8 l 1
 947.05 1888.8 l 1
 947.05 -54.7998 l 1
 76.9502 -54.7998 l 1
222.72 88.71 m 1
 801.28 88.71 l 1
 801.28 1745.29 l 1
 222.72 1745.29 l 1
 222.72 88.71 l 1
EndSplineSet
MinimumDistance: x2,-1 
EndChar
StartChar: exclam
Encoding: 3 33
OldEncoding: 33
Width: 359
Flags: W
HStem: -1.1748 21G<-17.5449 98.8447> 990.17 20G<311.285 426.545>
DStem: 26.5254 142.335 145.175 142.335 -17.5449 -1.1748 98.8447 -1.1748 311.285 1010.17 426.545 1010.17 149.695 512.975 264.955 512.975
Fore
145.175 230.475 m 1
 86.415 230.475 l 1
 149.695 512.975 l 1
 311.285 1010.17 l 1
 426.545 1010.17 l 1
 264.955 512.975 l 1
 145.175 230.475 l 1
26.5254 142.335 m 1
 145.175 142.335 l 1
 98.8447 -1.1748 l 1
 -17.5449 -1.1748 l 1
 26.5254 142.335 l 1
EndSplineSet
EndChar
StartChar: quotedbl
Encoding: 4 34
OldEncoding: 34
Width: 465
Flags: W
Fore
465.965 820.655 m 0
 447.885 756.621 413.985 707.278 364.265 672.625 c 0
 319.818 640.985 271.981 620.645 220.755 611.605 c 1
 202.675 611.605 193.635 614.995 193.635 621.775 c 2
 193.635 624.035 l 1
 204.935 635.335 l 1
 226.781 642.869 256.161 656.052 293.075 674.885 c 0
 326.975 692.965 350.705 716.695 364.265 746.075 c 1
 346.185 741.555 l 1
 317.935 737.035 l 1
 273.488 741.555 251.265 761.519 251.265 796.925 c 0
 251.265 808.225 253.525 820.655 258.045 834.215 c 0
 267.085 861.335 282.528 884.312 304.375 903.145 c 0
 326.222 921.979 353.341 931.395 385.735 931.395 c 0
 443.741 931.395 472.745 908.419 472.745 862.465 c 0
 472.745 850.411 470.485 836.475 465.965 820.655 c 0
211.715 820.655 m 0
 193.635 756.621 159.735 707.278 110.015 672.625 c 0
 65.5684 640.985 17.7314 620.645 -33.4951 611.605 c 1
 -52.3281 611.605 -61.7451 614.995 -61.7451 621.775 c 2
 -61.7451 624.035 l 1
 -54.9648 630.815 -50.8213 634.581 -49.3154 635.335 c 0
 -26.7148 642.869 2.28809 656.052 37.6953 674.885 c 0
 72.3486 692.965 96.4551 716.695 110.015 746.075 c 1
 90.8047 741.555 l 1
 63.6846 737.035 l 1
 18.4854 741.555 -4.11523 761.519 -4.11523 796.925 c 0
 -4.11523 805.965 -1.47852 818.395 3.79492 834.215 c 0
 12.835 861.335 28.2783 884.312 50.125 903.145 c 0
 71.9717 921.979 98.7148 931.395 130.355 931.395 c 0
 189.115 931.395 218.495 908.419 218.495 862.465 c 0
 218.495 850.411 216.235 836.475 211.715 820.655 c 0
EndSplineSet
EndChar
StartChar: numbersign
Encoding: 5 35
OldEncoding: 35
Width: 728
Flags: W
HStem: -25.3945 21G<-100.22 3.74023 180.02 283.98> 266.145 111.87<-58 44 212 321 490 593> 590.455 110.74<99 211 378 476 666 743>
DStem: 45.5498 266.145 154.03 266.145 -100.22 -25.3945 3.74023 -25.3945 211.66 590.455 319.01 590.455 103.18 378.015 211.66 378.015 325.79 266.145 432.01 266.145 180.02 -25.3945 283.98 -25.3945 403.76 972.395 511.11 972.395 264.77 701.195 372.12 701.195 487.38 590.455 595.86 590.455 383.42 378.015 489.64 378.015 681.74 972.395 790.22 972.395 545.01 701.195 653.49 701.195
Fore
403.76 972.395 m 1
 511.11 972.395 l 1
 372.12 701.195 l 1
 545.01 701.195 l 1
 681.74 972.395 l 1
 790.22 972.395 l 1
 653.49 701.195 l 1
 781.18 701.195 l 1
 743.89 590.455 l 1
 595.86 590.455 l 1
 489.64 378.015 l 1
 630.89 378.015 l 1
 593.6 266.145 l 1
 432.01 266.145 l 1
 283.98 -25.3945 l 1
 180.02 -25.3945 l 1
 325.79 266.145 l 1
 154.03 266.145 l 1
 3.74023 -25.3945 l 1
 -100.22 -25.3945 l 1
 45.5498 266.145 l 1
 -93.4404 266.145 l 1
 -56.1504 378.015 l 1
 103.18 378.015 l 1
 211.66 590.455 l 1
 63.6299 590.455 l 1
 100.92 701.195 l 1
 264.77 701.195 l 1
 403.76 972.395 l 1
319.01 590.455 m 1
 211.66 378.015 l 1
 383.42 378.015 l 1
 487.38 590.455 l 1
 319.01 590.455 l 1
EndSplineSet
EndChar
StartChar: dollar
Encoding: 6 36
OldEncoding: 36
Width: 728
Flags: W
HStem: 899.35 175.15<523.363 543.43>
VStem: -76.71 118.65<160.33 186.32> 504.11 129.95<323.05 371.64>
DStem: 136.86 -27.25 222.74 -24.9902 90.5303 -168.5 176.41 -168.5 291.67 447.35 370.77 433.79 168.5 69.9297 252.12 72.1904 439.7 901.61 523.32 899.35 331.22 570.52 411.45 558.09
Fore
733.5 727.59 m 1
 625.02 727.59 l 1
 631.046 750.943 634.06 772.414 634.06 792 c 0
 634.06 812.34 630.294 830.044 622.76 845.11 c 0
 608.446 881.27 575.3 899.35 523.32 899.35 c 1
 411.45 558.09 l 1
 480.004 536.996 527.84 518.54 554.96 502.72 c 1
 586.6 488.406 609.954 462.416 625.02 424.75 c 0
 631.046 409.684 634.06 391.98 634.06 371.64 c 0
 634.06 336.986 628.034 301.956 615.98 266.55 c 0
 591.874 194.983 548.557 133.586 486.03 82.3604 c 0
 424.256 30.3799 362.483 -0.506836 300.71 -10.2998 c 2
 222.74 -24.9902 l 1
 176.41 -168.5 l 1
 90.5303 -168.5 l 1
 136.86 -27.25 l 1
 81.1133 -14.4434 39.3037 -2.7666 11.4297 7.78027 c 0
 -20.21 20.5869 -45.4463 49.9668 -64.2803 95.9199 c 0
 -72.5664 114.753 -76.71 136.224 -76.71 160.33 c 0
 -76.71 194.983 -67.293 239.807 -48.46 294.8 c 1
 55.5 294.8 l 1
 46.46 252.613 41.9404 218.714 41.9404 193.1 c 2
 41.9404 186.32 l 2
 41.9404 163.72 50.2266 141.12 66.7998 118.52 c 1
 85.6338 98.9336 119.534 82.7363 168.5 69.9297 c 1
 291.67 447.35 l 1
 222.74 473.34 l 2
 192.606 483.887 168.5 495.187 150.42 507.24 c 0
 130.834 519.294 116.144 533.983 106.35 551.31 c 0
 97.3096 570.144 92.79 592.744 92.79 619.11 c 0
 92.79 653.01 101.076 696.704 117.65 750.19 c 1
 155.316 831.55 204.66 891.816 265.68 930.99 c 0
 328.206 970.164 397.137 993.517 472.47 1001.05 c 1
 495.07 1074.5 l 1
 578.69 1074.5 l 1
 554.96 1001.05 l 1
 631.046 993.517 686.794 968.656 722.2 926.47 c 0
 742.54 903.87 752.71 875.244 752.71 840.59 c 2
 752.71 833.81 l 1
 748.943 789.363 742.54 753.956 733.5 727.59 c 1
331.22 570.52 m 1
 439.7 901.61 l 1
 398.267 899.35 357.21 885.79 316.53 860.93 c 0
 315.023 859.424 313.517 858.294 312.01 857.54 c 0
 271.33 827.406 243.08 792.754 227.26 753.58 c 0
 218.974 730.98 214.83 709.887 214.83 690.3 c 0
 214.83 666.193 220.48 646.983 231.78 632.67 c 1
 249.86 600.276 283.006 579.56 331.22 570.52 c 1
370.77 433.79 m 1
 252.12 72.1904 l 1
 272.46 73.6963 299.58 80.8535 333.48 93.6602 c 0
 364.366 103.453 395.254 122.664 426.14 151.29 c 0
 457.026 181.424 480.004 219.09 495.07 264.29 c 0
 501.097 283.124 504.11 302.71 504.11 323.05 c 0
 504.11 344.896 497.33 363.354 483.77 378.42 c 1
 456.65 399.514 418.983 417.97 370.77 433.79 c 1
EndSplineSet
MinimumDistance: x2,-1 
EndChar
StartChar: percent
Encoding: 7 37
OldEncoding: 37
Width: 1162
Flags: W
HStem: -26.1748 97.1797<719 753.505> 351.245 97.18<843.905 876.675> 478.935 97.18<206 239.355> 856.355 97.18<329.755 362.525>
VStem: 33.6953 101.7<641 673.295> 547.845 101.7<138.805 168.185> 943.345 103.955<256.325 286.835>
DStem: 941.085 985.175 1033.75 985.175 61.9453 -26.1748 156.865 -26.1748
Fore
941.085 985.175 m 1
 1033.75 985.175 l 1
 156.865 -26.1748 l 1
 61.9453 -26.1748 l 1
 941.085 985.175 l 1
44.9951 715.105 m 1
 66.0889 780.645 107.898 836.769 170.425 883.475 c 0
 232.951 930.182 296.985 953.535 362.525 953.535 c 0
 428.818 953.535 477.409 930.182 508.295 883.475 c 1
 527.129 857.861 536.545 826.975 536.545 790.815 c 0
 536.545 769.722 531.648 744.485 521.855 715.105 c 0
 501.515 650.318 460.081 594.571 397.555 547.865 c 0
 335.028 501.911 271.749 478.935 207.715 478.935 c 0
 143.682 478.935 95.8447 501.911 64.2051 547.865 c 0
 43.8652 574.985 33.6953 606.625 33.6953 642.785 c 0
 33.6953 662.371 37.4619 686.479 44.9951 715.105 c 1
559.145 212.255 m 0
 578.731 275.535 621.295 331.281 686.835 379.495 c 1
 746.349 425.448 809.629 448.425 876.675 448.425 c 0
 917.355 448.425 953.515 437.879 985.155 416.785 c 0
 1015.29 395.691 1033.75 367.065 1040.53 330.905 c 1
 1045.04 317.345 1047.3 302.655 1047.3 286.835 c 0
 1047.3 262.729 1042.79 237.869 1033.75 212.255 c 0
 1011.9 143.701 970.841 87.5781 910.575 43.8848 c 0
 848.049 -2.82129 784.769 -26.1748 720.735 -26.1748 c 0
 656.701 -26.1748 608.111 -2.82129 574.965 43.8848 c 0
 556.885 71.0049 547.845 102.645 547.845 138.805 c 0
 547.845 159.898 551.611 184.381 559.145 212.255 c 0
142.175 715.105 m 1
 137.655 697.778 135.395 683.842 135.395 673.295 c 0
 135.395 652.955 141.799 634.499 154.605 617.925 c 1
 172.685 590.051 200.935 576.115 239.355 576.115 c 0
 278.528 576.115 316.571 590.051 353.485 617.925 c 0
 389.645 643.539 413.375 675.932 424.675 715.105 c 0
 429.195 730.925 431.455 745.615 431.455 759.175 c 1
 429.195 786.295 l 1
 421.661 808.895 410.361 825.845 395.295 837.145 c 0
 377.969 849.951 356.121 856.355 329.755 856.355 c 0
 292.841 856.355 255.929 843.171 219.015 816.805 c 1
 181.349 785.919 155.735 752.019 142.175 715.105 c 1
656.325 212.255 m 0
 651.805 196.435 649.545 181.745 649.545 168.185 c 0
 649.545 149.352 655.571 130.895 667.625 112.815 c 0
 687.211 84.9414 715.839 71.0049 753.505 71.0049 c 0
 790.419 71.0049 827.331 84.9414 864.245 112.815 c 1
 900.405 137.675 924.512 170.821 936.565 212.255 c 0
 941.085 228.829 943.345 243.519 943.345 256.325 c 0
 943.345 275.911 938.825 293.615 929.785 309.435 c 1
 908.691 337.309 880.065 351.245 843.905 351.245 c 0
 806.238 351.245 769.325 337.309 733.165 309.435 c 0
 694.745 281.562 669.131 249.169 656.325 212.255 c 0
EndSplineSet
MinimumDistance: x19,-1 
EndChar
StartChar: ampersand
Encoding: 8 38
OldEncoding: 38
Width: 881
Flags: W
HStem: -30.5654 111.87<140.99 196.36> 2.20508 21G<531.97 682.26> 890.385 97.18<504 543.27>
VStem: -64.6699 128.82<147.975 207.865> 594.12 118.65<814 816 832 844.345>
DStem: 309.36 467.765 430.27 527.655 441.57 189.785 538.75 302.785
Fore
682.26 2.20508 m 1
 531.97 2.20508 l 1
 478.86 103.905 l 1
 437.05 76.7852 l 1
 421.983 63.9785 402.02 50.7949 377.16 37.2354 c 0
 359.08 25.9346 335.727 13.5049 307.1 -0.0546875 c 1
 244.573 -20.3945 189.204 -30.5654 140.99 -30.5654 c 0
 85.2441 -30.5654 39.667 -18.1348 4.25977 6.72461 c 0
 -41.6934 41.3779 -64.6699 88.4619 -64.6699 147.975 c 0
 -64.6699 177.355 -60.9033 203.722 -53.3701 227.075 c 0
 -36.043 289.602 -6.66309 342.711 34.7695 386.405 c 1
 70.9297 428.592 120.273 466.259 182.8 499.405 c 2
 270.94 547.995 l 1
 244.95 615.795 l 1
 231.39 642.915 224.61 671.165 224.61 700.545 c 0
 224.61 720.885 228.376 744.238 235.91 770.605 c 0
 260.017 845.938 312.374 905.451 392.98 949.145 c 0
 441.193 974.759 491.29 987.565 543.27 987.565 c 0
 605.044 987.565 651.374 967.602 682.26 927.675 c 0
 702.6 899.801 712.77 867.408 712.77 830.495 c 0
 712.77 810.155 709.756 790.945 703.73 772.865 c 0
 691.677 733.691 667.57 696.778 631.41 662.125 c 1
 592.99 621.445 555.323 592.065 518.41 573.985 c 2
 430.27 527.655 l 1
 538.75 302.785 l 1
 587.716 363.805 620.11 418.045 635.93 465.505 c 1
 746.67 465.505 l 1
 736.124 430.852 713.9 388.289 680 337.815 c 0
 643.84 284.329 610.693 242.519 580.56 212.385 c 1
 682.26 2.20508 l 1
591.86 832.755 m 1
 591.86 852.342 584.326 866.278 569.26 874.565 c 0
 553.44 885.111 532.347 890.385 505.98 890.385 c 0
 475.847 890.385 449.104 882.852 425.75 867.785 c 0
 400.137 851.965 379.044 829.741 362.47 801.115 c 1
 351.924 770.229 346.65 744.615 346.65 724.275 c 1
 348.91 706.195 l 1
 352.677 689.621 367.366 658.735 392.98 613.535 c 1
 430.646 625.589 468.313 644.799 505.98 671.165 c 0
 548.92 699.039 576.04 732.938 587.34 772.865 c 0
 591.86 786.425 594.12 801.115 594.12 816.935 c 1
 591.86 832.755 l 1
441.57 189.785 m 1
 309.36 467.765 l 1
 249.47 434.995 l 2
 223.856 420.682 200.126 405.238 178.28 388.665 c 0
 160.2 374.352 138.354 351.375 112.74 319.735 c 1
 90.8936 289.602 74.6963 259.469 64.1504 229.335 c 1
 64.1504 207.865 l 2
 64.1504 180.745 72.0596 155.509 87.8799 132.155 c 1
 107.466 98.2549 143.626 81.3047 196.36 81.3047 c 0
 230.26 81.3047 264.914 88.085 300.32 101.645 c 0
 328.946 111.438 376.03 140.818 441.57 189.785 c 1
EndSplineSet
MinimumDistance: x19,-1 
EndChar
StartChar: quotesingle
Encoding: 9 39
OldEncoding: 39
Width: 250
Flags: W
Fore
246.21 820.655 m 0
 228.13 756.621 194.23 707.278 144.51 672.625 c 0
 100.063 640.985 52.2266 620.645 1 611.605 c 1
 -17.0801 611.605 -26.1201 614.995 -26.1201 621.775 c 2
 -26.1201 624.035 l 1
 -14.8203 635.335 l 1
 6.27344 642.869 35.6533 656.052 73.3203 674.885 c 0
 107.22 692.211 130.95 715.941 144.51 746.075 c 1
 126.43 741.555 l 1
 98.1797 737.035 l 1
 53.7334 741.555 31.5098 761.519 31.5098 796.925 c 0
 31.5098 808.225 33.7695 820.655 38.29 834.215 c 0
 46.5762 859.829 62.0195 882.805 84.6201 903.145 c 0
 107.974 921.979 135.094 931.395 165.98 931.395 c 0
 224.74 931.395 254.12 908.419 254.12 862.465 c 0
 254.12 849.658 251.483 835.722 246.21 820.655 c 0
EndSplineSet
EndChar
StartChar: parenleft
Encoding: 10 40
OldEncoding: 40
Width: 423
Flags: W
HStem: 1007.21 20G<500.27 579.37>
Fore
500.27 1027.21 m 1
 579.37 1027.21 l 1
 471.644 909.685 386.894 797.062 325.12 689.335 c 0
 259.58 576.335 211.744 471.245 181.61 374.065 c 0
 149.97 276.131 130.384 172.171 122.85 62.1846 c 1
 118.33 -16.915 l 1
 118.33 -102.041 130.76 -189.805 155.62 -280.205 c 1
 76.5195 -280.205 l 1
 60.7002 -239.525 47.1396 -191.688 35.8398 -136.695 c 1
 25.293 -95.2617 18.8896 -39.8916 16.6299 29.415 c 1
 16.6299 55.4053 l 2
 16.6299 102.865 20.3965 153.715 27.9297 207.955 c 0
 34.71 261.441 47.1396 316.812 65.2197 374.065 c 0
 92.3398 453.165 126.994 530.381 169.18 605.715 c 0
 211.366 684.062 263.347 760.525 325.12 835.105 c 1
 380.113 905.919 438.496 969.951 500.27 1027.21 c 1
EndSplineSet
EndChar
StartChar: parenright
Encoding: 11 41
OldEncoding: 41
Width: 447
Flags: W
HStem: 1007.21 20G<252.445 328.155>
Fore
252.445 1027.21 m 1
 328.155 1027.21 l 1
 354.521 968.445 372.225 904.411 381.265 835.105 c 0
 387.291 795.932 390.305 748.849 390.305 693.855 c 1
 385.785 603.455 l 1
 378.251 518.329 363.562 441.865 341.715 374.065 c 0
 316.855 300.238 282.201 224.151 237.755 145.805 c 0
 196.321 68.9648 144.719 -7.49805 82.9453 -83.585 c 0
 17.4053 -166.451 -42.1084 -231.991 -95.5947 -280.205 c 1
 -171.305 -280.205 l 1
 -98.2314 -202.611 -35.7051 -123.889 16.2754 -44.0352 c 1
 69.7617 32.0518 113.455 105.878 147.355 177.445 c 0
 182.009 249.765 208.375 315.305 226.455 374.065 c 0
 243.028 424.539 255.459 472.375 263.745 517.575 c 0
 272.785 567.295 279.565 619.275 284.085 673.515 c 1
 286.345 740.185 l 1
 281.825 850.925 l 1
 277.305 917.972 267.512 976.731 252.445 1027.21 c 1
EndSplineSet
EndChar
StartChar: asterisk
Encoding: 12 42
OldEncoding: 42
Width: 508
Flags: W
DStem: 163.355 763.01 211.945 718.94 28.8848 639.84 79.7354 591.25 211.945 718.94 286.525 763.01 256.015 588.99 337.375 637.58 256.015 989.01 339.635 989.01 209.685 834.2 286.525 834.2
Fore
28.8848 807.08 m 1
 81.9951 887.31 l 1
 209.685 834.2 l 1
 256.015 989.01 l 1
 339.635 989.01 l 1
 286.525 834.2 l 1
 445.855 885.05 l 1
 448.115 799.17 l 1
 286.525 763.01 l 1
 337.375 637.58 l 1
 256.015 588.99 l 1
 211.945 718.94 l 1
 79.7354 591.25 l 1
 28.8848 639.84 l 1
 163.355 763.01 l 1
 28.8848 807.08 l 1
EndSplineSet
MinimumDistance: x4,-1 
EndChar
StartChar: plus
Encoding: 13 43
OldEncoding: 43
Width: 762
Flags: W
HStem: 6.38965 21G<200.735 297.915> 293.41 97.18<40 281 439 677>
DStem: 295.655 293.41 390.575 293.41 200.735 6.38965 297.915 6.38965 418.825 677.61 516.005 677.61 328.425 390.59 423.345 390.59
Fore
418.825 677.61 m 1
 516.005 677.61 l 1
 423.345 390.59 l 1
 710.365 390.59 l 1
 677.595 293.41 l 1
 390.575 293.41 l 1
 297.915 6.38965 l 1
 200.735 6.38965 l 1
 295.655 293.41 l 1
 8.63477 293.41 l 1
 41.4053 390.59 l 1
 328.425 390.59 l 1
 418.825 677.61 l 1
EndSplineSet
MinimumDistance: x1,-1 
EndChar
StartChar: comma
Encoding: 14 44
OldEncoding: 44
Width: 366
Flags: W
Fore
287.21 123.525 m 0
 269.13 60.2451 235.23 10.9014 185.51 -24.5049 c 0
 138.804 -57.6514 90.9668 -77.6152 42 -84.3945 c 1
 23.9199 -84.3945 14.8799 -81.3809 14.8799 -75.3555 c 2
 14.8799 -73.0947 l 1
 26.1797 -60.665 l 1
 45.0137 -54.6387 74.3936 -41.832 114.32 -22.2451 c 0
 148.974 -3.41211 172.704 20.6953 185.51 50.0752 c 1
 167.43 45.5547 l 1
 139.18 41.0352 l 1
 94.7334 45.5547 72.5098 65.5186 72.5098 100.925 c 0
 72.5098 110.719 74.7695 123.148 79.29 138.215 c 0
 88.3301 164.582 103.773 187.559 125.62 207.145 c 0
 148.974 225.979 176.094 235.395 206.98 235.395 c 0
 265.74 235.395 295.12 212.041 295.12 165.335 c 0
 295.12 157.049 292.483 143.111 287.21 123.525 c 0
EndSplineSet
EndChar
StartChar: hyphen
Encoding: 15 45
OldEncoding: 45
Width: 435
Flags: W
HStem: 346.15 101.7<54 351>
Fore
382.735 447.85 m 1
 351.095 346.15 l 1
 22.2646 346.15 l 1
 55.0352 447.85 l 1
 382.735 447.85 l 1
EndSplineSet
EndChar
StartChar: period
Encoding: 16 46
OldEncoding: 46
Width: 366
Flags: W
Fore
54.625 151 m 1
 62.9121 175.86 80.6152 199.214 107.735 221.06 c 0
 131.841 240.646 157.831 250.44 185.705 250.44 c 0
 203.785 250.44 218.475 245.92 229.775 236.88 c 0
 243.335 226.334 251.999 213.903 255.765 199.59 c 1
 258.025 179.25 l 1
 253.505 151 l 1
 242.205 123.88 225.255 100.903 202.655 82.0703 c 0
 177.795 61.7305 150.675 51.5596 121.295 51.5596 c 0
 91.915 51.5596 71.9512 61.7305 61.4053 82.0703 c 0
 53.1182 95.6299 48.9746 108.813 48.9746 121.62 c 1
 54.625 151 l 1
EndSplineSet
EndChar
StartChar: slash
Encoding: 17 47
OldEncoding: 47
Width: 364
Flags: W
HStem: -28.3047 21G<-198.25 -121.41>
DStem: 459.41 985.305 536.25 985.305 -198.25 -28.3047 -121.41 -28.3047
Fore
-198.25 -28.3047 m 1
 459.41 985.305 l 1
 536.25 985.305 l 1
 -121.41 -28.3047 l 1
 -198.25 -28.3047 l 1
EndSplineSet
EndChar
StartChar: zero
Encoding: 18 48
OldEncoding: 48
Width: 619
Flags: W
HStem: -17.6602 97.1797<145.815 177.455> 746.22 99.44<395.545 426.055>
Fore
145.815 -17.6602 m 0
 102.875 -17.6602 66.7148 -7.49023 37.335 12.8496 c 0
 6.44824 33.1904 -14.6445 64.8301 -25.9453 107.77 c 0
 -30.4648 125.85 -32.7246 145.813 -32.7246 167.66 c 0
 -32.7246 192.52 -30.4648 220.394 -25.9453 251.28 c 0
 -19.165 294.974 -5.98145 349.59 13.6055 415.13 c 0
 27.918 461.084 50.1416 516.076 80.2754 580.11 c 0
 111.915 644.144 142.802 692.733 172.935 725.88 c 0
 203.821 760.533 245.631 790.666 298.365 816.28 c 0
 340.552 835.866 383.115 845.66 426.055 845.66 c 0
 469.749 845.66 507.415 835.866 539.055 816.28 c 1
 569.941 794.434 589.905 764.3 598.945 725.88 c 0
 603.465 707.046 605.725 685.2 605.725 660.34 c 0
 605.725 594.8 589.528 513.063 557.135 415.13 c 0
 515.701 284.05 462.591 181.597 397.805 107.77 c 1
 354.111 61.8164 314.185 30.1768 278.025 12.8496 c 0
 232.071 -7.49023 188.001 -17.6602 145.815 -17.6602 c 0
177.455 79.5195 m 0
 235.461 79.5195 289.701 108.146 340.175 165.4 c 1
 377.465 220.77 l 1
 390.271 245.63 403.831 275.764 418.145 311.17 c 0
 426.432 328.496 439.615 362.396 457.695 412.87 c 1
 485.945 514.57 l 1
 499.505 604.97 l 1
 501.765 635.48 l 1
 499.505 660.34 l 1
 488.205 717.594 453.552 746.22 395.545 746.22 c 0
 367.671 746.22 339.799 739.44 311.925 725.88 c 0
 281.791 710.813 255.049 688.967 231.695 660.34 c 0
 220.395 648.286 200.055 613.634 170.675 556.38 c 0
 146.568 506.66 127.358 458.823 113.045 412.87 c 0
 103.251 386.504 91.5752 338.666 78.0146 269.36 c 1
 71.9883 227.174 68.9746 201.184 68.9746 191.39 c 1
 71.2354 165.4 l 1
 78.7686 136.773 91.9512 116.057 110.785 103.25 c 0
 132.631 87.4297 154.855 79.5195 177.455 79.5195 c 0
EndSplineSet
EndChar
StartChar: one
Encoding: 19 49
OldEncoding: 49
Width: 615
Flags: W
HStem: 8.96484 21G<132.745 232.185>
DStem: 324.845 598.825 502.255 844.035 132.745 8.96484 232.185 8.96484
Fore
232.185 8.96484 m 1
 132.745 8.96484 l 1
 324.845 598.825 l 1
 135.005 598.825 l 1
 159.865 680.185 l 1
 217.119 686.211 261.941 694.499 294.335 705.045 c 0
 323.715 715.592 345.938 729.528 361.005 746.855 c 0
 377.579 763.429 401.685 795.821 433.325 844.035 c 1
 502.255 844.035 l 1
 232.185 8.96484 l 1
EndSplineSet
MinimumDistance: x8,-1 
EndChar
StartChar: two
Encoding: 20 50
OldEncoding: 50
Width: 623
Flags: W
HStem: 8.96484 21G<-130.07 428.15> 753.635 90.4<402.16 453.01>
Fore
379.56 351.355 m 2
 216.84 280.165 l 1
 178.42 260.579 140 236.472 101.58 207.845 c 0
 53.3662 173.191 23.9863 139.291 13.4404 106.145 c 1
 457.53 106.145 l 1
 428.15 8.96484 l 1
 -130.07 8.96484 l 1
 -96.1699 83.5449 -72.4404 132.889 -58.8799 156.995 c 0
 -40.7998 185.621 -11.4199 218.015 29.2598 254.175 c 0
 72.9531 292.595 130.206 328.001 201.02 360.395 c 1
 351.31 432.715 l 2
 436.437 474.148 490.3 525.751 512.9 587.525 c 0
 521.187 612.385 525.33 631.595 525.33 645.155 c 0
 525.33 655.701 523.446 667.379 519.68 680.185 c 0
 509.887 706.551 495.573 725.009 476.74 735.555 c 0
 454.14 747.608 429.28 753.635 402.16 753.635 c 0
 341.894 751.375 293.304 732.919 256.39 698.265 c 0
 219.477 664.365 189.344 616.528 165.99 554.755 c 1
 64.29 554.755 l 1
 84.6299 602.969 107.606 649.299 133.22 693.745 c 0
 153.56 729.151 188.59 760.791 238.31 788.665 c 0
 276.73 811.265 310.63 825.955 340.01 832.735 c 0
 372.403 840.269 410.07 844.035 453.01 844.035 c 0
 523.07 841.775 572.414 822.565 601.04 786.405 c 0
 624.394 757.778 636.07 722.371 636.07 680.185 c 1
 633.81 647.415 l 1
 630.796 621.049 627.784 603.345 624.77 594.305 c 0
 608.196 543.831 575.804 496.749 527.59 453.055 c 0
 475.61 405.595 426.267 371.695 379.56 351.355 c 2
EndSplineSet
EndChar
StartChar: three
Encoding: 21 51
OldEncoding: 51
Width: 620
Flags: W
HStem: -17.6602 94.92<127 142> 753 92.66<370 412.86>
VStem: -64 99.4404<153 174> 408.34 111.87<303 334.9>
Fore
-51.5703 253.54 m 1
 50.1299 253.54 l 1
 41.0898 209.47 l 1
 35.4404 174.44 l 1
 35.4404 163.894 36.5703 156.36 38.8301 151.84 c 1
 41.0898 130.746 50.1299 114.55 65.9502 103.25 c 1
 83.2764 85.9238 108.137 77.2598 140.53 77.2598 c 0
 274.624 75 361.634 133.76 401.56 253.54 c 1
 406.08 273.88 408.34 290.83 408.34 304.39 c 0
 408.34 331.51 401.56 350.72 388 362.02 c 0
 363.894 383.866 322.836 394.79 264.83 394.79 c 1
 218.5 392.53 l 1
 249.01 482.93 l 1
 321.33 485.19 376.7 494.23 415.12 510.05 c 1
 452.034 528.13 479.153 565.42 496.48 621.92 c 1
 501 642.26 503.26 659.21 503.26 672.77 c 0
 503.26 699.137 495.727 717.594 480.66 728.14 c 0
 455.8 744.714 419.264 753 371.05 753 c 1
 332.63 745.467 302.12 735.674 279.52 723.62 c 0
 257.674 710.813 238.086 695.37 220.76 677.29 c 1
 204.94 654.69 194.394 635.48 189.12 619.66 c 0
 186.106 609.113 179.704 594.424 169.91 575.59 c 1
 74.9902 577.85 l 1
 102.863 662.224 145.427 728.517 202.68 776.73 c 0
 259.934 822.684 329.994 845.66 412.86 845.66 c 0
 459.566 845.66 501.376 837.374 538.29 820.8 c 0
 570.684 804.98 592.906 778.613 604.96 741.7 c 0
 610.986 727.387 614 711.19 614 693.11 c 0
 614 664.483 608.727 635.856 598.18 607.23 c 0
 583.866 565.044 564.656 533.403 540.55 512.31 c 0
 511.924 487.45 480.284 464.474 445.63 443.38 c 1
 486.31 422.286 510.04 395.92 516.82 364.28 c 0
 519.08 358.254 520.21 348.46 520.21 334.9 c 0
 520.21 308.534 514.56 277.646 503.26 242.24 c 0
 488.946 193.273 460.32 146.19 417.38 100.99 c 0
 375.193 55.79 323.59 24.1504 262.57 6.07031 c 0
 218.876 -7.49023 178.95 -15.4004 142.79 -17.6602 c 1
 105.876 -17.6602 81.0166 -15.0234 68.21 -9.75 c 1
 1.91699 3.80957 -38.0098 33.5664 -51.5703 79.5195 c 0
 -59.8564 105.887 -64 130.746 -64 154.1 c 0
 -64 177.454 -59.8564 210.6 -51.5703 253.54 c 1
EndSplineSet
MinimumDistance: x32,-1 
EndChar
StartChar: four
Encoding: 22 52
OldEncoding: 52
Width: 622
Flags: W
HStem: 8.96484 21G<222.84 320.02> 205.585 97.18<53 279 421 507>
DStem: 288.38 205.585 385.56 205.585 222.84 8.96484 320.02 8.96484 440.93 677.925 591.22 844.035 317.76 302.765 414.94 302.765 514.38 844.035 440.93 677.925 -38.1904 316.325 49.9502 302.765
Fore
288.38 205.585 m 1
 -73.2197 205.585 l 1
 -38.1904 316.325 l 1
 514.38 844.035 l 1
 591.22 844.035 l 1
 414.94 302.765 l 1
 538.11 302.765 l 1
 507.6 205.585 l 1
 385.56 205.585 l 1
 320.02 8.96484 l 1
 222.84 8.96484 l 1
 288.38 205.585 l 1
317.76 302.765 m 1
 440.93 677.925 l 1
 49.9502 302.765 l 1
 317.76 302.765 l 1
EndSplineSet
MinimumDistance: x4,-1 
EndChar
StartChar: five
Encoding: 23 53
OldEncoding: 53
Width: 617
Flags: W
HStem: 463.72 97.18<295 336.42> 743.96 101.7<282 632>
VStem: 414.39 127.69<347 388.01>
DStem: 232.46 845.66 283.31 743.96 16.6299 390.27 171.44 512.31
Fore
113.81 390.27 m 1
 16.6299 390.27 l 1
 232.46 845.66 l 1
 665.25 845.66 l 1
 632.48 743.96 l 1
 283.31 743.96 l 1
 171.44 512.31 l 1
 219.653 544.704 274.646 560.9 336.42 560.9 c 0
 374.84 560.9 410.246 554.874 442.64 542.82 c 1
 508.934 512.687 542.08 461.084 542.08 388.01 c 0
 542.08 354.863 535.3 316.066 521.74 271.62 c 1
 496.88 214.366 464.486 162.764 424.56 116.81 c 1
 382.374 72.3633 338.304 39.9697 292.35 19.6299 c 0
 265.23 7.57715 220.406 -4.85352 157.88 -17.6602 c 1
 118.706 -17.6602 81.7939 -12.7637 47.1396 -2.96973 c 0
 10.9805 8.33008 -16.1396 26.0332 -34.2197 50.1396 c 1
 -53.8066 72.7402 -64.7305 92.7031 -66.9902 110.03 c 1
 -69.25 149.58 l 1
 -69.25 172.18 l 1
 -64.7305 213.99 l 1
 42.6201 213.99 l 1
 44.8799 177.83 53.167 146.943 67.4805 121.33 c 1
 85.5596 94.9629 125.11 81.7803 186.13 81.7803 c 1
 288.584 94.5869 357.89 147.32 394.05 239.98 c 0
 407.61 277.646 414.39 313.807 414.39 348.46 c 0
 414.39 374.073 409.87 394.79 400.83 410.61 c 0
 380.49 446.017 345.836 463.72 296.87 463.72 c 0
 235.097 463.72 174.076 439.236 113.81 390.27 c 1
EndSplineSet
MinimumDistance: x9,-1 
EndChar
StartChar: six
Encoding: 24 54
OldEncoding: 54
Width: 618
Flags: W
HStem: -17.6602 90.4004<148 184.39> 438.86 92.66<301.91 345.98>
VStem: 422.82 108.48<317 332> 522.26 103.96<665.99 693.11>
Fore
619.44 628.7 m 1
 517.74 628.7 l 1
 522.26 665.99 l 1
 522.26 681.057 518.116 694.616 509.83 706.67 c 1
 497.776 729.27 475.554 743.96 443.16 750.74 c 1
 354.267 750.74 281.57 714.58 225.07 642.26 c 0
 178.363 583.5 144.464 523.986 123.37 463.72 c 1
 118.85 434.34 l 1
 176.48 476.15 l 2
 190.794 487.45 206.236 496.49 222.81 503.27 c 0
 246.164 513.816 264.996 520.974 279.31 524.74 c 0
 295.13 529.26 317.354 531.52 345.98 531.52 c 0
 392.687 531.52 430.354 522.104 458.98 503.27 c 0
 487.606 485.943 508.7 461.46 522.26 429.82 c 1
 529.794 405.714 533.56 382.36 533.56 359.76 c 1
 531.3 332.64 l 1
 531.3 328.12 l 2
 531.3 314.56 527.534 293.466 520 264.84 c 1
 506.44 230.94 496.27 209.47 489.49 200.43 c 1
 469.903 158.244 441.276 121.33 403.61 89.6904 c 1
 359.916 50.5166 320.744 23.3965 286.09 8.33008 c 0
 245.41 -8.99707 199.834 -17.6602 149.36 -17.6602 c 0
 107.927 -17.6602 71.7666 -8.24316 40.8799 10.5898 c 1
 11.5 25.6562 -8.83984 49.3867 -20.1396 81.7803 c 0
 -32.1934 116.434 -38.2197 150.71 -38.2197 184.61 c 1
 -35.96 230.94 l 1
 -27.6729 276.894 -9.2168 345.446 19.4102 436.6 c 0
 42.0098 507.414 71.3896 570.693 107.55 626.44 c 0
 157.27 704.033 212.64 759.403 273.66 792.55 c 0
 337.693 827.956 397.206 845.66 452.2 845.66 c 0
 513.22 845.66 560.304 825.696 593.45 785.77 c 0
 608.517 766.184 618.687 743.96 623.96 719.1 c 1
 626.22 693.11 l 1
 626.22 675.03 623.96 653.56 619.44 628.7 c 1
345.98 147.32 m 1
 372.347 170.674 393.063 205.326 408.13 251.28 c 1
 417.924 288.946 422.82 315.313 422.82 330.38 c 0
 422.82 349.967 420.184 367.67 414.91 383.49 c 0
 403.61 420.403 365.943 438.86 301.91 438.86 c 0
 275.544 438.86 249.177 433.586 222.81 423.04 c 0
 193.43 409.48 170.454 395.544 153.88 381.23 c 0
 116.966 352.604 89.8467 313.807 72.5195 264.84 c 0
 64.9863 239.98 61.2197 218.51 61.2197 200.43 c 0
 61.2197 182.35 64.9863 163.14 72.5195 142.8 c 0
 90.5996 96.0938 127.89 72.7402 184.39 72.7402 c 1
 240.137 70.4805 294 95.3398 345.98 147.32 c 1
EndSplineSet
EndChar
StartChar: seven
Encoding: 25 55
OldEncoding: 55
Width: 612
Flags: W
HStem: 8.96484 21G<-18.5352 92.2051> 746.855 97.18<144 558>
Fore
114.805 746.855 m 1
 145.315 844.035 l 1
 703.535 844.035 l 1
 675.285 757.025 l 1
 538.555 624.815 l 2
 516.709 603.722 466.611 548.352 388.265 458.705 c 2
 370.185 437.235 l 2
 255.679 301.635 163.019 158.879 92.2051 8.96484 c 1
 -18.5352 8.96484 l 1
 44.7451 117.445 93.335 196.169 127.235 245.135 c 0
 152.849 285.062 200.685 346.081 270.745 428.195 c 1
 439.115 615.775 l 1
 562.285 746.855 l 1
 114.805 746.855 l 1
EndSplineSet
EndChar
StartChar: eight
Encoding: 26 56
OldEncoding: 56
Width: 620
Flags: W
HStem: 755.271 90.399<396 419>
VStem: -64.3252 111.87<150 182.36> 412.535 111.87<298 317> 509.715 109.61<668.261 697.641>
Fore
248.685 797.08 m 0
 303.679 829.475 359.802 845.67 417.055 845.67 c 0
 484.855 845.67 540.602 829.475 584.295 797.08 c 1
 605.389 778.247 617.065 753.011 619.325 721.37 c 1
 619.325 697.641 l 2
 619.325 678.807 615.182 654.324 606.895 624.19 c 0
 592.581 575.977 571.111 541.324 542.485 520.23 c 1
 517.625 497.631 485.231 474.276 445.305 450.171 c 1
 467.905 445.65 489.375 422.674 509.715 381.24 c 0
 519.509 362.406 524.405 340.561 524.405 315.7 c 0
 524.405 292.347 518.001 260.707 505.195 220.78 c 1
 471.295 143.187 417.432 82.5439 343.605 38.8506 c 0
 278.818 -1.07617 209.512 -19.9092 135.685 -17.6494 c 0
 107.812 -17.6494 75.418 -10.4932 38.5049 3.82031 c 0
 9.125 15.1201 -14.9814 32.8242 -33.8154 56.9307 c 0
 -54.1553 81.79 -64.3252 113.431 -64.3252 151.851 c 0
 -64.3252 181.23 -60.9346 204.207 -54.1553 220.78 c 1
 -34.5684 286.32 -5.56543 335.664 32.8555 368.811 c 1
 52.4414 390.656 92.7451 417.776 153.765 450.171 c 1
 120.995 482.94 l 2
 114.969 488.967 109.695 496.5 105.175 505.54 c 1
 96.1348 536.051 l 1
 93.875 556.391 l 1
 93.875 575.225 97.6416 597.824 105.175 624.19 c 1
 130.789 696.511 178.625 754.141 248.685 797.08 c 0
489.375 725.891 m 0
 472.049 745.477 441.915 755.271 398.975 755.271 c 0
 353.775 755.271 315.355 743.971 283.715 721.37 c 0
 246.802 696.511 221.941 664.117 209.135 624.19 c 0
 204.615 609.877 202.355 592.174 202.355 571.08 c 0
 204.615 526.634 228.345 501.021 273.545 494.24 c 2
 297.275 491.98 l 2
 361.309 489.721 411.405 506.671 447.565 542.83 c 1
 475.438 568.444 493.895 595.564 502.935 624.19 c 0
 507.455 640.011 509.715 654.7 509.715 668.261 c 0
 509.715 689.354 502.935 708.564 489.375 725.891 c 0
403.495 343.95 m 0
 381.648 386.137 339.085 406.101 275.805 403.841 c 0
 217.045 403.841 164.688 383.124 118.735 341.69 c 0
 86.3408 310.804 64.8721 274.645 54.3252 233.21 c 0
 49.8047 218.896 47.5449 201.946 47.5449 182.36 c 0
 47.5449 159.761 52.0654 142.435 61.1055 130.381 c 0
 73.9121 109.287 107.812 92.3369 162.805 79.5303 c 1
 203.485 81.79 246.049 91.207 290.495 107.78 c 1
 348.501 140.927 385.415 184.244 401.235 237.73 c 0
 408.769 260.33 412.535 280.294 412.535 297.62 c 2
 412.535 299.881 l 2
 412.535 319.467 409.521 334.156 403.495 343.95 c 0
EndSplineSet
MinimumDistance: x3,-1 
EndChar
StartChar: nine
Encoding: 27 57
OldEncoding: 57
Width: 620
Flags: W
HStem: 750.734 94.92<392.455 425.225>
VStem: -56.1553 108.48<138.273 167.654>
Fore
-47.1152 195.904 m 1
 56.8447 195.904 l 1
 52.3252 167.654 l 1
 52.3252 151.834 56.8447 136.391 65.8848 121.324 c 1
 81.7051 100.984 105.812 87.8008 138.205 81.7734 c 1
 225.591 81.7734 295.651 115.297 348.385 182.344 c 0
 364.959 204.19 384.921 234.7 408.275 273.874 c 0
 427.861 307.021 441.045 336.4 447.825 362.014 c 1
 454.605 392.523 l 1
 417.691 360.13 380.025 334.518 341.605 315.684 c 0
 320.512 306.644 296.405 299.864 269.285 295.344 c 1
 178.885 299.864 l 1
 130.671 305.891 93.0049 328.114 65.8848 366.534 c 1
 47.8047 397.42 38.7646 431.697 38.7646 469.364 c 2
 38.7646 491.964 l 1
 40.2715 504.771 46.2988 527.748 56.8447 560.894 c 0
 60.6113 575.96 69.6514 599.313 83.9648 630.954 c 1
 105.812 671.634 134.438 707.794 169.845 739.434 c 0
 218.059 780.867 258.361 808.74 290.755 823.054 c 0
 328.421 838.12 373.245 845.654 425.225 845.654 c 0
 516.379 847.914 572.501 814.014 593.595 743.954 c 1
 602.635 719.094 607.155 689.714 607.155 655.813 c 0
 607.155 612.874 600.375 561.271 586.815 501.004 c 0
 585.309 488.95 577.398 463.714 563.085 425.294 c 1
 538.225 348.454 l 1
 522.405 302.5 498.299 253.157 465.905 200.424 c 0
 419.951 123.584 360.815 66.3301 288.495 28.6641 c 1
 238.775 5.31055 188.679 -10.1328 138.205 -17.666 c 1
 101.291 -17.666 67.0146 -13.5225 35.375 -5.23633 c 1
 9.76172 3.80371 -10.9551 18.4941 -26.7754 38.834 c 0
 -46.3613 67.4609 -56.1553 100.607 -56.1553 138.273 c 0
 -56.1553 157.86 -53.1416 177.07 -47.1152 195.904 c 1
227.475 681.804 m 0
 198.095 653.178 176.625 617.018 163.065 573.324 c 0
 155.531 544.697 151.765 519.084 151.765 496.484 c 1
 156.285 443.374 l 1
 170.599 401.188 208.265 381.224 269.285 383.484 c 0
 294.898 383.484 322.771 390.264 352.905 403.824 c 0
 380.778 415.124 403.001 429.061 419.575 445.634 c 1
 459.501 476.521 485.869 514.188 498.675 558.634 c 0
 506.209 585 509.975 607.601 509.975 626.434 c 0
 509.975 650.54 506.961 670.504 500.935 686.324 c 0
 493.401 707.418 480.972 722.86 463.645 732.654 c 0
 441.799 744.708 418.068 750.734 392.455 750.734 c 0
 330.682 750.734 275.688 727.758 227.475 681.804 c 0
EndSplineSet
MinimumDistance: x2,-1 
EndChar
StartChar: colon
Encoding: 28 58
OldEncoding: 58
Width: 363
Flags: W
HStem: 25.9551 198.88<51.5703 115.98> 609.035 200.01<240.28 305.82>
Fore
-16.2305 125.395 m 1
 -7.94336 148.749 9.75977 172.102 36.8799 195.455 c 0
 61.7402 215.041 88.1064 224.835 115.98 224.835 c 0
 135.566 224.835 151.01 220.315 162.31 211.275 c 1
 173.61 204.495 180.39 192.065 182.65 173.985 c 2
 184.91 155.905 l 1
 180.39 125.395 l 1
 173.61 100.535 156.66 77.5586 129.54 56.4648 c 0
 104.68 36.125 78.6904 25.9551 51.5703 25.9551 c 0
 27.4629 25.9551 7.12305 36.125 -9.4502 56.4648 c 1
 -16.9834 69.2715 -20.75 83.208 -20.75 98.2754 c 1
 -16.2305 125.395 l 1
171.35 708.475 m 1
 181.144 736.349 199.6 760.455 226.72 780.795 c 0
 253.84 799.629 280.206 809.045 305.82 809.045 c 0
 333.693 809.045 353.656 799.629 365.71 780.795 c 0
 371.736 771.001 374.75 757.065 374.75 738.985 c 1
 370.23 708.475 l 1
 363.45 683.615 346.5 660.639 319.38 639.545 c 0
 294.52 619.205 268.153 609.035 240.28 609.035 c 0
 215.42 609.035 195.456 619.205 180.39 639.545 c 1
 172.856 652.352 169.09 666.289 169.09 681.355 c 1
 171.35 708.475 l 1
EndSplineSet
EndChar
StartChar: semicolon
Encoding: 29 59
OldEncoding: 59
Width: 367
Flags: W
HStem: 609.485 198.88<232.685 298.225>
Fore
203.305 88.5547 m 0
 181.459 24.5215 146.429 -24.8213 98.2148 -59.4746 c 0
 51.5088 -91.8682 4.80176 -111.831 -41.9053 -119.365 c 1
 -62.2451 -119.365 -72.415 -116.352 -72.415 -110.325 c 2
 -72.415 -108.065 l 1
 -61.1152 -95.6348 l 1
 -43.7881 -90.3613 -14.4082 -77.5547 27.0254 -57.2148 c 1
 63.1846 -36.875 87.668 -12.7686 100.475 15.1055 c 1
 77.875 10.585 l 1
 51.8848 6.06543 l 1
 7.43848 10.585 -14.7852 30.5479 -14.7852 65.9551 c 0
 -14.7852 75.748 -12.5254 88.1787 -8.00488 103.245 c 0
 1.03516 129.611 16.4785 152.589 38.3252 172.175 c 0
 61.6787 191.009 88.7988 200.425 119.685 200.425 c 0
 179.951 200.425 210.085 177.071 210.085 130.365 c 0
 210.085 119.818 207.825 105.882 203.305 88.5547 c 0
166.015 708.925 m 1
 172.795 733.785 190.499 757.139 219.125 778.985 c 0
 243.231 798.571 269.599 808.365 298.225 808.365 c 0
 313.291 808.365 327.605 803.845 341.165 794.805 c 0
 356.231 785.765 364.895 773.335 367.155 757.515 c 2
 369.415 741.695 l 1
 364.895 708.925 l 1
 355.855 684.818 338.151 661.842 311.785 639.995 c 0
 286.925 619.655 260.559 609.485 232.685 609.485 c 0
 205.565 609.485 185.602 619.655 172.795 639.995 c 0
 165.262 652.801 161.495 666.738 161.495 681.805 c 1
 166.015 708.925 l 1
EndSplineSet
EndChar
StartChar: less
Encoding: 30 60
OldEncoding: 60
Width: 757
Flags: W
DStem: -3.08496 293.41 142.685 342 579.995 6.38965 617.285 117.13 798.085 677.61 763.055 565.74 29.6846 390.59 142.685 342
Fore
798.085 677.61 m 1
 763.055 565.74 l 1
 142.685 342 l 1
 617.285 117.13 l 1
 579.995 6.38965 l 1
 -3.08496 293.41 l 1
 29.6846 390.59 l 1
 798.085 677.61 l 1
EndSplineSet
EndChar
StartChar: equal
Encoding: 31 61
OldEncoding: 61
Width: 762
Flags: W
HStem: 174.825 97.18<-2 640> 410.995 97.18<75 717>
Fore
76.6299 508.175 m 1
 746.72 508.175 l 1
 717.34 410.995 l 1
 46.1201 410.995 l 1
 76.6299 508.175 l 1
-0.209961 272.005 m 1
 671.01 272.005 l 1
 640.5 174.825 l 1
 -30.7197 174.825 l 1
 -0.209961 272.005 l 1
EndSplineSet
EndChar
StartChar: greater
Encoding: 32 62
OldEncoding: 62
Width: 767
Flags: W
DStem: 101.845 565.74 136.875 677.61 571.925 342 722.215 390.59 571.925 342 689.445 293.41 -43.9248 117.13 -81.2148 6.38965
Fore
722.215 390.59 m 1
 689.445 293.41 l 1
 -81.2148 6.38965 l 1
 -43.9248 117.13 l 1
 571.925 342 l 1
 101.845 565.74 l 1
 136.875 677.61 l 1
 722.215 390.59 l 1
EndSplineSet
MinimumDistance: x0,-1 
EndChar
StartChar: question
Encoding: 33 63
OldEncoding: 63
Width: 717
Flags: W
HStem: -1.95508 21G<110.47 238.16> 916.735 106.225<487.89 529.7>
DStem: 156.8 141.555 284.49 141.555 110.47 -1.95508 238.16 -1.95508
Fore
328.56 269.245 m 1
 198.61 269.245 l 1
 226.86 351.735 l 2
 241.174 392.415 264.903 428.951 298.05 461.345 c 0
 325.924 488.465 364.72 520.105 414.44 556.265 c 2
 465.29 592.425 l 1
 476.59 602.219 492.034 613.895 511.62 627.455 c 1
 551.17 667.005 l 1
 579.796 706.932 598.254 739.325 606.54 764.185 c 0
 612.566 778.499 615.58 794.695 615.58 812.775 c 1
 611.06 843.285 l 1
 604.28 865.885 591.097 884.342 571.51 898.655 c 1
 547.403 910.709 519.53 916.735 487.89 916.735 c 0
 444.196 916.735 406.53 908.448 374.89 891.875 c 0
 345.51 876.809 319.144 854.961 295.79 826.335 c 0
 278.464 805.241 263.773 780.005 251.72 750.625 c 1
 233.64 696.385 l 1
 110.47 696.385 l 1
 130.057 759.665 157.93 814.658 194.09 861.365 c 1
 227.236 907.318 272.813 945.738 330.82 976.625 c 0
 388.826 1007.51 455.12 1022.96 529.7 1022.96 c 1
 578.29 1020.7 l 1
 636.296 1013.92 678.106 995.459 703.72 965.325 c 0
 729.334 935.945 743.27 903.551 745.53 868.145 c 1
 745.53 856.845 l 2
 745.53 821.438 739.88 788.291 728.58 757.405 c 1
 720.294 728.025 705.604 697.139 684.51 664.745 c 0
 658.144 621.051 588.084 558.525 474.33 477.165 c 1
 443.443 456.825 417.83 436.861 397.49 417.275 c 0
 371.876 390.155 354.927 362.281 346.64 333.655 c 2
 328.56 269.245 l 1
110.47 -1.95508 m 1
 156.8 141.555 l 1
 284.49 141.555 l 1
 238.16 -1.95508 l 1
 110.47 -1.95508 l 1
EndSplineSet
MinimumDistance: x32,-1 
EndChar
StartChar: at
Encoding: 34 64
OldEncoding: 64
Width: 1330
Flags: W
HStem: -193.555 103.961<396 434> 91.2061 88.1399<397.755 468.945> 632.476 101.7<704 742.405>
VStem: 245.205 131.08<254 285.565>
DStem: 934.505 701.406 1052.03 701.406 874.615 608.746 781.955 285.565
Fore
1052.03 701.406 m 1
 781.955 285.565 l 1
 758.225 243.756 l 1
 755.965 224.546 l 1
 758.225 206.466 l 1
 766.512 189.892 788.358 181.605 823.765 181.605 c 1
 865.951 190.646 905.879 207.596 943.545 232.456 c 0
 980.459 255.81 1012.1 281.8 1038.46 310.426 c 0
 1098.73 378.979 1143.55 457.702 1172.93 546.596 c 1
 1175.2 595.186 l 1
 1170.67 667.506 l 1
 1164.65 705.926 1152.22 740.579 1133.38 771.466 c 0
 1117.57 798.586 1084.42 827.966 1033.95 859.605 c 0
 982.719 890.492 931.115 911.209 879.135 921.756 c 0
 853.521 926.275 826.401 928.536 797.775 928.536 c 0
 734.495 928.536 670.461 916.859 605.675 893.506 c 0
 544.655 872.412 485.519 843.409 428.265 806.496 c 0
 365.738 766.569 307.731 718.732 254.245 662.985 c 0
 202.265 609.499 164.599 563.17 141.245 523.996 c 0
 111.865 475.029 90.7715 431.712 77.9648 394.046 c 0
 59.8848 338.3 50.8447 285.189 50.8447 234.716 c 1
 55.3652 173.695 l 1
 61.3916 132.262 82.8613 90.8291 119.775 49.3955 c 1
 157.441 4.19531 203.771 -31.2109 258.765 -56.8242 c 0
 303.211 -78.6709 361.219 -89.5938 432.785 -89.5938 c 0
 517.159 -89.5938 613.585 -73.3975 722.065 -41.0039 c 1
 733.365 -133.664 l 1
 609.065 -173.591 497.195 -193.555 397.755 -193.555 c 0
 322.421 -193.555 252.361 -182.254 187.575 -159.654 c 1
 137.855 -140.068 84.3691 -105.038 27.1152 -54.5645 c 0
 -32.3984 -0.324219 -66.2988 57.3057 -74.585 118.326 c 0
 -77.5986 134.146 -79.1055 158.252 -79.1055 190.646 c 0
 -79.1055 244.886 -68.1816 306.659 -46.335 375.966 c 0
 -29.7617 430.959 -9.04492 476.912 15.8154 513.826 c 1
 57.249 581.626 109.605 649.802 172.885 718.355 c 1
 239.932 788.416 314.889 847.552 397.755 895.766 c 0
 445.969 924.392 494.559 948.499 543.525 968.086 c 0
 600.778 989.932 656.148 1006.13 709.635 1016.68 c 0
 775.175 1029.48 833.182 1034.76 883.655 1032.5 c 0
 949.948 1030.24 1020.01 1011.03 1093.83 974.865 c 0
 1169.17 939.459 1221.9 892.376 1252.04 833.615 c 1
 1274.63 798.962 1288.2 755.646 1292.71 703.666 c 0
 1294.97 693.119 1296.11 676.922 1296.11 655.076 c 0
 1296.11 622.682 1291.21 588.782 1281.42 553.376 c 0
 1261.83 492.355 1241.11 441.506 1219.26 400.826 c 1
 1177.83 345.079 1148.45 307.412 1131.12 287.826 c 0
 1094.96 246.392 1058.05 210.232 1020.38 179.346 c 0
 970.665 139.42 918.309 112.299 863.315 97.9854 c 0
 833.182 88.9453 796.645 84.4258 753.705 84.4258 c 0
 722.065 84.4258 700.595 86.6855 689.295 91.2061 c 1
 665.188 97.2324 649.745 111.169 642.965 133.016 c 1
 635.432 150.342 631.665 164.655 631.665 175.956 c 2
 631.665 188.386 l 1
 596.635 160.136 l 2
 586.089 151.85 569.139 141.68 545.785 129.626 c 0
 526.198 119.079 503.222 110.039 476.855 102.506 c 0
 448.229 94.9727 421.861 91.2061 397.755 91.2061 c 0
 370.635 91.2061 346.528 95.7256 325.435 104.766 c 0
 292.289 120.586 270.818 140.55 261.025 164.655 c 0
 251.985 192.529 246.711 219.649 245.205 246.016 c 1
 245.205 255.056 l 2
 245.205 281.422 249.725 310.802 258.765 343.195 c 1
 270.065 372.576 282.495 399.695 296.055 424.556 c 0
 352.555 525.502 432.031 607.239 534.485 669.766 c 1
 608.312 712.706 677.619 734.176 742.405 734.176 c 0
 761.238 734.176 777.435 731.916 790.995 727.396 c 0
 818.115 718.355 838.831 702.159 853.145 678.806 c 0
 865.951 659.972 873.108 639.256 874.615 616.656 c 1
 874.615 608.746 l 1
 934.505 701.406 l 1
 1052.03 701.406 l 1
797.775 533.036 m 1
 802.295 568.065 l 1
 803.802 577.105 802.295 585.392 797.775 592.926 c 0
 788.735 610.252 771.031 621.176 744.665 625.695 c 1
 735.625 630.216 722.441 632.476 705.115 632.476 c 0
 672.722 632.476 638.068 623.06 601.155 604.226 c 0
 564.995 585.392 534.861 563.922 510.755 539.815 c 0
 480.621 508.176 456.892 476.536 439.565 444.896 c 1
 416.965 414.762 399.262 380.862 386.455 343.195 c 0
 379.675 321.35 376.285 302.14 376.285 285.565 c 0
 376.285 269.746 380.429 252.042 388.715 232.456 c 1
 400.015 197.05 426.759 179.346 468.945 179.346 c 1
 503.975 183.866 l 1
 551.435 195.92 597.012 224.922 640.705 270.876 c 0
 668.579 298.749 698.711 339.052 731.105 391.786 c 0
 765.759 447.532 787.981 494.616 797.775 533.036 c 1
EndSplineSet
MinimumDistance: x0,-1 
EndChar
StartChar: A
Encoding: 35 65
OldEncoding: 65
Width: 890
Flags: W
HStem: -1.1748 21G<-175.83 -36.8398 562.06 707.83> 301.665 109.61<255 550> 990.17 20G<521.38 680.71>
DStem: 521.38 1010.17 548.5 853.105 -175.83 -1.1748 241.14 411.275 521.38 1010.17 171.08 301.665 -175.83 -1.1748 -36.8398 -1.1748
Fore
171.08 301.665 m 1
 -36.8398 -1.1748 l 1
 -175.83 -1.1748 l 1
 521.38 1010.17 l 1
 680.71 1010.17 l 1
 707.83 -1.1748 l 1
 562.06 -1.1748 l 1
 557.54 301.665 l 1
 171.08 301.665 l 1
548.5 853.105 m 1
 241.14 411.275 l 1
 555.28 411.275 l 1
 548.5 853.105 l 1
EndSplineSet
MinimumDistance: x8,-1 
EndChar
StartChar: B
Encoding: 36 66
OldEncoding: 66
Width: 875
Flags: W
HStem: -1.1748 115.26<70 408> 462.125 115.26<214 456> 897.175 112.995<317 568>
DStem: 223.93 1010.17 318.85 897.175 -104.9 -1.1748 213.76 577.385 223.93 1010.17 177.6 462.125 -104.9 -1.1748 63.4697 114.085
Fore
394.56 -1.1748 m 2
 -104.9 -1.1748 l 1
 223.93 1010.17 l 1
 674.8 1010.17 l 2
 709.454 1010.17 741.094 1002.26 769.72 986.445 c 0
 803.62 969.119 827.35 949.155 840.91 926.555 c 0
 858.236 900.941 866.9 870.809 866.9 836.155 c 1
 862.38 787.565 l 1
 820.193 656.485 750.134 572.488 652.2 535.575 c 1
 692.88 512.975 l 1
 706.44 503.935 719.246 491.505 731.3 475.685 c 2
 734.69 471.165 l 2
 747.496 450.825 756.16 425.211 760.68 394.325 c 1
 760.68 378.505 l 2
 760.68 340.839 754.276 305.432 741.47 272.285 c 1
 721.884 212.771 688.736 162.675 642.03 121.995 c 0
 596.076 81.3154 552.384 51.1816 510.95 31.5947 c 0
 463.49 9.74805 424.693 -1.1748 394.56 -1.1748 c 2
318.85 897.175 m 1
 213.76 577.385 l 1
 482.7 577.385 l 2
 554.267 577.385 606.624 593.581 639.77 625.975 c 0
 675.177 659.121 702.296 705.451 721.13 764.965 c 1
 723.39 789.825 l 1
 723.39 827.491 706.44 853.858 672.54 868.925 c 0
 626.586 887.759 587.414 897.175 555.02 897.175 c 2
 318.85 897.175 l 1
177.6 462.125 m 1
 63.4697 114.085 l 1
 390.04 114.085 l 2
 449.554 114.085 498.896 133.671 538.07 172.845 c 0
 579.504 212.771 608.884 261.361 626.21 318.615 c 1
 628.47 354.775 l 1
 628.47 391.688 616.794 418.055 593.44 433.875 c 1
 558.034 452.709 504.17 462.125 431.85 462.125 c 2
 177.6 462.125 l 1
EndSplineSet
MinimumDistance: x17,-1 
EndChar
StartChar: C
Encoding: 37 67
OldEncoding: 67
Width: 942
Flags: W
HStem: -33.0996 118.649<278 325.765> 911.58 117.52<590 624.085>
VStem: -27.9248 138.99<278 317>
Fore
926.925 698.01 m 1
 793.585 698.01 l 1
 791.325 740.95 782.661 779.746 767.595 814.4 c 0
 757.049 837 743.111 854.704 725.785 867.51 c 1
 706.951 884.084 686.988 895.76 665.895 902.54 c 0
 647.815 908.566 622.955 911.58 591.315 911.58 c 0
 552.142 911.58 509.955 902.916 464.755 885.59 c 0
 418.049 869.017 376.238 845.286 339.325 814.4 c 0
 297.139 777.486 258.719 731.156 224.065 675.41 c 0
 190.919 621.17 163.045 561.656 140.445 496.87 c 0
 120.858 438.863 111.065 381.233 111.065 323.98 c 2
 111.065 317.2 l 2
 111.065 264.466 119.352 219.644 135.925 182.73 c 0
 166.059 117.943 229.339 85.5498 325.765 85.5498 c 0
 413.151 85.5498 492.629 117.943 564.195 182.73 c 0
 590.562 206.084 615.045 233.956 637.645 266.35 c 1
 664.012 297.99 688.119 332.644 709.965 370.31 c 1
 839.915 370.31 l 1
 778.895 247.517 696.028 147.7 591.315 70.8604 c 0
 564.195 49.7666 518.995 26.79 455.715 1.92969 c 1
 390.175 -21.4238 331.415 -33.0996 279.435 -33.0996 c 0
 228.209 -33.0996 177.358 -21.4238 126.885 1.92969 c 1
 77.165 27.543 44.7715 50.5195 29.7051 70.8604 c 0
 -6.45508 123.594 -25.665 188.756 -27.9248 266.35 c 1
 -27.9248 279.91 l 2
 -27.9248 352.983 -15.8721 425.304 8.23535 496.87 c 0
 33.0947 573.71 71.8916 651.68 124.625 730.78 c 1
 172.085 805.36 233.105 870.146 307.685 925.14 c 0
 338.571 948.494 385.655 971.847 448.935 995.2 c 0
 515.229 1017.8 573.611 1029.1 624.085 1029.1 c 0
 674.559 1029.1 725.409 1017.8 776.635 995.2 c 1
 824.095 971.847 854.981 948.494 869.295 925.14 c 1
 907.715 875.42 926.925 806.113 926.925 717.22 c 2
 926.925 698.01 l 1
EndSplineSet
MinimumDistance: x10,-1 
EndChar
StartChar: D
Encoding: 38 68
OldEncoding: 68
Width: 947
Flags: W
HStem: -1.1748 115.26<79 370> 897.175 112.995<327 593>
DStem: 236.045 1010.17 328.705 897.175 -95.0449 -1.1748 74.4551 114.085
Fore
368.255 -1.1748 m 2
 -95.0449 -1.1748 l 1
 236.045 1010.17 l 1
 624.765 1010.17 l 2
 733.245 1010.17 813.475 974.015 865.455 901.695 c 1
 897.849 853.481 914.045 795.475 914.045 727.675 c 0
 914.045 686.241 908.771 642.925 898.225 597.725 c 1
 869.975 500.545 l 1
 823.269 354.398 750.195 237.255 650.755 149.115 c 0
 592.749 97.1348 539.262 60.2217 490.295 38.375 c 1
 439.068 12.0088 398.389 -1.1748 368.255 -1.1748 c 2
576.175 897.175 m 2
 328.705 897.175 l 1
 74.4551 114.085 l 1
 355.825 114.085 l 2
 388.972 114.085 426.262 121.241 467.695 135.555 c 0
 488.789 143.841 520.429 166.065 562.615 202.225 c 1
 603.295 240.645 630.039 271.531 642.845 294.885 c 0
 688.799 376.245 721.191 444.799 740.025 500.545 c 0
 766.392 574.371 779.575 641.041 779.575 700.555 c 0
 779.575 726.921 776.562 749.145 770.535 767.225 c 0
 747.935 853.858 683.148 897.175 576.175 897.175 c 2
EndSplineSet
MinimumDistance: x11,-1 
EndChar
StartChar: E
Encoding: 39 69
OldEncoding: 69
Width: 870
Flags: W
HStem: -1.1748 115.26<82 632> 462.125 115.26<226 736> 897.175 112.995<325 900>
DStem: 234.29 1010.17 326.95 897.175 -92.2803 -1.1748 225.25 577.385 234.29 1010.17 185.7 462.125 -92.2803 -1.1748 74.96 114.085
Fore
-92.2803 -1.1748 m 1
 234.29 1010.17 l 1
 938.28 1010.17 l 1
 900.99 897.175 l 1
 326.95 897.175 l 1
 225.25 577.385 l 1
 773.3 577.385 l 1
 736.01 462.125 l 1
 185.7 462.125 l 1
 74.96 114.085 l 1
 669.34 114.085 l 1
 632.05 -1.1748 l 1
 -92.2803 -1.1748 l 1
EndSplineSet
MinimumDistance: x4,-1 
EndChar
StartChar: F
Encoding: 40 70
OldEncoding: 70
Width: 795
Flags: W
HStem: -1.1748 21G<-92.915 37.0352> 462.125 115.26<226 668> 897.175 112.995<327 876>
DStem: 235.915 1010.17 328.575 897.175 -92.915 -1.1748 224.615 577.385 235.915 1010.17 187.325 462.125 -92.915 -1.1748 37.0352 -1.1748
Fore
-92.915 -1.1748 m 1
 235.915 1010.17 l 1
 913.915 1010.17 l 1
 876.625 897.175 l 1
 328.575 897.175 l 1
 224.615 577.385 l 1
 705.995 577.385 l 1
 668.705 462.125 l 1
 187.325 462.125 l 1
 37.0352 -1.1748 l 1
 -92.915 -1.1748 l 1
EndSplineSet
MinimumDistance: x4,-1 
EndChar
StartChar: G
Encoding: 41 71
OldEncoding: 71
Width: 1018
Flags: W
HStem: -33.1133 114.13<280.705 353.025> -4.86328 21G<676.205 757.565> 421.146 115.26<511 765> 911.566 117.524<622 662.645>
VStem: 854.745 129.95<739.807 777.097>
Fore
472.805 421.146 m 1
 512.355 536.406 l 1
 933.845 536.406 l 1
 757.565 -4.86328 l 1
 676.205 -4.86328 l 1
 686.375 119.437 l 1
 607.275 67.4561 542.111 29.0361 490.885 4.17676 c 0
 437.398 -20.6836 367.339 -33.1133 280.705 -33.1133 c 0
 238.519 -33.1133 191.435 -22.1904 139.455 -0.34375 c 0
 90.4883 19.9961 55.835 41.4668 35.4951 64.0664 c 0
 -7.44531 115.293 -31.1748 180.833 -35.6953 260.687 c 1
 -35.6953 286.677 l 2
 -35.6953 358.996 -25.1484 428.303 -4.05469 494.597 c 0
 11.7646 542.811 35.8721 593.66 68.2646 647.146 c 1
 96.8916 700.633 131.545 751.106 172.225 798.566 c 0
 209.892 842.26 257.729 884.446 315.735 925.126 c 0
 352.648 949.232 403.499 972.586 468.285 995.187 c 0
 539.852 1017.79 604.639 1029.09 662.645 1029.09 c 0
 752.291 1031.35 819.339 1017.41 863.785 987.276 c 1
 925.559 948.856 962.849 905.163 975.655 856.196 c 0
 981.682 832.843 984.695 806.477 984.695 777.097 c 0
 984.695 754.496 982.435 730.767 977.915 705.906 c 1
 852.485 705.906 l 1
 854.745 739.807 l 1
 854.745 777.473 840.055 813.257 810.675 847.156 c 0
 771.501 890.097 708.975 911.566 623.095 911.566 c 0
 577.142 911.566 529.305 902.902 479.585 885.576 c 0
 427.605 868.25 382.028 844.521 342.855 814.387 c 0
 300.669 780.486 259.235 734.156 218.555 675.396 c 0
 180.889 620.402 151.509 560.137 130.415 494.597 c 0
 111.581 439.603 102.165 387.246 102.165 337.526 c 2
 102.165 319.446 l 1
 104.425 259.18 116.102 212.097 137.195 178.196 c 0
 176.369 113.41 248.312 81.0166 353.025 81.0166 c 0
 423.085 81.0166 487.119 97.2129 545.125 129.606 c 0
 587.312 152.206 624.979 178.196 658.125 207.576 c 0
 687.505 233.942 709.729 261.062 724.795 288.937 c 1
 741.369 313.797 753.045 336.772 759.825 357.866 c 2
 780.165 421.146 l 1
 472.805 421.146 l 1
EndSplineSet
MinimumDistance: x20,-1 
EndChar
StartChar: H
Encoding: 42 72
OldEncoding: 72
Width: 943
Flags: W
HStem: -1.1748 21G<-106.635 23.3154 540.855 670.805> 462.125 115.26<212 678> 990.17 20G<222.195 351.015 869.685 999.635>
DStem: 222.195 1010.17 351.015 1010.17 -106.635 -1.1748 210.895 577.385 222.195 1010.17 173.605 462.125 -106.635 -1.1748 23.3154 -1.1748 692.275 462.125 999.635 1010.17 540.855 -1.1748 670.805 -1.1748 869.685 1010.17 999.635 1010.17 728.435 577.385 670.805 -1.1748
Fore
540.855 -1.1748 m 1
 692.275 462.125 l 1
 173.605 462.125 l 1
 23.3154 -1.1748 l 1
 -106.635 -1.1748 l 1
 222.195 1010.17 l 1
 351.015 1010.17 l 1
 210.895 577.385 l 1
 728.435 577.385 l 1
 869.685 1010.17 l 1
 999.635 1010.17 l 1
 670.805 -1.1748 l 1
 540.855 -1.1748 l 1
EndSplineSet
EndChar
StartChar: I
Encoding: 43 73
OldEncoding: 73
Width: 363
Flags: W
HStem: -1.1748 21G<-49.3896 80.5596> 990.17 20G<279.44 409.39>
DStem: 279.44 1010.17 409.39 1010.17 -49.3896 -1.1748 80.5596 -1.1748
Fore
-49.3896 -1.1748 m 1
 279.44 1010.17 l 1
 409.39 1010.17 l 1
 80.5596 -1.1748 l 1
 -49.3896 -1.1748 l 1
EndSplineSet
EndChar
StartChar: J
Encoding: 44 74
OldEncoding: 74
Width: 654
Flags: W
HStem: 992.08 20G<590.02 722.23>
VStem: -116.23 136.73<145 174.745>
DStem: 590.02 1012.08 722.23 1012.08 367.41 325.035 460.07 210.905
Fore
-72.1602 322.775 m 1
 62.3096 322.775 l 1
 27.2803 221.075 l 1
 22.7598 203.749 20.5 188.305 20.5 174.745 c 0
 20.5 156.665 23.5137 142.729 29.54 132.935 c 0
 42.3467 108.075 61.9336 92.6318 88.2998 86.6055 c 1
 122.2 82.085 l 1
 176.44 82.085 226.536 102.049 272.49 141.975 c 0
 307.144 172.108 338.784 233.129 367.41 325.035 c 1
 590.02 1012.08 l 1
 722.23 1012.08 l 1
 460.07 210.905 l 1
 414.87 118.245 350.836 49.6914 267.97 5.24512 c 0
 217.496 -21.875 148.19 -34.3047 60.0498 -32.0449 c 0
 -24.3232 -29.7852 -77.4336 -0.405273 -99.2803 56.0947 c 0
 -110.58 86.9814 -116.23 117.115 -116.23 146.495 c 0
 -116.23 164.575 -112.087 187.552 -103.8 215.425 c 2
 -72.1602 322.775 l 1
EndSplineSet
EndChar
StartChar: K
Encoding: 45 75
OldEncoding: 75
Width: 866
Flags: W
HStem: -1.1748 21G<-114.195 18.0146 535.555 685.845> 990.17 20G<214.635 345.715 848.565 1019.2>
DStem: 214.635 1010.17 345.715 1010.17 -114.195 -1.1748 184.125 510.715 214.635 1010.17 131.015 343.475 -114.195 -1.1748 18.0146 -1.1748 350.235 508.455 466.625 597.725 535.555 -1.1748 685.845 -1.1748 848.565 1010.17 1019.2 1010.17 184.125 510.715 466.625 597.725
Fore
214.635 1010.17 m 1
 345.715 1010.17 l 1
 184.125 510.715 l 1
 848.565 1010.17 l 1
 1019.2 1010.17 l 1
 466.625 597.725 l 1
 685.845 -1.1748 l 1
 535.555 -1.1748 l 1
 350.235 508.455 l 1
 131.015 343.475 l 1
 18.0146 -1.1748 l 1
 -114.195 -1.1748 l 1
 214.635 1010.17 l 1
EndSplineSet
EndChar
StartChar: L
Encoding: 46 76
OldEncoding: 76
Width: 740
Flags: W
HStem: -1.1748 115.26<89 544> 990.17 20G<243.48 372.3>
DStem: 243.48 1010.17 372.3 1010.17 -85.3496 -1.1748 80.7598 114.085
Fore
243.48 1010.17 m 1
 372.3 1010.17 l 1
 80.7598 114.085 l 1
 581.35 114.085 l 1
 544.06 -1.1748 l 1
 -85.3496 -1.1748 l 1
 243.48 1010.17 l 1
EndSplineSet
MinimumDistance: x1,-1 
EndChar
StartChar: M
Encoding: 47 77
OldEncoding: 77
Width: 1090
Flags: W
HStem: -1.1748 21G<-126.71 7.75977 282.35 416.82 692.54 827.01> 990.17 20G<202.12 386.31 970.52 1154.71>
VStem: 273.31 113<149.337 275.108 664.888 820.123>
DStem: 202.12 1010.17 273.31 820.335 -126.71 -1.1748 7.75977 -1.1748 273.31 820.335 386.31 1010.17 282.35 -1.1748 398.74 149.115 958.09 820.335 1154.71 1010.17 692.54 -1.1748 827.01 -1.1748 970.52 1010.17 958.09 820.335 398.74 149.115 416.82 -1.1748
Fore
416.82 -1.1748 m 1
 282.35 -1.1748 l 1
 273.31 820.335 l 1
 7.75977 -1.1748 l 1
 -126.71 -1.1748 l 1
 202.12 1010.17 l 1
 386.31 1010.17 l 1
 398.74 149.115 l 1
 970.52 1010.17 l 1
 1154.71 1010.17 l 1
 827.01 -1.1748 l 1
 692.54 -1.1748 l 1
 958.09 820.335 l 1
 416.82 -1.1748 l 1
EndSplineSet
EndChar
StartChar: N
Encoding: 48 78
OldEncoding: 78
Width: 943
Flags: W
HStem: -1.1748 21G<-115.415 13.4053 525.295 675.585> 990.17 20G<213.415 365.965 872.205 1004.42>
DStem: 213.415 1010.17 277.825 809.035 -115.415 -1.1748 13.4053 -1.1748 277.825 809.035 365.965 1010.17 525.295 -1.1748 606.655 190.925 872.205 1010.17 1004.42 1010.17 606.655 190.925 675.585 -1.1748
Fore
675.585 -1.1748 m 1
 525.295 -1.1748 l 1
 277.825 809.035 l 1
 13.4053 -1.1748 l 1
 -115.415 -1.1748 l 1
 213.415 1010.17 l 1
 365.965 1010.17 l 1
 606.655 190.925 l 1
 872.205 1010.17 l 1
 1004.42 1010.17 l 1
 675.585 -1.1748 l 1
EndSplineSet
EndChar
StartChar: O
Encoding: 49 79
OldEncoding: 79
Width: 1018
Flags: W
HStem: -33.0996 118.649<307 344.66> 911.58 117.52<612 653.15>
Fore
653.15 1029.1 m 0
 710.403 1029.1 767.28 1017.8 823.78 995.2 c 0
 875.76 973.354 910.79 950 928.87 925.14 c 1
 971.81 871.653 995.54 806.866 1000.06 730.78 c 1
 1000.06 708.18 l 2
 1000.06 638.12 988.384 567.684 965.03 496.87 c 0
 939.416 416.264 900.996 339.424 849.77 266.35 c 0
 799.296 193.276 733.004 128.113 650.89 70.8604 c 0
 616.236 48.2598 566.894 25.2832 502.86 1.92969 c 0
 432.8 -21.4238 368.014 -33.0996 308.5 -33.0996 c 0
 251.246 -33.0996 194.746 -21.4238 139 1.92969 c 1
 82.5 28.2969 46.3398 51.2734 30.5195 70.8604 c 0
 -14.6797 126.606 -39.54 191.77 -44.0596 266.35 c 1
 -44.0596 293.47 l 2
 -44.0596 355.244 -33.1367 423.044 -11.29 496.87 c 0
 3.77637 542.07 26.7529 592.92 57.6396 649.42 c 0
 90.0342 706.674 126.57 757.9 167.25 803.1 c 0
 210.19 850.56 257.273 891.24 308.5 925.14 c 1
 341.646 949.246 392.496 972.6 461.05 995.2 c 0
 532.616 1017.8 596.65 1029.1 653.15 1029.1 c 0
613.6 911.58 m 0
 567.646 911.58 519.81 902.916 470.09 885.59 c 0
 420.37 869.017 375.546 845.286 335.62 814.4 c 0
 290.42 778.994 248.986 732.664 211.32 675.41 c 1
 174.406 623.43 145.026 563.916 123.18 496.87 c 1
 102.84 442.63 92.6699 388.014 92.6699 333.02 c 2
 92.6699 321.72 l 1
 94.9297 268.986 108.113 222.656 132.22 182.73 c 0
 173.653 117.943 244.466 85.5498 344.66 85.5498 c 0
 450.88 85.5498 543.54 117.943 622.64 182.73 c 1
 669.347 218.137 711.91 264.466 750.33 321.72 c 0
 784.983 372.946 813.61 431.33 836.21 496.87 c 1
 854.29 557.89 863.33 615.896 863.33 670.89 c 2
 863.33 675.41 l 1
 861.07 734.924 848.64 781.254 826.04 814.4 c 1
 809.466 846.794 781.97 870.523 743.55 885.59 c 0
 702.87 902.916 659.554 911.58 613.6 911.58 c 0
EndSplineSet
EndChar
StartChar: P
Encoding: 50 80
OldEncoding: 80
Width: 873
Flags: W
HStem: -1.1748 21G<-87.4854 40.2051> 427.095 115.26<231 537> 897.175 112.995<330 633>
VStem: 753.235 141.25<787.565 836.155>
DStem: 239.085 1010.17 331.745 897.175 -87.4854 -1.1748 218.745 542.355 239.085 1010.17 179.195 427.095 -87.4854 -1.1748 40.2051 -1.1748
Fore
-87.4854 -1.1748 m 1
 239.085 1010.17 l 1
 662.835 1010.17 l 2
 740.429 1010.17 802.201 991.719 848.155 954.805 c 1
 879.041 927.685 894.485 888.135 894.485 836.155 c 0
 894.485 812.049 891.849 788.318 886.575 764.965 c 1
 873.015 714.115 l 1
 843.635 622.209 792.031 551.019 718.205 500.545 c 1
 642.871 451.579 575.071 427.095 514.805 427.095 c 2
 179.195 427.095 l 1
 40.2051 -1.1748 l 1
 -87.4854 -1.1748 l 1
331.745 897.175 m 1
 218.745 542.355 l 1
 548.705 542.355 l 2
 571.305 542.355 605.581 557.799 651.535 588.685 c 0
 692.969 617.312 724.608 664.395 746.455 729.935 c 1
 750.975 751.781 753.235 770.991 753.235 787.565 c 0
 753.235 819.959 743.818 844.065 724.985 859.885 c 0
 697.865 884.745 663.965 897.175 623.285 897.175 c 2
 331.745 897.175 l 1
EndSplineSet
EndChar
StartChar: Q
Encoding: 51 81
OldEncoding: 81
Width: 1017
Flags: W
HStem: -30.3047 118.649<315 353.725> 914.375 117.515<620 661.085>
DStem: 605.715 39.7549 705.155 108.685 709.675 -78.8945 802.335 2.46484
Fore
705.155 108.685 m 1
 802.335 2.46484 l 1
 709.675 -78.8945 l 1
 605.715 39.7549 l 1
 503.262 -4.69141 406.835 -28.0449 316.435 -30.3047 c 0
 259.182 -30.3047 202.682 -18.6279 146.935 4.72461 c 1
 91.9414 30.3379 55.7812 53.3154 38.4551 73.6553 c 0
 -4.48535 126.389 -28.2148 191.552 -32.7354 269.145 c 1
 -34.9951 296.265 l 1
 -34.9951 362.559 -23.6953 430.358 -1.09473 499.665 c 0
 19.2451 558.425 41.8447 609.275 66.7051 652.215 c 0
 97.5908 708.715 133.751 759.941 175.185 805.895 c 0
 218.125 853.355 265.209 894.035 316.435 927.935 c 0
 351.089 952.041 401.185 975.395 466.725 997.995 c 0
 538.291 1020.59 603.079 1031.89 661.085 1031.89 c 0
 719.091 1031.89 776.345 1020.59 832.845 997.995 c 0
 881.059 976.901 915.711 953.549 936.805 927.935 c 0
 979.745 875.955 1003.47 811.169 1008 733.575 c 1
 1008 710.975 l 2
 1008 642.421 996.695 571.985 974.095 499.665 c 0
 949.235 425.839 914.205 355.025 869.005 287.225 c 1
 825.312 217.165 770.695 157.651 705.155 108.685 c 1
526.615 125.635 m 1
 453.165 208.125 l 1
 541.305 287.225 l 1
 635.095 185.525 l 1
 665.229 209.631 693.102 238.259 718.715 271.405 c 0
 748.849 307.565 773.709 343.725 793.295 379.885 c 0
 815.142 422.071 832.091 461.999 844.145 499.665 c 0
 862.225 560.685 871.265 618.691 871.265 673.685 c 2
 871.265 678.205 l 1
 869.005 736.965 856.951 783.295 835.105 817.195 c 0
 814.765 849.589 786.892 873.318 751.485 888.385 c 0
 710.805 905.711 667.488 914.375 621.535 914.375 c 0
 575.581 914.375 527.745 905.711 478.025 888.385 c 0
 428.305 871.812 383.481 848.081 343.555 817.195 c 0
 303.629 787.062 262.195 740.731 219.255 678.205 c 0
 180.081 620.198 150.701 560.685 131.115 499.665 c 0
 112.281 439.398 102.865 384.781 102.865 335.815 c 2
 102.865 324.515 l 1
 106.631 267.262 119.062 220.932 140.155 185.525 c 0
 179.329 120.738 250.519 88.3447 353.725 88.3447 c 0
 413.991 88.3447 471.621 100.775 526.615 125.635 c 1
EndSplineSet
MinimumDistance: x1,-1 
EndChar
StartChar: R
Encoding: 52 82
OldEncoding: 82
Width: 945
Flags: W
HStem: -1.1748 21G<-88.54 39.1504 566.86 721.67> 433.875 115.26<230 536> 897.175 112.995<329 680>
VStem: 798.51 148.03<787.565 857.625>
DStem: 238.03 1010.17 330.69 897.175 -88.54 -1.1748 219.95 549.135 238.03 1010.17 180.4 433.875 -88.54 -1.1748 39.1504 -1.1748
Fore
-88.54 -1.1748 m 1
 238.03 1010.17 l 1
 688.9 1010.17 l 2
 786.834 1010.17 858.776 993.979 904.73 961.585 c 0
 932.604 940.491 946.54 905.839 946.54 857.625 c 0
 946.54 822.972 940.89 788.318 929.59 753.665 c 0
 910.004 690.385 884.767 641.041 853.88 605.635 c 0
 825.254 574.749 778.924 538.965 714.89 498.285 c 1
 754.816 466.645 777.04 436.512 781.56 407.885 c 1
 781.56 398.845 l 2
 781.56 369.465 770.26 316.355 747.66 239.515 c 0
 725.813 171.715 714.89 124.631 714.89 98.2646 c 2
 714.89 86.9648 l 2
 714.89 64.3652 720.916 45.9082 732.97 31.5947 c 1
 721.67 -1.1748 l 1
 566.86 -1.1748 l 1
 566.86 21.4248 l 2
 566.86 44.7783 570.626 79.8086 578.16 126.515 c 1
 617.71 244.035 l 2
 629.764 279.441 635.79 312.589 635.79 343.475 c 1
 631.27 385.285 l 1
 619.97 417.679 580.796 433.875 513.75 433.875 c 2
 180.4 433.875 l 1
 39.1504 -1.1748 l 1
 -88.54 -1.1748 l 1
657.26 897.175 m 2
 330.69 897.175 l 1
 219.95 549.135 l 1
 545.39 549.135 l 2
 662.156 549.135 740.88 600.361 781.56 702.815 c 1
 792.86 726.921 798.51 755.171 798.51 787.565 c 0
 798.51 860.639 751.427 897.175 657.26 897.175 c 2
EndSplineSet
EndChar
StartChar: S
Encoding: 53 83
OldEncoding: 83
Width: 873
Flags: W
HStem: 918.374 110.736<529 566>
VStem: 605.855 148.03<307.044 351.114> 732.415 132.21<780 821.194>
Fore
848.805 717.234 m 1
 721.115 717.234 l 1
 728.648 742.094 732.415 763.564 732.415 781.645 c 0
 732.415 821.57 716.972 853.964 686.085 878.824 c 0
 662.731 896.15 639.755 907.074 617.155 911.594 c 0
 591.541 916.114 562.161 918.374 529.015 918.374 c 0
 456.695 918.374 397.182 901.424 350.475 867.524 c 0
 300.755 833.624 268.361 794.45 253.295 750.004 c 0
 248.775 734.938 246.515 721.754 246.515 710.454 c 1
 248.775 688.984 l 1
 252.541 673.164 263.465 656.968 281.545 640.395 c 1
 316.951 617.041 362.528 600.091 418.275 589.544 c 1
 644.275 522.874 l 1
 684.201 507.055 714.335 476.921 734.675 432.475 c 0
 747.481 405.354 753.885 378.234 753.885 351.114 c 0
 753.885 331.528 750.871 313.07 744.845 295.744 c 0
 723.751 229.45 687.969 170.69 637.495 119.464 c 1
 587.021 71.251 527.131 33.584 457.825 6.46387 c 1
 377.972 -22.1621 305.275 -35.3457 239.735 -33.0859 c 1
 170.429 -33.0859 110.915 -22.916 61.1953 -2.57617 c 1
 18.2549 12.4912 -16.3984 44.8838 -42.7646 94.6045 c 1
 -59.3379 131.518 -67.625 163.91 -67.625 191.784 c 2
 -67.625 198.564 l 1
 -65.3652 226.438 -57.0781 267.494 -42.7646 321.734 c 1
 80.4053 321.734 l 1
 70.6113 293.86 65.7148 267.494 65.7148 242.634 c 0
 65.7148 218.528 69.1055 197.811 75.8848 180.484 c 1
 87.1846 131.518 128.619 101.384 200.185 90.084 c 0
 228.812 87.0713 272.881 85.5645 332.395 85.5645 c 1
 398.688 92.3438 451.045 108.541 489.465 134.154 c 0
 546.719 171.068 582.879 215.891 597.945 268.624 c 1
 603.219 281.431 605.855 294.238 605.855 307.044 c 0
 605.855 338.685 593.425 365.805 568.565 388.404 c 1
 533.911 408.744 469.125 430.214 374.205 452.814 c 0
 320.719 465.62 283.805 477.298 263.465 487.844 c 1
 188.885 516.094 l 2
 134.645 534.928 107.525 574.854 107.525 635.874 c 0
 107.525 659.228 110.915 681.074 117.695 701.414 c 0
 135.775 762.435 166.285 818.558 209.225 869.784 c 0
 252.165 919.504 303.392 958.678 362.905 987.305 c 0
 421.665 1015.18 488.711 1029.11 564.045 1029.11 c 0
 671.019 1029.11 746.352 1011.41 790.045 976.004 c 0
 839.765 935.324 864.625 883.721 864.625 821.194 c 0
 864.625 786.541 859.352 751.888 848.805 717.234 c 1
EndSplineSet
MinimumDistance: x42,-1 
EndChar
StartChar: T
Encoding: 54 84
OldEncoding: 84
Width: 782
Flags: W
HStem: -1.1748 21G<133.035 262.985> 897.175 112.995<127 412 553 885>
DStem: 424.575 897.175 554.525 897.175 133.035 -1.1748 262.985 -1.1748
Fore
133.035 -1.1748 m 1
 424.575 897.175 l 1
 91.2246 897.175 l 1
 128.515 1010.17 l 1
 921.775 1010.17 l 1
 885.615 897.175 l 1
 554.525 897.175 l 1
 262.985 -1.1748 l 1
 133.035 -1.1748 l 1
EndSplineSet
MinimumDistance: x6,-1 
EndChar
StartChar: U
Encoding: 55 85
OldEncoding: 85
Width: 937
Flags: W
HStem: -32.0596 111.869<273 311.785> 992.06 20G<223.645 353.595 871.135 1001.08>
VStem: -26.085 136.73<200 234.62>
DStem: 223.645 1012.06 353.595 1012.06 -14.7852 283.21 119.685 289.99 871.135 1012.06 1001.08 1012.06 638.355 289.99 764.915 283.21
Fore
223.645 1012.06 m 1
 353.595 1012.06 l 1
 119.685 289.99 l 1
 113.659 274.17 110.645 255.714 110.645 234.62 c 0
 110.645 203.733 118.932 174.354 135.505 146.48 c 0
 161.871 102.033 220.631 79.8096 311.785 79.8096 c 0
 398.419 79.8096 470.738 102.033 528.745 146.48 c 0
 584.491 190.927 621.028 238.764 638.355 289.99 c 1
 871.135 1012.06 l 1
 1001.08 1012.06 l 1
 764.915 283.21 l 1
 755.121 251.57 738.171 219.177 714.065 186.03 c 1
 691.465 150.624 659.071 115.97 616.885 82.0703 c 0
 576.959 48.1699 527.615 21.0498 468.855 0.709961 c 0
 407.081 -21.1367 342.295 -32.0596 274.495 -32.0596 c 0
 183.341 -32.0596 113.281 -15.1104 64.3154 18.79 c 0
 15.3486 54.1963 -12.5254 96.7598 -19.3047 146.48 c 1
 -23.8252 164.56 -26.085 183.017 -26.085 201.85 c 0
 -26.085 234.244 -22.3184 261.363 -14.7852 283.21 c 1
 223.645 1012.06 l 1
EndSplineSet
EndChar
StartChar: V
Encoding: 56 86
OldEncoding: 86
Width: 852
Flags: W
HStem: -1.1748 21G<163.37 302.36> 990.17 20G<132.86 271.85 848.15 987.14>
Fore
287.67 153.635 m 1
 848.15 1010.17 l 1
 987.14 1010.17 l 1
 302.36 -1.1748 l 1
 163.37 -1.1748 l 1
 132.86 1010.17 l 1
 271.85 1010.17 l 1
 287.67 153.635 l 1
EndSplineSet
EndChar
StartChar: W
Encoding: 57 87
OldEncoding: 87
Width: 1218
Flags: W
HStem: -1.1748 21G<32.4951 172.615 633.655 777.165> 990.17 20G<103.685 249.455 661.905 803.155 1219 1362.5>
DStem: 661.905 1010.17 670.945 822.595 172.615 195.445 172.615 -1.1748 670.945 822.595 803.155 1010.17 633.655 -1.1748 763.605 195.445
Fore
763.605 195.445 m 1
 1219 1010.17 l 1
 1362.5 1010.17 l 1
 777.165 -1.1748 l 1
 633.655 -1.1748 l 1
 670.945 822.595 l 1
 172.615 -1.1748 l 1
 32.4951 -1.1748 l 1
 103.685 1010.17 l 1
 249.455 1010.17 l 1
 172.615 195.445 l 1
 661.905 1010.17 l 1
 803.155 1010.17 l 1
 763.605 195.445 l 1
EndSplineSet
MinimumDistance: x12,-1 
EndChar
StartChar: X
Encoding: 58 88
OldEncoding: 88
Width: 872
Flags: W
HStem: -1.1748 21G<-185.055 -24.5947 523.455 682.785> 990.17 20G<169.765 324.575 840.985 998.055>
DStem: 169.765 1010.17 324.575 1010.17 338.135 517.495 456.785 623.715 338.135 517.495 386.725 411.275 -185.055 -1.1748 -24.5947 -1.1748 840.985 1010.17 998.055 1010.17 456.785 623.715 499.725 517.495
Fore
998.055 1010.17 m 1
 499.725 517.495 l 1
 682.785 -1.1748 l 1
 523.455 -1.1748 l 1
 386.725 411.275 l 1
 -24.5947 -1.1748 l 1
 -185.055 -1.1748 l 1
 338.135 517.495 l 1
 169.765 1010.17 l 1
 324.575 1010.17 l 1
 456.785 623.715 l 1
 840.985 1010.17 l 1
 998.055 1010.17 l 1
EndSplineSet
EndChar
StartChar: Y
Encoding: 59 89
OldEncoding: 89
Width: 852
Flags: W
HStem: -1.1748 21G<167.89 300.1> 990.17 20G<110.26 269.59 850.41 1009.74>
DStem: 297.84 394.325 428.92 394.325 167.89 -1.1748 300.1 -1.1748
Fore
110.26 1010.17 m 1
 269.59 1010.17 l 1
 404.06 519.755 l 1
 850.41 1010.17 l 1
 1009.74 1010.17 l 1
 428.92 394.325 l 1
 300.1 -1.1748 l 1
 167.89 -1.1748 l 1
 297.84 394.325 l 1
 110.26 1010.17 l 1
EndSplineSet
MinimumDistance: x0,4 
EndChar
StartChar: Z
Encoding: 60 90
OldEncoding: 90
Width: 799
Flags: W
HStem: -1.1748 115.26<32 596> 897.175 112.995<195 706>
DStem: 721.975 897.175 883.565 892.655 -139.085 109.565 28.1553 114.085
Fore
159.235 897.175 m 1
 196.525 1010.17 l 1
 923.115 1010.17 l 1
 883.565 892.655 l 1
 28.1553 114.085 l 1
 633.835 114.085 l 1
 596.545 -1.1748 l 1
 -174.115 -1.1748 l 1
 -139.085 109.565 l 1
 721.975 897.175 l 1
 159.235 897.175 l 1
EndSplineSet
EndChar
StartChar: bracketleft
Encoding: 61 91
OldEncoding: 91
Width: 361
Flags: W
HStem: 923.245 103.965<360 502>
DStem: 275.425 1027.21 361.305 923.245 -148.325 -280.205 3.09473 -176.245
Fore
275.425 1027.21 m 1
 535.325 1027.21 l 1
 502.555 923.245 l 1
 361.305 923.245 l 1
 3.09473 -176.245 l 1
 144.345 -176.245 l 1
 111.575 -280.205 l 1
 -148.325 -280.205 l 1
 275.425 1027.21 l 1
EndSplineSet
EndChar
StartChar: backslash
Encoding: 62 92
OldEncoding: 92
Width: 364
Flags: W
HStem: -27.7998 21G<126.06 202.9> 991.8 20G<137.36 211.94>
VStem: 126.06 76.84<-23.6834 175.965 808.035 1007.68>
DStem: 137.36 1011.8 211.94 1011.8 126.06 -27.7998 202.9 -27.7998
Fore
126.06 -27.7998 m 1
 137.36 1011.8 l 1
 211.94 1011.8 l 1
 202.9 -27.7998 l 1
 126.06 -27.7998 l 1
EndSplineSet
MinimumDistance: x2,-1 
EndChar
StartChar: bracketright
Encoding: 63 93
OldEncoding: 93
Width: 368
Flags: W
HStem: -282.335 103.96<-166 -26> 923.375 103.955<225 329>
DStem: 330.71 923.375 483.26 1027.33 -25.2402 -178.375 58.3799 -282.335
Fore
191.72 923.375 m 1
 226.75 1027.33 l 1
 483.26 1027.33 l 1
 58.3799 -282.335 l 1
 -199.26 -282.335 l 1
 -164.23 -178.375 l 1
 -25.2402 -178.375 l 1
 330.71 923.375 l 1
 191.72 923.375 l 1
EndSplineSet
EndChar
StartChar: asciicircum
Encoding: 64 94
OldEncoding: 94
Width: 622
Flags: W
DStem: 332.975 964.355 345.405 845.705 -53.4854 436.645 43.6953 436.645 345.405 845.705 435.805 964.355 379.305 436.645 476.485 436.645
Fore
-53.4854 436.645 m 1
 332.975 964.355 l 1
 435.805 964.355 l 1
 476.485 436.645 l 1
 379.305 436.645 l 1
 345.405 845.705 l 1
 43.6953 436.645 l 1
 -53.4854 436.645 l 1
EndSplineSet
MinimumDistance: x3,-1 
EndChar
StartChar: underscore
Encoding: 65 95
OldEncoding: 95
Width: 728
Flags: W
HStem: -161.965 68.9298<-66 746>
Fore
770.27 -93.0352 m 1
 746.54 -161.965 l 1
 -86.2695 -161.965 l 1
 -64.7998 -93.0352 l 1
 770.27 -93.0352 l 1
EndSplineSet
EndChar
StartChar: grave
Encoding: 66 96
OldEncoding: 96
Width: 300
Flags: W
Fore
7.79004 723.475 m 0
 25.8701 786.755 59.7695 836.099 109.49 871.505 c 0
 154.69 903.898 202.526 923.861 253 931.395 c 1
 271.08 931.395 280.12 928.381 280.12 922.355 c 2
 280.12 920.095 l 1
 268.82 908.795 l 1
 180.68 869.245 l 1
 146.026 850.411 122.296 826.305 109.49 796.925 c 1
 127.57 801.445 l 1
 155.82 805.965 l 1
 200.267 801.445 222.49 781.481 222.49 746.075 c 0
 222.49 735.528 220.23 723.099 215.71 708.785 c 0
 206.67 682.419 191.227 659.441 169.38 639.855 c 1
 144.52 621.021 117.4 611.605 88.0195 611.605 c 0
 29.2598 611.605 -0.120117 634.959 -0.120117 681.665 c 0
 -0.120117 693.719 2.5166 707.655 7.79004 723.475 c 0
EndSplineSet
EndChar
StartChar: a
Encoding: 67 97
OldEncoding: 97
Width: 730
Flags: W
HStem: -17.0352 99.4395<144 167>
VStem: -51.2246 124.3<126.475 161.505>
DStem: 494.565 371.685 695.705 612.375 448.235 225.915 536.375 124.215
Fore
695.705 612.375 m 1
 536.375 124.215 l 1
 536.375 115.175 l 2
 536.375 108.395 540.895 101.615 549.935 94.835 c 0
 562.741 86.5479 580.445 82.4043 603.045 82.4043 c 1
 580.445 -2.3457 l 1
 478.745 -17.0352 l 1
 429.025 0.291016 404.165 27.4111 404.165 64.3252 c 1
 408.685 90.3145 l 1
 349.925 53.4014 305.479 27.7881 275.345 13.4746 c 0
 227.131 -6.86523 183.815 -17.0352 145.395 -17.0352 c 0
 65.542 -19.2949 9.04199 1.04492 -24.1055 43.9844 c 0
 -42.1846 66.585 -51.2246 94.0811 -51.2246 126.475 c 0
 -51.2246 152.841 -45.9521 181.469 -35.4053 212.354 c 0
 -13.5586 268.854 15.8213 311.418 52.7354 340.045 c 0
 89.6484 368.671 131.459 389.389 178.165 402.194 c 0
 212.065 411.988 247.472 419.521 284.385 424.795 c 0
 316.025 430.821 350.679 434.965 388.345 437.225 c 2
 461.795 444.005 l 1
 504.735 455.305 529.595 473.761 536.375 499.375 c 1
 564.625 587.515 l 1
 564.625 592.035 l 2
 564.625 612.375 549.935 629.325 520.555 642.885 c 1
 479.875 657.198 436.559 663.225 390.605 660.965 c 0
 306.231 658.705 245.965 614.259 209.805 527.625 c 1
 101.325 527.625 l 1
 123.925 589.774 l 1
 145.019 623.675 167.619 650.795 191.725 671.135 c 0
 224.119 698.255 258.019 718.971 293.425 733.285 c 0
 322.052 746.091 369.135 757.015 434.675 766.055 c 1
 484.395 766.055 530.725 761.911 573.665 753.625 c 0
 621.125 742.325 655.778 724.621 677.625 700.515 c 0
 692.691 685.448 700.225 665.484 700.225 640.625 c 1
 695.705 612.375 l 1
448.235 225.915 m 1
 494.565 371.685 l 1
 468.198 361.139 435.052 353.604 395.125 349.085 c 1
 277.605 331.005 l 2
 244.459 324.979 213.571 317.068 184.945 307.274 c 0
 163.852 298.988 144.642 286.559 127.315 269.984 c 1
 106.975 254.919 92.2852 234.201 83.2451 207.835 c 1
 76.4648 194.274 73.0752 178.831 73.0752 161.505 c 0
 73.0752 143.425 79.4785 127.981 92.2852 115.175 c 1
 109.611 93.3281 134.849 82.4043 167.995 82.4043 c 0
 210.935 80.1445 255.005 89.5615 300.205 110.654 c 0
 342.392 128.734 376.291 149.451 401.905 172.805 c 0
 431.285 199.925 446.729 217.629 448.235 225.915 c 1
EndSplineSet
MinimumDistance: x0,-1 
EndChar
StartChar: b
Encoding: 68 98
OldEncoding: 98
Width: 736
Flags: W
HStem: 0.709961 21G<-119.955 -20.5146> 992.06 20G<206.615 324.135>
DStem: 206.615 1012.06 324.135 1012.06 -119.955 0.709961 204.355 641.42
Fore
206.615 1012.06 m 1
 324.135 1012.06 l 1
 204.355 641.42 l 1
 223.188 663.267 252.568 685.113 292.495 706.96 c 1
 324.135 721.273 350.879 731.82 372.725 738.6 c 1
 410.392 746.887 441.278 751.03 465.385 751.03 c 0
 549.005 751.03 609.271 720.144 646.185 658.37 c 1
 662.005 637.276 672.175 610.91 676.695 579.27 c 1
 678.955 528.42 l 1
 676.695 482.09 l 1
 672.929 452.71 664.265 415.044 650.705 369.09 c 1
 632.625 315.98 l 1
 601.738 242.153 562.941 178.874 516.235 126.14 c 1
 465.762 65.1201 410.392 22.5566 350.125 -1.5498 c 1
 304.925 -21.8896 254.075 -32.0596 197.575 -32.0596 c 0
 145.595 -32.0596 106.799 -21.8896 81.1846 -1.5498 c 1
 39.752 36.1162 15.2686 63.9902 7.73535 82.0703 c 1
 -20.5146 0.709961 l 1
 -119.955 0.709961 l 1
 206.615 1012.06 l 1
385.155 146.48 m 1
 443.161 204.486 486.855 277.184 516.235 364.57 c 0
 531.302 406.004 539.965 444.424 542.225 479.83 c 1
 542.225 497.91 l 2
 542.225 521.264 538.459 542.356 530.925 561.19 c 0
 513.599 610.91 470.281 634.64 400.975 632.38 c 0
 338.448 632.38 283.079 609.403 234.865 563.45 c 0
 215.278 543.863 192.679 514.483 167.065 475.31 c 1
 141.451 432.37 122.241 389.807 109.435 347.62 c 0
 95.875 306.187 89.0947 267.014 89.0947 230.1 c 0
 89.0947 202.98 92.1084 178.874 98.1348 157.78 c 0
 109.435 112.58 146.349 86.5898 208.875 79.8096 c 1
 279.688 79.8096 338.448 102.033 385.155 146.48 c 1
EndSplineSet
MinimumDistance: x1,-1 
EndChar
StartChar: c
Encoding: 69 99
OldEncoding: 99
Width: 651
Flags: W
HStem: 658.711 107.35<422 452.885>
Fore
474.355 267.73 m 1
 585.095 267.73 l 1
 564.755 208.217 536.129 158.874 499.215 119.701 c 0
 459.289 76.0078 410.698 42.1074 353.445 18.001 c 0
 288.659 -7.6123 231.781 -19.2891 182.815 -17.0293 c 1
 133.849 -17.0293 87.5186 -2.33887 43.8252 27.041 c 0
 7.66504 52.6543 -15.6885 89.9443 -26.2354 138.911 c 1
 -28.4951 189.761 l 1
 -28.4951 253.795 -16.8184 319.334 6.53516 386.381 c 0
 42.6953 494.107 107.481 587.145 200.895 665.491 c 0
 276.981 730.277 360.979 763.801 452.885 766.061 c 0
 492.059 766.061 529.349 760.411 564.755 749.11 c 0
 597.148 737.811 620.879 721.614 635.945 700.521 c 1
 660.052 684.701 673.235 658.711 675.495 622.551 c 1
 675.495 598.82 l 2
 675.495 567.181 670.975 534.034 661.935 499.381 c 1
 545.545 499.381 l 1
 550.065 524.994 552.325 546.465 552.325 563.791 c 1
 550.065 589.781 l 1
 544.791 610.121 532.738 625.564 513.905 636.11 c 0
 484.525 651.177 454.392 658.711 423.505 658.711 c 0
 367.759 656.451 311.259 631.215 254.005 583.001 c 0
 207.299 543.827 168.879 483.561 138.745 402.201 c 0
 112.379 328.374 99.1953 269.614 99.1953 225.921 c 1
 101.455 205.581 l 1
 112.755 129.494 161.345 92.5811 247.225 94.8408 c 0
 274.345 94.8408 305.231 103.127 339.885 119.701 c 0
 373.031 135.521 396.009 153.225 408.815 172.811 c 1
 437.441 205.204 459.289 236.845 474.355 267.73 c 1
EndSplineSet
EndChar
StartChar: d
Encoding: 70 100
OldEncoding: 100
Width: 725
Flags: W
HStem: -1.5498 21G<378.625 480.325> 630.12 120.91<365 385> 992.06 20G<692.765 809.155>
VStem: -80.1553 134.471<194 230.1>
DStem: 692.765 1012.06 809.155 1012.06 572.985 641.42 480.325 -1.5498
Fore
692.765 1012.06 m 1
 809.155 1012.06 l 1
 480.325 -1.5498 l 1
 378.625 -1.5498 l 1
 405.745 84.3301 l 1
 361.299 45.9102 319.111 16.5303 279.185 -3.80957 c 0
 243.025 -22.6436 198.201 -32.0596 144.715 -32.0596 c 0
 88.9688 -32.0596 42.6387 -21.8896 5.72461 -1.5498 c 0
 -34.2012 22.5566 -60.5684 64.3662 -73.375 123.88 c 0
 -77.8945 146.48 -80.1553 170.21 -80.1553 195.07 c 0
 -80.1553 236.504 -74.5049 275.677 -63.2051 312.59 c 1
 -60.1914 331.424 -54.918 351.01 -47.3848 371.35 c 0
 -30.0586 425.59 -4.44531 478.7 29.4551 530.68 c 1
 60.3418 581.906 96.501 623.717 137.935 656.11 c 0
 220.802 719.39 302.539 751.03 383.145 751.03 c 0
 444.165 751.03 492.001 736.34 526.655 706.96 c 0
 550.762 685.866 566.205 664.02 572.985 641.42 c 1
 692.765 1012.06 l 1
67.875 144.22 m 1
 89.7217 99.0195 133.791 77.5498 200.085 79.8096 c 0
 226.451 79.8096 256.585 87.3438 290.485 102.41 c 0
 318.358 114.464 343.972 132.92 367.325 157.78 c 0
 416.291 211.267 453.205 273.794 478.065 345.36 c 1
 490.871 388.3 498.405 431.616 500.665 475.31 c 1
 500.665 493.39 l 2
 500.665 525.783 497.651 548.384 491.625 561.19 c 0
 473.545 607.144 432.865 630.12 369.585 630.12 c 0
 300.278 630.12 241.519 607.144 193.305 561.19 c 0
 141.325 511.47 102.905 444.8 78.0449 361.18 c 1
 62.2246 315.98 54.3154 272.286 54.3154 230.1 c 0
 54.3154 199.214 58.835 170.586 67.875 144.22 c 1
EndSplineSet
EndChar
StartChar: e
Encoding: 71 101
OldEncoding: 101
Width: 728
Flags: W
HStem: -17.0449 101.7<215 247.21> 333.255 103.96<162 562> 671.125 94.92<459.65 499.2>
VStem: -21.7305 123.171<197 233.815>
Fore
654.01 333.255 m 1
 121.78 333.255 l 1
 112.74 307.642 106.714 280.521 103.7 251.895 c 1
 101.44 233.815 l 1
 101.44 208.955 104.454 189.369 110.48 175.055 c 0
 134.586 114.788 180.164 84.6553 247.21 84.6553 c 0
 280.356 84.6553 311.244 90.3047 339.87 101.605 c 0
 370.756 115.918 394.486 129.855 411.06 143.415 c 0
 426.88 156.222 443.076 173.171 459.65 194.265 c 0
 476.224 215.358 486.394 230.049 490.16 238.335 c 1
 608.81 238.335 l 1
 577.924 178.821 540.634 130.231 496.94 92.5654 c 1
 460.026 57.9121 417.086 31.5449 368.12 13.4648 c 1
 319.153 -6.875 268.68 -17.0449 216.7 -17.0449 c 0
 166.227 -17.0449 121.78 -6.875 83.3604 13.4648 c 0
 43.4336 33.8047 14.8066 63.1846 -2.51953 101.605 c 0
 -15.3262 132.491 -21.7305 164.885 -21.7305 198.785 c 0
 -21.7305 250.765 -10.8066 309.148 11.04 373.935 c 0
 52.4736 496.729 113.494 590.895 194.1 656.435 c 0
 285.254 729.509 386.954 766.045 499.2 766.045 c 1
 526.32 763.785 552.687 758.135 578.3 749.095 c 0
 606.174 739.301 626.89 726.871 640.45 711.805 c 1
 660.79 695.231 673.974 678.281 680 660.955 c 0
 692.054 630.821 699.964 597.675 703.73 561.515 c 1
 703.73 550.215 l 2
 703.73 526.108 701.094 500.871 695.82 474.505 c 0
 688.286 444.371 674.35 397.289 654.01 333.255 c 1
161.33 437.215 m 1
 562.48 437.215 l 1
 573.026 464.335 578.3 495.222 578.3 529.875 c 2
 578.3 536.655 l 1
 576.04 571.309 571.52 594.285 564.74 605.585 c 1
 562.48 622.158 552.31 636.095 534.23 647.395 c 0
 505.604 663.215 480.744 671.125 459.65 671.125 c 0
 388.084 673.385 328.193 651.539 279.98 605.585 c 1
 263.406 595.039 242.313 572.815 216.7 538.915 c 0
 197.113 511.795 178.656 477.895 161.33 437.215 c 1
EndSplineSet
MinimumDistance: x3,-1 
EndChar
StartChar: f
Encoding: 72 102
OldEncoding: 102
Width: 358
Flags: W
HStem: -1.43457 21G<-67.3701 49.0195> 621.195 106.22<70 125 289 365> 912.735 101.695<433 463>
DStem: 133.77 621.195 252.42 621.195 -67.3701 -1.43457 49.0195 -1.43457 208.35 850.585 319.09 833.635 168.8 727.415 287.45 727.415
Fore
-67.3701 -1.43457 m 1
 133.77 621.195 l 1
 36.5898 621.195 l 1
 71.6201 727.415 l 1
 168.8 727.415 l 1
 208.35 850.585 l 2
 223.416 898.045 251.29 937.219 291.97 968.105 c 0
 329.637 995.979 357.887 1009.92 376.72 1009.92 c 1
 396.307 1012.93 415.894 1014.43 435.48 1014.43 c 0
 460.34 1014.43 480.304 1012.93 495.37 1009.92 c 1
 462.6 912.735 l 1
 420.414 912.735 388.773 908.215 367.68 899.175 c 1
 343.573 884.108 327.376 862.262 319.09 833.635 c 2
 287.45 727.415 l 1
 402.71 727.415 l 1
 365.42 621.195 l 1
 252.42 621.195 l 1
 49.0195 -1.43457 l 1
 -67.3701 -1.43457 l 1
EndSplineSet
MinimumDistance: x12,-1 
EndChar
StartChar: g
Encoding: 73 103
OldEncoding: 103
Width: 726
Flags: W
HStem: 653.89 127.69<451.18 481.69> 740.11 20G<682.83 795.83>
VStem: -87.8301 127.691<-115 -104> 4.83008 129.95<220 247>
Fore
682.83 760.11 m 1
 795.83 760.11 l 1
 599.21 154.43 l 1
 583.39 103.203 559.66 42.1836 528.02 -28.6299 c 1
 503.16 -77.5967 471.52 -122.42 433.1 -163.1 c 0
 396.187 -200.014 350.61 -227.134 296.37 -244.46 c 0
 247.403 -258.02 204.84 -267.06 168.68 -271.58 c 1
 94.8535 -271.58 42.4971 -264.8 11.6104 -251.24 c 0
 -25.3037 -235.42 -50.54 -216.21 -64.0996 -193.61 c 1
 -79.9199 -173.27 -87.8301 -149.916 -87.8301 -123.55 c 2
 -87.8301 -121.29 l 1
 -87.8301 -114.51 l 2
 -87.8301 -93.416 -85.5703 -72.7002 -81.0498 -52.3604 c 1
 39.8604 -52.3604 l 1
 37.5996 -74.96 l 1
 37.5996 -84 l 1
 39.8604 -103.21 l 1
 39.8604 -110.744 43.627 -118.276 51.1602 -125.81 c 0
 59.4463 -136.356 71.124 -145.773 86.1904 -154.06 c 0
 105.023 -164.606 133.65 -169.88 172.07 -169.88 c 0
 209.736 -169.88 247.403 -163.854 285.07 -151.8 c 1
 323.49 -134.474 347.974 -118.276 358.52 -103.21 c 1
 375.094 -88.8965 391.29 -65.543 407.11 -33.1504 c 0
 434.983 18.8301 456.83 69.6797 472.65 119.4 c 1
 376.224 36.5332 284.316 -3.76953 196.93 -1.50977 c 0
 145.704 0.75 101.634 22.5967 64.7197 64.0303 c 1
 33.0801 88.8896 13.8701 127.31 7.08984 179.29 c 1
 4.83008 221.1 l 1
 4.83008 260.273 11.6104 302.836 25.1699 348.79 c 0
 46.2637 413.576 71.876 472.714 102.01 526.2 c 0
 139.677 588.727 175.084 635.81 208.23 667.45 c 0
 230.83 687.79 269.626 712.65 324.62 742.03 c 1
 381.12 768.396 433.477 781.58 481.69 781.58 c 0
 562.296 779.32 619.174 742.783 652.32 671.97 c 1
 682.83 760.11 l 1
424.06 165.73 m 0
 480.56 211.684 525.384 283.25 558.53 380.43 c 0
 573.597 424.876 581.13 468.946 581.13 512.64 c 2
 581.13 523.94 l 2
 581.13 558.594 575.104 585.714 563.05 605.3 c 1
 560.79 612.834 548.36 623.756 525.76 638.07 c 1
 503.914 648.616 479.054 653.89 451.18 653.89 c 0
 369.066 653.89 301.267 618.483 247.78 547.67 c 0
 219.906 512.264 190.526 457.27 159.64 382.69 c 1
 143.066 326.943 134.78 281.366 134.78 245.96 c 0
 134.78 222.606 137.794 203.396 143.82 188.33 c 0
 165.666 136.35 204.086 110.36 259.08 110.36 c 0
 320.854 108.1 375.847 126.557 424.06 165.73 c 0
EndSplineSet
MinimumDistance: x43,-1 
EndChar
StartChar: h
Encoding: 74 104
OldEncoding: 104
Width: 736
Flags: W
HStem: -1.1748 21G<-103.005 12.2549 356.905 475.555> 641.795 107.35<382.895 482.335> 990.17 20G<224.695 341.085>
VStem: 530.925 131.08<563.825 607.895>
DStem: 224.695 1010.17 341.085 1010.17 -103.005 -1.1748 220.175 639.535 224.695 1010.17 164.805 473.425 -103.005 -1.1748 12.2549 -1.1748 519.625 496.025 652.965 551.395 356.905 -1.1748 475.555 -1.1748
Fore
-103.005 -1.1748 m 1
 224.695 1010.17 l 1
 341.085 1010.17 l 1
 220.175 639.535 l 1
 268.389 678.709 320.369 708.842 376.115 729.935 c 1
 428.849 742.741 464.255 749.145 482.335 749.145 c 0
 510.209 749.145 546.369 740.481 590.815 723.155 c 0
 632.249 705.075 655.225 678.709 659.745 644.055 c 1
 662.005 607.895 l 1
 662.005 585.295 658.991 566.461 652.965 551.395 c 1
 475.555 -1.1748 l 1
 356.905 -1.1748 l 1
 519.625 496.025 l 2
 527.159 517.871 530.925 540.472 530.925 563.825 c 0
 530.925 593.205 520.755 613.169 500.415 623.715 c 1
 465.762 635.769 426.589 641.795 382.895 641.795 c 1
 345.981 635.015 301.159 614.299 248.425 579.645 c 1
 204.731 548.759 176.858 513.352 164.805 473.425 c 1
 12.2549 -1.1748 l 1
 -103.005 -1.1748 l 1
EndSplineSet
MinimumDistance: x8,-1 
EndChar
StartChar: i
Encoding: 75 105
OldEncoding: 105
Width: 290
Flags: W
HStem: -1.1748 21G<-88.5449 26.7148> 990.17 20G<239.155 355.545>
DStem: 148.755 727.675 265.145 727.675 -88.5449 -1.1748 26.7148 -1.1748 239.155 1010.17 355.545 1010.17 192.825 866.665 309.215 866.665
Fore
265.145 727.675 m 1
 26.7148 -1.1748 l 1
 -88.5449 -1.1748 l 1
 148.755 727.675 l 1
 265.145 727.675 l 1
355.545 1010.17 m 1
 309.215 866.665 l 1
 192.825 866.665 l 1
 239.155 1010.17 l 1
 355.545 1010.17 l 1
EndSplineSet
EndChar
StartChar: j
Encoding: 76 106
OldEncoding: 106
Width: 296
Flags: W
HStem: 725.095 20G<207.3 324.82> 1007.59 20G<296.57 415.22>
DStem: 207.3 745.095 324.82 745.095 -72.9404 -118.225 35.54 -143.085 296.57 1027.59 415.22 1027.59 250.24 884.085 368.89 884.085
Fore
250.24 884.085 m 1
 296.57 1027.59 l 1
 415.22 1027.59 l 1
 368.89 884.085 l 1
 250.24 884.085 l 1
-249.22 -286.595 m 1
 -216.45 -184.895 l 1
 -145.26 -178.115 l 2
 -124.92 -175.855 -109.477 -168.321 -98.9297 -155.515 c 0
 -85.3701 -141.201 -76.707 -128.771 -72.9404 -118.225 c 2
 207.3 745.095 l 1
 324.82 745.095 l 1
 35.54 -143.085 l 1
 26.5 -169.451 10.3037 -195.818 -13.0498 -222.185 c 1
 -40.1699 -247.799 -73.3164 -266.255 -112.49 -277.555 c 0
 -139.61 -283.581 -185.187 -286.595 -249.22 -286.595 c 1
EndSplineSet
EndChar
StartChar: k
Encoding: 77 107
OldEncoding: 107
Width: 656
Flags: W
HStem: -1.1748 21G<-118.605 -4.47461 351.475 494.985> 990.17 20G<207.965 323.225>
DStem: 207.965 1010.17 323.225 1010.17 -118.605 -1.1748 134.515 424.835 207.965 1010.17 85.9248 272.285 -118.605 -1.1748 -4.47461 -1.1748 240.735 387.545 353.735 475.685 351.475 -1.1748 494.985 -1.1748 541.315 727.675 691.605 727.675 134.515 424.835 353.735 475.685
Fore
207.965 1010.17 m 1
 323.225 1010.17 l 1
 134.515 424.835 l 1
 541.315 727.675 l 1
 691.605 727.675 l 1
 353.735 475.685 l 1
 494.985 -1.1748 l 1
 351.475 -1.1748 l 1
 240.735 387.545 l 1
 85.9248 272.285 l 1
 -4.47461 -1.1748 l 1
 -118.605 -1.1748 l 1
 207.965 1010.17 l 1
EndSplineSet
EndChar
StartChar: l
Encoding: 78 108
OldEncoding: 108
Width: 289
Flags: W
HStem: -1.1748 21G<-86.5449 28.7148> 990.17 20G<241.155 357.545>
DStem: 241.155 1010.17 357.545 1010.17 -86.5449 -1.1748 28.7148 -1.1748
Fore
-86.5449 -1.1748 m 1
 241.155 1010.17 l 1
 357.545 1010.17 l 1
 28.7148 -1.1748 l 1
 -86.5449 -1.1748 l 1
EndSplineSet
EndChar
StartChar: m
Encoding: 79 109
OldEncoding: 109
Width: 1093
Flags: W
HStem: 656.81 107.35<408.705 484.415 824.545 887.825>
DStem: 148.805 742.69 179.315 483.92 -86.2354 13.8398 29.0254 13.8398 503.625 537.03 609.845 508.78 334.125 13.8398 450.515 13.8398 923.985 534.77 1056.2 583.36 755.615 13.8398 873.135 13.8398
Fore
-86.2354 13.8398 m 1
 148.805 742.69 l 1
 265.195 742.69 l 1
 234.685 650.03 l 1
 281.392 696.736 316.045 724.61 338.645 733.65 c 0
 382.339 753.99 430.929 764.16 484.415 764.16 c 0
 537.901 764.16 575.945 754.744 598.545 735.91 c 0
 621.898 714.816 638.849 687.696 649.395 654.55 c 1
 695.725 694.1 l 1
 705.519 703.894 717.948 713.31 733.015 722.35 c 2
 773.695 744.95 l 1
 813.621 757.756 851.665 764.16 887.825 764.16 c 0
 953.365 764.16 996.305 756.25 1016.64 740.43 c 1
 1030.96 732.896 1041.13 720.467 1047.16 703.14 c 1
 1056.95 685.813 1062.97 666.604 1065.24 645.51 c 1
 1065.24 638.73 l 2
 1065.24 616.13 1062.22 597.674 1056.2 583.36 c 1
 873.135 13.8398 l 1
 755.615 13.8398 l 1
 923.985 534.77 l 2
 926.245 542.304 927.375 552.85 927.375 566.41 c 0
 927.375 626.676 893.099 656.81 824.545 656.81 c 0
 775.579 656.81 732.639 642.874 695.725 615 c 0
 657.305 585.62 628.679 550.214 609.845 508.78 c 1
 450.515 13.8398 l 1
 334.125 13.8398 l 1
 503.625 537.03 l 1
 508.145 552.85 510.405 566.786 510.405 578.84 c 0
 510.405 630.82 476.505 656.81 408.705 656.81 c 0
 362.751 656.81 317.929 640.613 274.235 608.22 c 0
 224.515 570.554 192.875 529.12 179.315 483.92 c 1
 29.0254 13.8398 l 1
 -86.2354 13.8398 l 1
EndSplineSet
MinimumDistance: x16,-1 
EndChar
StartChar: n
Encoding: 80 110
OldEncoding: 110
Width: 731
Flags: W
DStem: 168.97 742.673 173.49 400.283 -67.2002 13.8232 49.1904 13.8232 559.95 521.193 694.42 581.083 393.84 13.8232 511.36 13.8232
Fore
168.97 742.673 m 1
 285.36 742.673 l 1
 254.85 650.014 l 1
 300.05 692.953 336.21 720.073 363.33 731.373 c 1
 409.284 755.479 462.017 766.403 521.53 764.144 c 0
 571.25 764.144 608.916 757.739 634.53 744.934 c 1
 657.884 730.619 676.34 711.409 689.9 687.304 c 0
 697.434 672.237 701.2 655.287 701.2 636.453 c 0
 701.2 619.88 698.94 601.423 694.42 581.083 c 1
 511.36 13.8232 l 1
 393.84 13.8232 l 1
 559.95 521.193 l 1
 566.73 540.027 570.12 556.224 570.12 569.783 c 1
 565.6 594.644 l 1
 556.56 617.243 544.13 632.688 528.31 640.974 c 0
 507.97 651.52 484.616 656.793 458.25 656.793 c 0
 404.01 656.793 350.146 636.83 296.66 596.903 c 0
 246.187 559.237 205.13 493.697 173.49 400.283 c 1
 49.1904 13.8232 l 1
 -67.2002 13.8232 l 1
 168.97 742.673 l 1
EndSplineSet
MinimumDistance: x8,-1 
EndChar
StartChar: o
Encoding: 81 111
OldEncoding: 111
Width: 729
Flags: W
HStem: -17.0449 118.65<209 247.925> 649.655 116.39<425 466.015>
Fore
-17.625 126.465 m 0
 -22.8984 146.805 -25.5352 170.159 -25.5352 196.525 c 0
 -25.5352 243.231 -14.6113 302.369 7.23535 373.935 c 1
 41.8887 477.142 87.4648 560.009 143.965 622.535 c 1
 192.932 673.762 244.535 710.675 298.775 733.275 c 0
 352.262 755.121 408.009 766.045 466.015 766.045 c 0
 518.749 766.045 566.585 754.369 609.525 731.015 c 1
 648.698 706.908 673.935 670.749 685.235 622.535 c 0
 692.769 596.169 696.535 570.555 696.535 545.695 c 0
 696.535 496.729 685.988 439.475 664.895 373.935 c 0
 634.762 278.262 589.185 195.771 528.165 126.465 c 0
 484.472 78.252 434.375 42.0918 377.875 17.9854 c 0
 318.361 -5.36816 262.615 -17.0449 210.635 -17.0449 c 0
 155.642 -17.0449 107.805 -5.36816 67.125 17.9854 c 0
 26.4453 40.585 -1.80469 76.7451 -17.625 126.465 c 0
247.925 101.605 m 0
 285.591 101.605 322.505 110.645 358.665 128.725 c 0
 396.331 146.805 428.725 174.679 455.845 212.345 c 0
 499.539 270.352 528.919 324.215 543.985 373.935 c 0
 556.791 418.381 563.195 457.932 563.195 492.585 c 1
 560.935 538.915 l 1
 557.921 575.829 543.985 603.701 519.125 622.535 c 0
 493.512 640.615 462.625 649.655 426.465 649.655 c 0
 391.812 649.655 353.769 641.369 312.335 624.795 c 1
 271.655 604.455 237.001 575.829 208.375 538.915 c 1
 157.525 446.255 l 2
 142.459 417.629 131.911 393.521 125.885 373.935 c 0
 114.585 343.049 108.935 302.369 108.935 251.895 c 2
 108.935 212.345 l 1
 115.715 175.432 131.159 147.559 155.265 128.725 c 0
 180.879 110.645 211.765 101.605 247.925 101.605 c 0
EndSplineSet
EndChar
StartChar: p
Encoding: 82 112
OldEncoding: 112
Width: 732
Flags: W
HStem: -271.58 21G<-135.415 -17.8945> -1.50977 120.91<293 312> 740.11 20G<200.195 301.895>
VStem: 621.685 136.73<518 554.45>
DStem: 200.195 760.11 301.895 760.11 -135.415 -271.58 271.385 667.45 200.195 760.11 105.275 110.36 -135.415 -271.58 -17.8945 -271.58
Fore
-17.8945 -271.58 m 1
 -135.415 -271.58 l 1
 200.195 760.11 l 1
 301.895 760.11 l 1
 271.385 667.45 l 1
 296.999 693.063 339.562 721.69 399.075 753.33 c 1
 438.249 772.164 483.071 781.58 533.545 781.58 c 0
 587.785 781.58 632.608 771.41 668.015 751.07 c 0
 711.709 725.456 739.205 683.646 750.505 625.64 c 0
 755.778 604.546 758.415 580.816 758.415 554.45 c 0
 758.415 517.536 752.765 477.986 741.465 435.8 c 2
 727.905 382.69 l 1
 709.825 324.684 684.211 270.066 651.065 218.84 c 0
 617.165 165.354 579.499 123.543 538.065 93.4102 c 0
 455.198 30.1299 374.215 -1.50977 295.115 -1.50977 c 0
 234.095 -1.50977 186.259 13.1797 151.605 42.5596 c 0
 127.499 62.9004 112.055 85.5 105.275 110.36 c 1
 -17.8945 -271.58 l 1
606.995 605.3 m 0
 588.161 652.006 544.469 674.23 475.915 671.97 c 0
 457.835 671.97 428.455 664.437 387.775 649.37 c 1
 356.889 632.044 331.275 612.834 310.935 591.74 c 0
 257.448 534.486 220.535 471.96 200.195 404.16 c 0
 187.389 364.986 179.855 323.93 177.595 280.99 c 1
 177.595 269.69 l 2
 177.595 234.284 180.608 207.164 186.635 188.33 c 1
 197.935 164.977 214.885 148.026 237.485 137.48 c 1
 257.071 125.427 280.049 119.4 306.415 119.4 c 0
 377.981 119.4 436.741 142.377 482.695 188.33 c 0
 533.921 237.296 571.589 302.836 595.695 384.95 c 1
 613.021 434.67 621.685 479.494 621.685 519.42 c 0
 621.685 551.813 616.789 580.44 606.995 605.3 c 0
EndSplineSet
EndChar
StartChar: q
Encoding: 83 113
OldEncoding: 113
Width: 721
Flags: W
HStem: -271.58 21G<350.475 466.865> -1.50977 120.91<211.485 277.025> 671.97 109.61<465 482> 740.11 20G<700.775 800.215>
VStem: -3.21484 138.99<215 253.87>
DStem: 473.645 110.36 800.215 760.11 350.475 -271.58 466.865 -271.58 700.775 760.11 800.215 760.11 670.265 667.45 466.865 -271.58
Fore
466.865 -271.58 m 1
 350.475 -271.58 l 1
 473.645 110.36 l 1
 451.799 85.5 421.665 62.9004 383.245 42.5596 c 0
 329.759 13.1797 272.505 -1.50977 211.485 -1.50977 c 0
 133.139 -1.50977 72.4951 30.1299 29.5547 93.4102 c 0
 7.70801 126.557 -3.21484 167.613 -3.21484 216.58 c 0
 -3.21484 265.546 6.95508 319.41 27.2949 378.17 c 2
 47.6348 435.8 l 1
 79.2754 508.874 117.695 572.153 162.895 625.64 c 0
 208.849 680.634 263.089 722.443 325.615 751.07 c 0
 373.829 771.41 425.432 781.58 480.425 781.58 c 0
 535.419 781.58 574.591 772.164 597.945 753.33 c 0
 631.091 726.964 655.198 698.336 670.265 667.45 c 1
 700.775 760.11 l 1
 800.215 760.11 l 1
 466.865 -271.58 l 1
292.845 605.3 m 1
 229.565 544.28 183.988 470.076 156.115 382.69 c 0
 142.555 338.996 135.775 296.057 135.775 253.87 c 0
 135.775 227.504 138.789 205.656 144.815 188.33 c 0
 162.895 142.377 206.965 119.4 277.025 119.4 c 0
 303.392 119.4 332.771 125.427 365.165 137.48 c 0
 390.025 147.273 416.015 164.224 443.135 188.33 c 1
 486.829 232.023 522.235 286.264 549.355 351.05 c 1
 556.889 365.363 563.291 382.313 568.565 401.9 c 0
 582.125 445.594 588.905 486.273 588.905 523.94 c 0
 588.905 550.307 585.892 572.906 579.865 591.74 c 1
 577.605 612.834 565.175 631.29 542.575 647.11 c 0
 517.715 663.684 492.479 671.97 466.865 671.97 c 0
 402.079 674.23 344.071 652.006 292.845 605.3 c 1
EndSplineSet
EndChar
StartChar: r
Encoding: 84 114
OldEncoding: 114
Width: 431
Flags: W
HStem: 640.99 123.17<467 496>
DStem: 176.915 742.69 295.565 742.69 -59.2549 13.8398 258.275 629.69 176.915 742.69 181.435 393.52 -59.2549 13.8398 59.3945 13.8398
Fore
-59.2549 13.8398 m 1
 176.915 742.69 l 1
 295.565 742.69 l 1
 258.275 629.69 l 1
 289.161 664.344 326.829 696.736 371.275 726.87 c 1
 410.448 749.47 442.841 761.9 468.455 764.16 c 1
 536.255 764.16 l 1
 496.705 640.99 l 1
 446.985 640.99 408.565 635.717 381.445 625.17 c 0
 330.219 604.83 289.915 577.71 260.535 543.81 c 0
 229.648 506.144 203.281 456.046 181.435 393.52 c 1
 59.3945 13.8398 l 1
 -59.2549 13.8398 l 1
EndSplineSet
MinimumDistance: x2,-1 
EndChar
StartChar: s
Encoding: 85 115
OldEncoding: 115
Width: 655
Flags: W
VStem: -51.6504 124.301<133.284 166.054> 436.51 119.78<233.854 284.704> 514.48 123.17<578.504 622.574>
Fore
-38.0898 230.464 m 1
 74.9102 230.464 l 1
 72.6504 175.094 l 1
 72.6504 166.054 l 2
 72.6504 153.248 78.2998 140.064 89.5996 126.504 c 0
 100.146 113.697 121.616 101.644 154.01 90.3438 c 1
 171.336 86.5771 205.236 84.6943 255.71 84.6943 c 1
 304.677 93.7344 337.823 103.904 355.15 115.204 c 1
 369.464 121.23 384.906 134.414 401.48 154.754 c 1
 417.3 170.574 427.47 186.771 431.99 203.344 c 1
 436.51 233.854 l 1
 436.51 260.974 418.807 281.69 383.4 296.004 c 1
 322.38 311.824 l 2
 281.7 322.37 257.97 328.774 251.19 331.034 c 2
 189.04 349.114 l 2
 167.193 355.141 150.244 361.92 138.19 369.454 c 1
 94.4961 388.288 72.6504 421.434 72.6504 468.894 c 0
 72.6504 492.248 77.5459 518.614 87.3398 547.994 c 0
 107.68 615.04 150.62 668.15 216.16 707.324 c 0
 280.946 746.498 351.384 766.084 427.47 766.084 c 0
 567.59 766.084 637.65 718.248 637.65 622.574 c 0
 637.65 599.221 633.13 572.101 624.09 541.214 c 1
 507.7 541.214 l 1
 512.22 554.774 514.48 567.204 514.48 578.504 c 0
 514.48 593.57 509.96 608.261 500.92 622.574 c 0
 487.36 642.914 446.68 654.214 378.88 656.474 c 1
 305.807 651.954 250.813 626.718 213.9 580.764 c 0
 208.626 575.49 203.354 563.814 198.08 545.734 c 1
 193.56 517.484 l 1
 193.56 500.157 201.094 487.351 216.16 479.064 c 2
 253.45 459.854 l 1
 302.04 446.294 l 1
 368.71 424.824 l 1
 435.004 413.524 485.477 395.067 520.13 369.454 c 0
 544.236 352.128 556.29 323.878 556.29 284.704 c 0
 556.29 255.324 551.017 223.684 540.47 189.784 c 1
 524.65 152.118 499.036 117.841 463.63 86.9541 c 1
 426.716 52.3008 388.296 27.8174 348.37 13.5039 c 0
 302.416 -4.57617 256.086 -14.7461 209.38 -17.0059 c 0
 155.894 -19.2656 109.563 -15.876 70.3896 -6.83594 c 0
 -10.9697 11.2441 -51.6504 57.9502 -51.6504 133.284 c 0
 -51.6504 161.91 -47.1299 194.304 -38.0898 230.464 c 1
EndSplineSet
MinimumDistance: x20,-1 
EndChar
StartChar: t
Encoding: 86 116
OldEncoding: 116
Width: 361
Flags: W
HStem: 628.28 106.22<82 151 319 381>
DStem: 151.255 628.28 268.775 628.28 -27.2852 76.8398 104.925 120.91 250.695 931.12 365.955 931.12 185.155 734.5 303.805 734.5
Fore
365.955 931.12 m 1
 303.805 734.5 l 1
 416.805 734.5 l 1
 381.775 628.28 l 1
 268.775 628.28 l 1
 104.925 120.91 l 1
 102.665 107.35 l 1
 102.665 89.2695 118.861 80.2305 151.255 80.2305 c 1
 206.625 84.75 l 1
 173.855 -16.9502 l 1
 143.722 -23.7305 101.159 -27.1201 46.165 -27.1201 c 1
 13.7715 -22.5996 -8.45117 -8.66309 -20.5049 14.6904 c 1
 -28.0381 33.5234 -31.8047 47.46 -31.8047 56.5 c 1
 -27.2852 76.8398 l 1
 151.255 628.28 l 1
 49.5547 628.28 l 1
 83.4551 734.5 l 1
 185.155 734.5 l 1
 250.695 931.12 l 1
 365.955 931.12 l 1
EndSplineSet
EndChar
StartChar: u
Encoding: 87 117
OldEncoding: 117
Width: 725
Flags: W
HStem: -15.8096 111.869<151.95 193.76> 725.81 20G<167.77 284.16 628.81 746.33>
DStem: 167.77 745.81 284.16 745.81 -20.9404 164.99 114.66 229.4 628.81 745.81 746.33 745.81 501.12 350.31 509.03 16.96
Fore
509.03 16.96 m 1
 392.64 16.96 l 1
 418.63 96.0596 l 1
 375.69 55.3799 339.153 28.2598 309.02 14.7002 c 0
 259.3 -5.63965 206.943 -15.8096 151.95 -15.8096 c 0
 104.49 -15.8096 67.5762 -10.1602 41.21 1.13965 c 1
 -2.4834 28.2598 -24.3301 68.9404 -24.3301 123.18 c 0
 -24.3301 142.014 -23.2002 155.95 -20.9404 164.99 c 1
 167.77 745.81 l 1
 284.16 745.81 l 1
 114.66 229.4 l 1
 108.634 213.58 105.62 195.876 105.62 176.29 c 0
 105.62 150.677 115.036 129.96 133.87 114.14 c 0
 150.443 102.087 170.406 96.0596 193.76 96.0596 c 0
 227.66 96.0596 255.534 98.3203 277.38 102.84 c 1
 340.66 123.934 389.25 155.573 423.15 197.76 c 0
 454.79 236.934 480.78 287.784 501.12 350.31 c 2
 628.81 745.81 l 1
 746.33 745.81 l 1
 509.03 16.96 l 1
EndSplineSet
EndChar
StartChar: v
Encoding: 88 118
OldEncoding: 118
Width: 640
Flags: W
HStem: 723.925 20G<80.9102 209.73 610.88 743.09>
VStem: 80.9102 126.56<154.219 736>
Fore
224.42 15.0752 m 1
 96.7305 15.0752 l 1
 80.9102 743.925 l 1
 209.73 743.925 l 1
 207.47 154.065 l 1
 610.88 743.925 l 1
 743.09 743.925 l 1
 224.42 15.0752 l 1
EndSplineSet
MinimumDistance: x4,-1 
EndChar
StartChar: w
Encoding: 89 119
OldEncoding: 119
Width: 931
Flags: W
HStem: 723.925 20G<60.5947 189.415 474.175 617.685 902.445 1034.66>
DStem: 474.175 743.925 480.955 567.645 148.735 176.665 162.295 15.0752
Fore
32.3447 15.0752 m 1
 60.5947 743.925 l 1
 189.415 743.925 l 1
 148.735 176.665 l 1
 474.175 743.925 l 1
 617.685 743.925 l 1
 569.095 176.665 l 1
 902.445 743.925 l 1
 1034.66 743.925 l 1
 580.395 15.0752 l 1
 451.575 15.0752 l 1
 480.955 567.645 l 1
 162.295 15.0752 l 1
 32.3447 15.0752 l 1
EndSplineSet
MinimumDistance: x11,-1 
EndChar
StartChar: x
Encoding: 90 120
OldEncoding: 120
Width: 654
Flags: W
HStem: 723.925 20G<120.2 252.41 603.84 736.05>
DStem: 120.2 743.925 252.41 743.925 245.63 387.975 345.07 487.415 245.63 387.975 276.14 288.535 -134.05 15.0752 -1.83984 15.0752 276.14 288.535 373.32 390.235 367.67 15.0752 499.88 15.0752 603.84 743.925 736.05 743.925 345.07 487.415 373.32 390.235
Fore
276.14 288.535 m 1
 -1.83984 15.0752 l 1
 -134.05 15.0752 l 1
 245.63 387.975 l 1
 120.2 743.925 l 1
 252.41 743.925 l 1
 345.07 487.415 l 1
 603.84 743.925 l 1
 736.05 743.925 l 1
 373.32 390.235 l 1
 499.88 15.0752 l 1
 367.67 15.0752 l 1
 276.14 288.535 l 1
EndSplineSet
EndChar
StartChar: y
Encoding: 91 121
OldEncoding: 121
Width: 651
Flags: W
HStem: -270.345 113<-73.085 -16.585> 741.345 20G<154.045 277.215 665.935 790.235>
VStem: 151.785 125.43<212 754>
DStem: 151.785 21.1953 790.235 761.345 70.4248 -95.1953 165.345 -137.005 154.045 761.345 277.215 761.345 151.785 21.1953 281.735 211.035 665.935 761.345 790.235 761.345 281.735 211.035 165.345 -137.005
Fore
665.935 761.345 m 1
 790.235 761.345 l 1
 165.345 -137.005 l 1
 129.185 -191.245 82.8555 -229.665 26.3555 -252.265 c 0
 -5.28516 -264.318 -38.4316 -270.345 -73.085 -270.345 c 0
 -99.4512 -270.345 -120.168 -265.071 -135.235 -254.525 c 1
 -97.9453 -146.045 l 1
 -80.6182 -153.579 -53.498 -157.345 -16.585 -157.345 c 1
 15.8086 -152.825 44.8115 -132.108 70.4248 -95.1953 c 2
 151.785 21.1953 l 1
 154.045 761.345 l 1
 277.215 761.345 l 1
 281.735 211.035 l 1
 665.935 761.345 l 1
EndSplineSet
EndChar
StartChar: z
Encoding: 92 122
OldEncoding: 122
Width: 655
Flags: W
HStem: 15.0752 115.26<97 478> 628.665 115.26<155 499>
DStem: 511.96 628.665 665.64 642.225 -80.1602 109.995 81.4297 130.335
Fore
699.54 743.925 m 1
 665.64 642.225 l 1
 81.4297 130.335 l 1
 514.22 130.335 l 1
 478.06 15.0752 l 1
 -109.54 15.0752 l 1
 -80.1602 109.995 l 1
 511.96 628.665 l 1
 118.72 628.665 l 1
 156.01 743.925 l 1
 699.54 743.925 l 1
EndSplineSet
EndChar
StartChar: braceleft
Encoding: 93 123
OldEncoding: 123
Width: 427
Flags: W
DStem: 55.9502 128.595 166.69 152.325 -20.8896 -109.835 88.7197 -92.8848 292.12 857.445 391.56 843.885 215.28 622.405 310.2 596.415
Fore
11.8799 325.215 m 1
 42.3896 422.395 l 1
 88.3438 432.188 124.504 452.528 150.87 483.415 c 1
 173.47 512.795 194.94 559.125 215.28 622.405 c 2
 292.12 857.445 l 2
 308.693 907.165 333.93 947.469 367.83 978.355 c 0
 404.744 1010.75 434.876 1026.95 458.23 1026.95 c 2
 562.19 1031.46 l 1
 532.81 938.805 l 1
 467.27 932.025 l 2
 447.684 929.765 432.24 922.231 420.94 909.425 c 0
 410.394 895.111 400.6 873.265 391.56 843.885 c 1
 310.2 596.415 l 2
 289.86 534.642 264.624 486.805 234.49 452.905 c 1
 207.37 425.785 174.977 399.419 137.31 373.805 c 1
 155.39 357.985 169.704 334.255 180.25 302.615 c 0
 185.523 289.809 188.16 274.365 188.16 256.285 c 0
 188.16 231.425 181.004 196.771 166.69 152.325 c 2
 88.7197 -92.8848 l 1
 78.9268 -117.745 74.0303 -138.085 74.0303 -153.905 c 1
 76.29 -160.685 l 1
 78.5498 -173.491 88.7197 -181.025 106.8 -183.285 c 2
 166.69 -190.065 l 1
 139.57 -280.465 l 1
 36.7402 -278.205 l 1
 14.8936 -275.945 -4.31641 -258.995 -20.8896 -227.355 c 0
 -28.4229 -210.028 -32.1904 -192.325 -32.1904 -174.245 c 0
 -32.1904 -156.165 -28.4229 -134.695 -20.8896 -109.835 c 1
 55.9502 128.595 l 1
 72.5234 182.081 80.8096 222.385 80.8096 249.505 c 1
 78.5498 267.585 l 1
 74.0303 296.965 51.8066 316.175 11.8799 325.215 c 1
EndSplineSet
MinimumDistance: x11,-1 
EndChar
StartChar: bar
Encoding: 94 124
OldEncoding: 124
Width: 339
Flags: W
HStem: 1007.33 20G<330.695 414.315>
DStem: 330.695 1027.33 414.315 1027.33 -95.3154 -282.335 -11.6953 -282.335
Fore
414.315 1027.33 m 1
 -11.6953 -282.335 l 1
 -95.3154 -282.335 l 1
 330.695 1027.33 l 1
 414.315 1027.33 l 1
EndSplineSet
EndChar
StartChar: braceright
Encoding: 95 125
OldEncoding: 125
Width: 447
Flags: W
VStem: 193.425 101.7<499 514>
DStem: 64.6055 152.325 161.785 128.595 -14.4951 -92.8848 82.6846 -109.835 288.345 843.885 397.955 857.445 210.375 596.415 321.115 622.405
Fore
367.445 422.395 m 1
 334.675 325.215 l 1
 286.461 316.175 251.055 296.965 228.455 267.585 c 0
 205.102 239.711 182.879 193.381 161.785 128.595 c 2
 82.6846 -109.835 l 1
 70.6318 -142.981 55.1885 -171.231 36.3555 -194.585 c 0
 20.5352 -214.925 -0.93457 -235.265 -28.0547 -255.605 c 1
 -48.3945 -268.411 -66.8516 -275.945 -83.4248 -278.205 c 1
 -186.255 -280.465 l 1
 -158.005 -190.065 l 1
 -93.5947 -183.285 l 2
 -74.7617 -181.025 -59.3184 -172.738 -47.2646 -158.425 c 0
 -33.7051 -142.605 -22.7812 -120.759 -14.4951 -92.8848 c 1
 64.6055 152.325 l 2
 84.1914 213.345 112.441 262.688 149.355 300.355 c 0
 183.255 335.009 212.635 359.491 237.495 373.805 c 1
 226.195 393.015 l 1
 217.909 402.809 210.375 419.005 203.595 441.605 c 1
 196.815 455.165 193.425 475.129 193.425 501.495 c 2
 193.425 508.275 l 1
 193.425 512.795 l 2
 193.425 538.408 199.075 566.281 210.375 596.415 c 1
 288.345 843.885 l 1
 298.139 871.759 303.035 890.215 303.035 899.255 c 1
 300.775 909.425 l 2
 297.762 922.231 287.591 929.765 270.265 932.025 c 2
 210.375 938.805 l 1
 239.755 1031.46 l 1
 339.195 1026.95 l 1
 356.521 1024.68 370.459 1016.78 381.005 1003.21 c 0
 396.825 981.369 405.488 961.405 406.995 943.325 c 1
 409.255 920.725 l 1
 409.255 904.905 405.488 883.812 397.955 857.445 c 1
 321.115 622.405 l 1
 303.789 562.892 295.125 521.835 295.125 499.235 c 1
 297.385 483.415 l 1
 303.411 452.528 326.765 432.188 367.445 422.395 c 1
EndSplineSet
MinimumDistance: x32,-1 
EndChar
StartChar: asciitilde
Encoding: 96 126
OldEncoding: 126
Width: 762
Flags: W
HStem: 371.285 94.92<474.585 509.615> 521.575 88.14<214.685 242.935>
DStem: 256.495 500.105 309.605 590.505 375.145 405.185 457.635 482.025
Fore
103.945 405.185 m 1
 30.4951 405.185 l 1
 56.1084 479.012 88.501 530.991 127.675 561.125 c 1
 166.849 593.519 205.269 609.715 242.935 609.715 c 0
 271.562 609.715 293.785 603.312 309.605 590.505 c 2
 457.635 482.025 l 2
 471.195 471.479 488.521 466.205 509.615 466.205 c 0
 527.695 466.205 543.892 470.725 558.205 479.765 c 0
 576.285 491.818 593.988 522.705 611.315 572.425 c 1
 682.505 572.425 l 1
 661.411 510.651 632.031 462.062 594.365 426.655 c 0
 555.191 389.741 515.265 371.285 474.585 371.285 c 0
 442.191 371.285 409.045 382.585 375.145 405.185 c 1
 256.495 500.105 l 1
 247.455 514.419 233.519 521.575 214.685 521.575 c 0
 195.099 521.575 174.381 510.651 152.535 488.805 c 0
 131.441 467.711 115.245 439.839 103.945 405.185 c 1
EndSplineSet
MinimumDistance: x5,-1 
EndChar
StartChar: exclamdown
Encoding: 98 161
OldEncoding: 161
Width: 266
Flags: W
HStem: 728.17 20G<152.38 292.5>
DStem: -3.55957 28.3604 144.47 28.3604 -46.5 -176.17 100.4 -176.17
Fore
292.5 748.17 m 1
 265.38 619.35 l 1
 125.26 619.35 l 1
 152.38 748.17 l 1
 292.5 748.17 l 1
214.53 518.78 m 1
 144.47 28.3604 l 1
 100.4 -176.17 l 1
 -46.5 -176.17 l 1
 -3.55957 28.3604 l 1
 132.04 518.78 l 1
 214.53 518.78 l 1
EndSplineSet
MinimumDistance: x5,-1 
EndChar
StartChar: cent
Encoding: 99 162
OldEncoding: 162
Width: 632
Flags: W
VStem: -22.0498 119.78<234 285>
DStem: 92.0801 40.5195 161.01 17.9199 -40.1299 -221.64 27.6699 -244.24 393.79 631.51 462.72 617.95 141.8 128.66 207.34 111.71 573.46 994.24 640.13 972.77 444.64 738.86 512.44 716.26
Fore
462.72 617.95 m 1
 207.34 111.71 l 1
 246.89 106.06 l 1
 348.59 106.06 420.91 164.82 463.85 282.34 c 1
 580.24 269.91 l 1
 550.86 193.07 504.53 130.544 441.25 82.3301 c 0
 377.97 33.3633 306.78 8.87988 227.68 8.87988 c 0
 202.82 8.87988 180.597 11.8936 161.01 17.9199 c 1
 27.6699 -244.24 l 1
 -40.1299 -221.64 l 1
 92.0801 40.5195 l 1
 15.9932 84.9668 -22.0498 158.04 -22.0498 259.74 c 0
 -22.0498 293.64 -17.9062 331.307 -9.62012 372.74 c 0
 12.9805 479.714 55.543 566.347 118.07 632.64 c 1
 190.39 706.467 277.4 743.38 379.1 743.38 c 1
 444.64 738.86 l 1
 573.46 994.24 l 1
 640.13 972.77 l 1
 512.44 716.26 l 1
 583.254 685.374 618.66 624.73 618.66 534.33 c 0
 618.66 530.563 618.66 526.42 618.66 521.9 c 1
 500.01 503.82 l 1
 499.256 553.54 486.826 591.584 462.72 617.95 c 1
393.79 631.51 m 1
 362.15 633.77 l 2
 359.89 633.77 357.254 633.77 354.24 633.77 c 0
 229.94 633.77 148.58 544.124 110.16 364.83 c 0
 101.874 324.15 97.7305 287.99 97.7305 256.35 c 0
 97.7305 197.59 112.42 155.026 141.8 128.66 c 1
 393.79 631.51 l 1
EndSplineSet
EndChar
StartChar: sterling
Encoding: 100 163
OldEncoding: 163
Width: 539
Flags: W
HStem: -5.80957 84.75<315 333> 337.71 76.84<6 82 182 325> 683.49 74.58<332 360>
VStem: 80.2549 99.4401<454 504> 448.635 92.66<567 588>
Fore
183.085 414.55 m 1
 342.415 414.55 l 1
 325.465 337.71 l 1
 181.955 337.71 l 1
 184.215 330.93 185.345 323.773 185.345 316.24 c 0
 185.345 309.46 184.591 302.304 183.085 294.77 c 0
 168.771 229.23 125.455 165.196 53.1348 102.67 c 1
 82.5146 110.203 106.999 113.97 126.585 113.97 c 0
 155.965 113.97 186.475 109.45 218.115 100.41 c 0
 273.108 86.0967 310.775 78.9404 331.115 78.9404 c 0
 355.222 78.9404 389.121 88.3564 432.815 107.19 c 1
 444.115 25.8301 l 1
 389.121 4.73633 346.559 -5.80957 316.425 -5.80957 c 1
 274.615 -1.29004 l 1
 213.595 15.6602 l 1
 151.445 34.8701 l 1
 105.115 38.2598 l 1
 51.6279 38.2598 -1.8584 22.8164 -55.3447 -8.07031 c 1
 -72.2949 78.9404 l 1
 13.585 123.387 65.9414 188.927 84.7754 275.56 c 1
 89.2949 337.71 l 1
 -7.88477 337.71 l 1
 7.93457 414.55 l 1
 83.6445 414.55 l 1
 81.3848 436.396 80.2549 456.36 80.2549 474.44 c 0
 80.2549 503.066 82.5146 527.174 87.0352 546.76 c 0
 100.595 610.794 133.365 662.02 185.345 700.44 c 0
 235.065 738.86 292.695 758.07 358.235 758.07 c 0
 480.275 758.07 541.295 701.57 541.295 588.57 c 0
 541.295 581.036 540.919 573.504 540.165 565.97 c 1
 448.635 552.41 l 1
 448.635 557.684 448.635 562.58 448.635 567.1 c 0
 448.635 644.693 413.229 683.49 342.415 683.49 c 0
 307.009 683.49 273.485 671.06 241.845 646.2 c 0
 212.465 623.6 194.009 594.597 186.475 559.19 c 0
 181.955 539.604 179.695 515.496 179.695 486.87 c 0
 179.695 465.023 180.825 440.916 183.085 414.55 c 1
EndSplineSet
EndChar
StartChar: currency
Encoding: 101 164
OldEncoding: 164
Width: 636
Flags: W
HStem: 94.4248 99.4402<239 262>
VStem: 17.085 106.22<299 317>
DStem: 37.4248 209.685 97.3154 140.755 -69.9248 126.065 -11.165 54.875 600.165 648.125 658.925 574.675 491.685 563.375 553.835 493.315
Fore
98.4453 493.315 m 1
 24.9951 574.675 l 1
 114.265 648.125 l 1
 186.585 563.375 l 1
 239.318 592.001 293.559 606.315 349.305 606.315 c 0
 405.805 606.315 453.265 592.001 491.685 563.375 c 1
 600.165 648.125 l 1
 658.925 574.675 l 1
 553.835 493.315 l 1
 567.395 463.935 574.175 433.425 574.175 401.785 c 0
 574.175 385.211 572.291 368.639 568.525 352.065 c 0
 557.225 300.085 531.988 252.625 492.815 209.685 c 1
 562.875 126.065 l 1
 474.735 54.875 l 1
 402.415 140.755 l 1
 351.188 109.868 297.325 94.4248 240.825 94.4248 c 0
 183.571 94.4248 135.735 109.868 97.3154 140.755 c 1
 -11.165 54.875 l 1
 -69.9248 126.065 l 1
 37.4248 209.685 l 1
 23.8652 238.312 17.085 268.445 17.085 300.085 c 0
 17.085 316.658 18.9688 333.985 22.7354 352.065 c 0
 33.2812 401.785 58.5186 448.869 98.4453 493.315 c 1
127.825 352.065 m 0
 124.812 339.259 123.305 327.205 123.305 315.905 c 0
 123.305 286.525 132.345 260.911 150.425 239.065 c 0
 176.791 208.932 213.329 193.865 260.035 193.865 c 0
 307.495 193.865 350.435 208.932 388.855 239.065 c 0
 428.028 269.198 452.135 306.865 461.175 352.065 c 0
 464.188 363.365 465.695 373.911 465.695 383.705 c 0
 465.695 413.839 455.901 439.829 436.315 461.675 c 0
 409.948 492.562 373.411 508.005 326.705 508.005 c 0
 279.999 508.005 237.812 492.562 200.145 461.675 c 0
 160.972 431.541 136.865 395.005 127.825 352.065 c 0
EndSplineSet
EndChar
StartChar: yen
Encoding: 102 165
OldEncoding: 165
Width: 788
Flags: W
HStem: 3.46484 21G<207.6 328.51> 213.645 91.53<-11 244 402 651> 396.705 97.18<30 260 482 690>
DStem: 86.6904 951.535 218.9 951.535 261.84 493.885 344.33 617.055 251.67 213.645 373.71 213.645 207.6 3.46484 328.51 3.46484
Fore
207.6 3.46484 m 1
 251.67 213.645 l 1
 -28.5703 213.645 l 1
 -9.36035 305.175 l 1
 270.88 305.175 l 1
 291.22 396.705 l 1
 9.84961 396.705 l 1
 31.3203 493.885 l 1
 261.84 493.885 l 1
 86.6904 951.535 l 1
 218.9 951.535 l 1
 344.33 617.055 l 1
 375.97 519.875 l 1
 451.68 624.965 l 1
 708.19 951.535 l 1
 850.57 951.535 l 1
 479.93 493.885 l 1
 710.45 493.885 l 1
 690.11 396.705 l 1
 412.13 396.705 l 1
 392.92 305.175 l 1
 670.9 305.175 l 1
 651.69 213.645 l 1
 373.71 213.645 l 1
 328.51 3.46484 l 1
 207.6 3.46484 l 1
EndSplineSet
MinimumDistance: x23,-1 
EndChar
StartChar: brokenbar
Encoding: 103 166
OldEncoding: 166
Width: 161
Flags: W
HStem: 741.515 20G<132.15 231.59>
DStem: 1.07031 141.145 99.3799 141.145 -91.5898 -290.515 7.84961 -290.515 132.15 761.515 231.59 761.515 40.6201 329.855 138.93 329.855
Fore
231.59 761.515 m 1
 138.93 329.855 l 1
 40.6201 329.855 l 1
 132.15 761.515 l 1
 231.59 761.515 l 1
99.3799 141.145 m 1
 7.84961 -290.515 l 1
 -91.5898 -290.515 l 1
 1.07031 141.145 l 1
 99.3799 141.145 l 1
EndSplineSet
EndChar
StartChar: section
Encoding: 104 167
OldEncoding: 167
Width: 714
Flags: W
HStem: -225.575 93.79<222 256> 858.095 108.48<416 454>
VStem: 2.69043 119.78<398.185 429.825> 140.55 128.82<726 748.485> 419.66 131.08<-16 8.33496>
Fore
-42.5098 -5.22461 m 1
 89.7002 10.5947 l 1
 90.4541 -84.3252 140.927 -131.785 241.12 -131.785 c 0
 281.046 -131.785 317.96 -123.121 351.86 -105.795 c 0
 388.773 -86.9619 410.996 -60.5947 418.53 -26.6953 c 0
 419.284 -23.6816 419.66 -19.915 419.66 -15.3945 c 0
 419.66 16.2451 391.034 52.7812 333.78 94.2148 c 1
 194.79 180.095 l 2
 127.744 220.021 81.4141 253.545 55.7998 280.665 c 0
 20.3936 317.579 2.69043 356.751 2.69043 398.185 c 0
 2.69043 408.731 3.82031 419.655 6.08008 430.955 c 0
 24.9131 518.342 90.4541 575.595 202.7 602.715 c 1
 161.267 643.395 140.55 684.829 140.55 727.015 c 0
 140.55 736.055 141.304 745.472 142.81 755.265 c 0
 155.616 814.025 192.906 861.861 254.68 898.775 c 0
 314.946 934.182 360.9 955.275 392.54 962.055 c 0
 407.606 965.068 422.674 966.575 437.74 966.575 c 0
 559.78 966.575 639.256 928.155 676.17 851.315 c 0
 689.73 823.441 696.51 791.425 696.51 755.265 c 2
 696.51 736.055 l 1
 562.04 724.755 l 2
 562.04 725.509 562.04 726.639 562.04 728.145 c 0
 562.04 814.778 519.854 858.095 435.48 858.095 c 0
 400.826 858.095 366.927 850.185 333.78 834.365 c 0
 297.62 814.778 276.526 789.919 270.5 759.785 c 0
 269.746 756.019 269.37 752.251 269.37 748.485 c 0
 269.37 717.599 293.854 683.321 342.82 645.655 c 1
 473.9 566.555 l 2
 546.974 523.615 595.187 491.222 618.54 469.375 c 0
 653.946 433.969 671.65 395.549 671.65 354.115 c 0
 671.65 342.815 670.52 331.892 668.26 321.345 c 0
 651.687 242.999 585.77 184.238 470.51 145.065 c 1
 523.996 105.139 550.74 59.5615 550.74 8.33496 c 0
 550.74 -2.21191 549.61 -13.1348 547.35 -24.4346 c 0
 533.79 -88.4688 493.11 -139.318 425.31 -176.985 c 0
 366.55 -209.379 299.504 -225.575 224.17 -225.575 c 0
 46.3838 -225.575 -42.5098 -154.762 -42.5098 -13.1348 c 0
 -42.5098 -10.875 -42.5098 -8.23828 -42.5098 -5.22461 c 1
414.01 185.745 m 1
 490.85 217.385 533.79 255.429 542.83 299.875 c 0
 543.584 303.642 543.96 307.785 543.96 312.305 c 0
 543.96 359.012 490.474 413.629 383.5 476.155 c 1
 332.273 507.795 290.086 536.421 256.94 562.035 c 1
 177.84 527.381 133.394 487.455 123.6 442.255 c 0
 122.847 438.488 122.47 434.345 122.47 429.825 c 0
 122.47 383.871 171.437 332.645 269.37 276.145 c 0
 337.17 237.725 385.384 207.591 414.01 185.745 c 1
EndSplineSet
MinimumDistance: x32,-1 
EndChar
StartChar: dieresis
Encoding: 105 168
OldEncoding: 168
Width: 432
Flags: W
HStem: 806.655 127.69<11 123 283 393>
Fore
-15.0898 806.655 m 1
 12.0303 934.345 l 1
 151.02 934.345 l 1
 123.9 806.655 l 1
 -15.0898 806.655 l 1
257.24 806.655 m 1
 284.36 934.345 l 1
 421.09 934.345 l 1
 393.97 806.655 l 1
 257.24 806.655 l 1
EndSplineSet
EndChar
StartChar: copyright
Encoding: 106 169
OldEncoding: 169
Width: 799
Flags: W
HStem: 1.65527 68.9297<282 316> 174.545 63.28<323 348> 571.175 61.02<410 432> 742.935 64.41<429 461>
VStem: -20.5654 65.54<304 337> 165.885 68.93<320 354> 704.895 66.67<479 506>
Fore
459.685 807.345 m 0
 568.165 807.345 651.409 768.171 709.415 689.825 c 0
 750.849 636.339 771.565 573.059 771.565 499.985 c 0
 771.565 469.852 767.799 437.835 760.265 403.935 c 0
 736.911 293.195 678.905 198.651 586.245 120.305 c 0
 495.091 41.2051 396.028 1.65527 289.055 1.65527 c 0
 182.081 1.65527 99.5908 40.4512 41.585 118.045 c 0
 0.151367 173.039 -20.5654 237.071 -20.5654 310.145 c 0
 -20.5654 340.278 -16.7988 371.541 -9.26465 403.935 c 0
 14.8418 518.441 71.7188 614.491 161.365 692.085 c 0
 251.765 768.925 351.205 807.345 459.685 807.345 c 0
446.125 742.935 m 0
 356.479 742.935 273.611 710.165 197.525 644.625 c 0
 121.438 579.085 73.2246 498.855 52.8848 403.935 c 0
 47.6113 376.815 44.9746 350.448 44.9746 324.835 c 0
 44.9746 264.568 61.9248 211.835 95.8252 166.635 c 0
 144.791 102.602 214.099 70.585 303.745 70.585 c 0
 394.145 70.585 476.635 102.602 551.215 166.635 c 0
 627.302 230.669 675.515 309.769 695.855 403.935 c 0
 701.881 431.055 704.895 457.045 704.895 481.905 c 0
 704.895 542.171 687.568 595.658 652.915 642.365 c 0
 604.701 709.411 535.771 742.935 446.125 742.935 c 0
484.545 339.525 m 1
 543.305 320.315 l 1
 497.352 223.135 424.655 174.545 325.215 174.545 c 0
 261.935 174.545 217.111 196.015 190.745 238.955 c 0
 174.171 266.075 165.885 298.845 165.885 337.265 c 0
 165.885 357.605 168.145 379.829 172.665 403.935 c 0
 187.731 472.488 217.865 527.481 263.065 568.915 c 0
 308.265 611.102 363.635 632.195 429.175 632.195 c 0
 518.821 632.195 567.411 589.631 574.945 504.505 c 1
 510.535 489.815 l 1
 500.741 544.055 468.725 571.175 414.485 571.175 c 0
 369.285 571.175 330.865 553.849 299.225 519.195 c 0
 271.352 488.309 252.142 449.135 241.595 401.675 c 0
 237.075 379.075 234.815 358.358 234.815 339.525 c 0
 234.815 271.725 268.715 237.825 336.515 237.825 c 0
 403.562 237.825 452.905 271.725 484.545 339.525 c 1
EndSplineSet
MinimumDistance: x2,-1 
EndChar
StartChar: ordfeminine
Encoding: 107 170
OldEncoding: 170
Width: 324
Flags: W
HStem: 597.655 56.5<74 101.19> 894.845 56.5<174 191>
VStem: -15.2002 67.7998<668.845 688.055> 233.4 67.8<845 869.985>
Fore
199.5 648.505 m 1
 156.56 614.605 115.126 597.655 75.2002 597.655 c 0
 14.9336 597.655 -15.2002 621.385 -15.2002 668.845 c 0
 -15.2002 678.639 -14.0703 689.562 -11.8096 701.615 c 0
 -2.0166 746.062 25.8564 776.571 71.8096 793.145 c 1
 118.14 803.315 l 1
 185.94 813.485 l 1
 231.14 823.655 l 1
 232.646 831.941 233.4 839.475 233.4 846.255 c 0
 233.4 878.648 214.566 894.845 176.9 894.845 c 0
 132.454 894.845 103.45 875.635 89.8896 837.215 c 1
 32.2598 851.905 l 1
 57.1201 918.199 109.1 951.345 188.2 951.345 c 0
 263.534 951.345 301.2 924.225 301.2 869.985 c 0
 301.2 859.438 300.07 848.515 297.81 837.215 c 2
 267.3 693.705 l 1
 262.026 671.858 259.39 653.401 259.39 638.335 c 0
 259.39 624.775 261.65 613.852 266.17 605.565 c 1
 201.76 605.565 l 1
 198.37 629.295 l 1
 199.5 648.505 l 1
218.71 767.155 m 1
 126.05 750.205 l 1
 82.3564 740.411 58.25 724.215 53.7305 701.615 c 0
 52.9766 697.095 52.5996 692.575 52.5996 688.055 c 0
 52.5996 665.455 68.7969 654.155 101.19 654.155 c 0
 163.716 654.155 202.89 691.821 218.71 767.155 c 1
EndSplineSet
MinimumDistance: x13,-1 
EndChar
StartChar: guillemotleft
Encoding: 108 171
OldEncoding: 171
Width: 719
Flags: W
Fore
163.95 371 m 1
 288.25 16.1797 l 1
 176.38 16.1797 l 1
 4.62012 371 l 1
 326.67 725.82 l 1
 440.8 725.82 l 1
 163.95 371 l 1
463.4 371 m 1
 591.09 16.1797 l 1
 472.44 16.1797 l 1
 306.33 371 l 1
 623.86 725.82 l 1
 741.38 725.82 l 1
 463.4 371 l 1
EndSplineSet
EndChar
StartChar: logicalnot
Encoding: 109 172
OldEncoding: 172
Width: 534
Flags: W
HStem: 602.395 57.63<24 413>
DStem: 420.81 602.395 519.12 660.025 388.04 450.975 475.05 450.975
Fore
475.05 450.975 m 1
 388.04 450.975 l 1
 420.81 602.395 l 1
 12.8799 602.395 l 1
 25.3096 660.025 l 1
 519.12 660.025 l 1
 475.05 450.975 l 1
EndSplineSet
MinimumDistance: x5,-1 
EndChar
StartChar: uni00AD
Encoding: 110 173
OldEncoding: 173
Width: 272
Flags: W
HStem: 323.97 70.06<17 236>
Fore
2.63477 323.97 m 1
 18.4551 394.03 l 1
 252.365 394.03 l 1
 236.545 323.97 l 1
 2.63477 323.97 l 1
EndSplineSet
EndChar
StartChar: registered
Encoding: 111 174
OldEncoding: 174
Width: 1023
Flags: W
HStem: -23.1201 56.5<368 416> 215.31 25.99<211.541 232.965 413 427 712 714> 713.64 29.38<490 495> 879.75 55.37<554 604>
VStem: -4.35547 56.5<343 377> 918.855 56.5<535 569>
DStem: 371.935 676.35 460.075 685.39 287.185 276.33 421.655 493.29 371.935 676.35 414.875 460.52 287.185 276.33 376.455 280.85 452.165 460.52 553.865 472.95 582.115 215.31 674.775 259.38
Fore
964.055 456 m 0
 950.495 390.46 925.635 329.816 889.475 274.07 c 0
 852.562 214.557 806.985 162.576 752.745 118.13 c 0
 704.531 77.4502 645.771 42.7969 576.465 14.1699 c 0
 513.185 -10.6904 448.775 -23.1201 383.235 -23.1201 c 0
 296.602 -23.1201 220.892 -1.27344 156.105 42.4199 c 0
 92.0713 84.6064 46.8721 142.236 20.5049 215.31 c 0
 3.93164 262.017 -4.35547 309.477 -4.35547 357.69 c 0
 -4.35547 389.33 -0.964844 422.1 5.81543 456 c 0
 19.375 520.033 44.9883 581.807 82.6553 641.32 c 0
 124.841 704.6 170.419 756.204 219.385 796.13 c 0
 273.625 840.576 332.762 874.854 396.795 898.96 c 0
 457.815 923.066 521.095 935.12 586.635 935.12 c 0
 652.175 935.12 711.312 923.066 764.045 898.96 c 1
 822.805 869.58 867.251 835.304 897.385 796.13 c 0
 928.271 757.71 951.625 706.106 967.445 641.32 c 0
 972.719 614.954 975.355 587.456 975.355 558.83 c 0
 975.355 525.684 971.589 491.406 964.055 456 c 0
908.685 456 m 0
 915.465 486.134 918.855 515.89 918.855 545.27 c 0
 918.855 570.13 916.219 595.366 910.945 620.98 c 0
 901.151 668.44 880.059 713.264 847.665 755.45 c 0
 814.519 796.884 776.475 827.394 733.535 846.98 c 0
 683.815 868.826 631.081 879.75 575.335 879.75 c 0
 498.495 879.75 424.291 861.294 352.725 824.38 c 0
 279.651 784.454 217.125 732.097 165.145 667.31 c 0
 112.411 601.77 78.1348 530.58 62.3154 453.74 c 0
 55.5352 424.36 52.1445 395.733 52.1445 367.86 c 0
 52.1445 324.166 59.6787 283.486 74.7451 245.82 c 0
 101.111 181.786 141.791 130.184 196.785 91.0098 c 0
 251.778 52.5898 318.071 33.3799 395.665 33.3799 c 0
 472.505 33.3799 546.709 52.5898 618.275 91.0098 c 0
 692.102 129.43 755.381 181.034 808.115 245.82 c 0
 858.589 309.854 892.111 379.914 908.685 456 c 0
414.875 460.52 m 1
 376.455 280.85 l 1
 375.325 271.81 l 1
 375.325 251.47 394.535 241.3 432.955 241.3 c 1
 427.305 215.31 l 1
 205.825 215.31 l 1
 211.475 241.3 l 1
 257.429 241.3 282.665 252.977 287.185 276.33 c 1
 371.935 676.35 l 1
 375.325 700.08 l 1
 375.325 706.86 373.818 711.38 370.805 713.64 c 0
 362.519 716.653 345.191 718.16 318.825 718.16 c 1
 324.475 743.02 l 1
 556.125 743.02 l 2
 602.079 743.02 637.108 738.5 661.215 729.46 c 1
 694.361 712.887 714.325 694.43 721.105 674.09 c 0
 724.871 665.804 726.755 655.634 726.755 643.58 c 1
 723.365 614.2 l 1
 714.325 572.014 693.231 538.113 660.085 512.5 c 1
 622.419 488.394 587.012 475.21 553.865 472.95 c 1
 674.775 259.38 l 2
 681.555 247.326 696.621 241.3 719.975 241.3 c 1
 714.325 215.31 l 1
 582.115 215.31 l 1
 452.165 460.52 l 1
 414.875 460.52 l 1
460.075 685.39 m 1
 421.655 493.29 l 1
 466.855 493.29 500.755 496.304 523.355 502.33 c 1
 585.881 524.93 622.041 563.727 631.835 618.72 c 1
 634.095 639.06 l 1
 634.095 659.4 627.691 674.844 614.885 685.39 c 1
 599.818 701.21 584.751 709.12 569.685 709.12 c 2
 495.105 713.64 l 2
 478.531 713.64 466.855 704.224 460.075 685.39 c 1
EndSplineSet
MinimumDistance: x16,-1 
EndChar
StartChar: macron
Encoding: 112 175
OldEncoding: 175
Width: 265
Flags: W
HStem: 894.4 45.2<-1 248>
Fore
-8.27539 894.4 m 1
 0.764648 939.6 l 1
 257.275 939.6 l 1
 248.235 894.4 l 1
 -8.27539 894.4 l 1
EndSplineSet
EndChar
StartChar: degree
Encoding: 113 176
OldEncoding: 176
Width: 282
Flags: W
HStem: 718.92 50.85<102 116> 931.36 49.72<141 161>
VStem: -1.40527 51.9805<821 835> 214.425 51.98<864 879>
Fore
1.98535 850 m 0
 9.51855 886.16 28.7285 917.424 59.6152 943.79 c 0
 90.502 968.65 123.648 981.08 159.055 981.08 c 0
 196.722 981.08 225.349 968.65 244.935 943.79 c 0
 259.249 924.956 266.405 903.486 266.405 879.38 c 0
 266.405 869.586 265.275 859.794 263.015 850 c 0
 255.481 813.086 236.271 781.824 205.385 756.21 c 0
 173.745 731.35 139.845 718.92 103.685 718.92 c 0
 67.5254 718.92 39.6514 731.35 20.0654 756.21 c 0
 5.75195 775.044 -1.40527 796.514 -1.40527 820.62 c 0
 -1.40527 829.66 -0.275391 839.454 1.98535 850 c 0
52.835 850 m 0
 51.3281 843.974 50.5752 838.324 50.5752 833.05 c 0
 50.5752 817.983 55.0947 804.8 64.1348 793.5 c 0
 76.9414 777.68 93.8916 769.77 114.985 769.77 c 0
 136.831 769.77 157.549 777.68 177.135 793.5 c 0
 195.969 809.32 207.645 828.153 212.165 850 c 0
 213.671 856.026 214.425 861.676 214.425 866.95 c 0
 214.425 882.017 209.905 895.2 200.865 906.5 c 0
 188.812 923.074 171.485 931.36 148.885 931.36 c 0
 127.791 931.36 107.451 923.45 87.8652 907.63 c 0
 69.0312 891.057 57.3555 871.847 52.835 850 c 0
EndSplineSet
MinimumDistance: x4,-1 
EndChar
StartChar: plusminus
Encoding: 114 177
OldEncoding: 177
Width: 672
Flags: W
HStem: 7.14453 119.78<-87 563> 476.095 117.52<11 257 415 662>
DStem: 266.595 476.095 384.115 476.095 205.575 192.465 323.095 192.465 351.345 873.855 467.735 873.855 291.455 593.615 408.975 593.615
Fore
205.575 192.465 m 1
 266.595 476.095 l 1
 -12.5146 476.095 l 1
 12.3447 593.615 l 1
 291.455 593.615 l 1
 351.345 873.855 l 1
 467.735 873.855 l 1
 408.975 593.615 l 1
 686.955 593.615 l 1
 662.095 476.095 l 1
 384.115 476.095 l 1
 323.095 192.465 l 1
 205.575 192.465 l 1
562.655 7.14453 m 1
 -111.955 7.14453 l 1
 -85.9648 126.925 l 1
 587.515 126.925 l 1
 562.655 7.14453 l 1
EndSplineSet
MinimumDistance: x6,-1 
EndChar
StartChar: twosuperior
Encoding: 115 178
OldEncoding: 178
Width: 228
Flags: W
HStem: 623.88 44.07<74 172> 861.18 42.94<126 144>
VStem: 166.67 49.72<831.8 851.01>
Fore
-16.3896 623.88 m 1
 -7.34961 654.767 25.7969 692.434 83.0498 736.88 c 2
 129.38 771.91 l 1
 149.72 789.236 161.396 804.68 164.41 818.24 c 0
 165.916 823.514 166.67 828.033 166.67 831.8 c 0
 166.67 851.387 155.37 861.18 132.77 861.18 c 0
 107.156 861.18 88.3232 846.866 76.2695 818.24 c 1
 32.2002 823.89 l 1
 54.7998 877.376 91.7129 904.12 142.94 904.12 c 0
 191.906 904.12 216.39 886.416 216.39 851.01 c 0
 216.39 844.23 215.637 836.696 214.13 828.41 c 0
 208.104 802.796 193.414 778.69 170.06 756.09 c 0
 160.267 746.296 139.55 729.724 107.91 706.37 c 1
 63.8398 667.95 l 1
 182.49 667.95 l 1
 172.32 623.88 l 1
 -16.3896 623.88 l 1
EndSplineSet
MinimumDistance: x9,-1 
EndChar
StartChar: threesuperior
Encoding: 116 179
OldEncoding: 179
Width: 221
Flags: W
HStem: 635.4 41.81<70 90> 760.83 21G<81.8555 88.6348> 867.05 39.55<118 136>
VStem: 142.875 51.98<724 736> 156.435 53.11<843.32 856.88>
Fore
-7.41504 711.11 m 1
 41.1748 715.63 l 1
 41.9287 690.017 55.4883 677.21 81.8555 677.21 c 0
 115.755 677.21 136.095 692.653 142.875 723.54 c 0
 143.629 727.307 144.005 730.696 144.005 733.71 c 0
 144.005 753.296 129.315 763.09 99.9346 763.09 c 1
 88.6348 760.83 l 1
 81.8555 760.83 l 1
 96.5449 800.38 l 1
 130.445 800.38 150.031 812.057 155.305 835.41 c 0
 156.059 838.424 156.435 841.06 156.435 843.32 c 0
 156.435 859.14 145.135 867.05 122.535 867.05 c 0
 100.688 867.05 82.9854 855.374 69.4248 832.02 c 1
 24.2246 839.93 l 1
 48.332 884.376 83.7383 906.6 130.445 906.6 c 0
 183.179 906.6 209.545 890.026 209.545 856.88 c 0
 209.545 851.606 208.791 845.956 207.285 839.93 c 0
 201.259 813.563 182.425 795.106 150.785 784.56 c 1
 180.165 775.52 194.855 758.57 194.855 733.71 c 0
 194.855 728.437 194.102 722.41 192.595 715.63 c 0
 187.321 690.017 171.879 670.054 146.265 655.74 c 0
 125.171 642.18 101.818 635.4 76.2051 635.4 c 0
 19.7051 635.4 -8.54492 659.13 -8.54492 706.59 c 0
 -8.54492 708.097 -8.16797 709.604 -7.41504 711.11 c 1
EndSplineSet
MinimumDistance: x15,-1 
EndChar
StartChar: acute
Encoding: 117 180
OldEncoding: 180
Width: 217
Flags: W
Fore
0.259766 819.305 m 1
 96.3096 935.695 l 1
 221.74 935.695 l 1
 79.3604 819.305 l 1
 0.259766 819.305 l 1
EndSplineSet
EndChar
StartChar: mu
Encoding: 118 181
OldEncoding: 181
Width: 572
Flags: W
HStem: 24.2852 107.35<221 242>
DStem: 106.085 740.705 217.955 740.705 -99.5752 -227.705 154.675 443.515 106.085 740.705 84.6152 111.295 -99.5752 -227.705 12.2949 -227.705 530.965 740.705 640.575 740.705 467.685 441.255 491.415 41.2354
Fore
640.575 740.705 m 1
 491.415 41.2354 l 1
 391.975 41.2354 l 1
 408.925 123.725 l 1
 358.451 57.4316 296.679 24.2852 223.605 24.2852 c 0
 158.818 24.2852 112.488 53.2881 84.6152 111.295 c 1
 12.2949 -227.705 l 1
 -99.5752 -227.705 l 1
 106.085 740.705 l 1
 217.955 740.705 l 1
 154.675 443.515 l 1
 136.595 355.375 127.555 291.719 127.555 252.545 c 0
 127.555 241.245 l 0
 133.581 168.171 171.249 131.635 240.555 131.635 c 0
 312.121 131.635 367.115 167.419 405.535 238.985 c 0
 426.629 278.159 447.345 345.581 467.685 441.255 c 2
 530.965 740.705 l 1
 640.575 740.705 l 1
EndSplineSet
EndChar
StartChar: paragraph
Encoding: 119 182
OldEncoding: 182
Width: 716
Flags: W
HStem: 879.755 97.18<439 578 695 791>
DStem: 252.435 506.855 440.015 879.755 112.315 -151.935 220.795 -151.935 585.785 879.755 696.525 879.755 366.565 -151.935 477.305 -151.935
Fore
112.315 -151.935 m 1
 252.435 506.855 l 1
 175.595 506.855 117.211 528.325 77.2852 571.265 c 0
 47.9053 603.658 33.2148 642.079 33.2148 686.525 c 0
 33.2148 702.345 35.0986 719.295 38.8652 737.375 c 0
 56.1914 816.475 98.3789 877.495 165.425 920.435 c 1
 227.951 958.102 305.545 976.935 398.205 976.935 c 2
 811.785 976.935 l 1
 791.445 879.755 l 1
 696.525 879.755 l 1
 477.305 -151.935 l 1
 366.565 -151.935 l 1
 585.785 879.755 l 1
 440.015 879.755 l 1
 220.795 -151.935 l 1
 112.315 -151.935 l 1
EndSplineSet
MinimumDistance: x9,-1 
EndChar
StartChar: periodcentered
Encoding: 120 183
OldEncoding: 183
Width: 127
Flags: W
DStem: 23.5801 566.98 121.89 566.98 2.11035 463.02 99.29 463.02
Fore
2.11035 463.02 m 1
 23.5801 566.98 l 1
 121.89 566.98 l 1
 99.29 463.02 l 1
 2.11035 463.02 l 1
EndSplineSet
MinimumDistance: x2,-1 
EndChar
StartChar: cedilla
Encoding: 121 184
OldEncoding: 184
Width: 283
Flags: W
HStem: -126.805 62.1497<55 92>
VStem: 162.68 101.7<-27 -15>
Fore
72.2803 7.66504 m 1
 124.26 95.8047 l 1
 206.75 95.8047 l 1
 173.98 41.5654 l 1
 234.246 36.292 264.38 16.7051 264.38 -17.1953 c 0
 264.38 -21.7148 263.626 -26.6113 262.12 -31.8848 c 0
 255.34 -64.2783 229.727 -89.1387 185.28 -106.465 c 0
 150.626 -120.025 111.454 -126.805 67.7598 -126.805 c 0
 34.6133 -126.805 5.2334 -124.545 -20.3799 -120.025 c 1
 -1.16992 -62.3945 l 1
 55.3301 -64.6553 l 2
 58.3438 -64.6553 61.7334 -64.6553 65.5 -64.6553 c 0
 124.26 -64.6553 156.653 -51.4717 162.68 -25.1055 c 0
 162.68 -20.585 l 0
 162.68 -1.75195 132.546 7.66504 72.2803 7.66504 c 1
EndSplineSet
MinimumDistance: x4,-1 
EndChar
StartChar: onesuperior
Encoding: 122 185
OldEncoding: 185
Width: 195
Flags: W
DStem: 119.3 805.605 190.49 880.185 75.2305 598.815 130.6 598.815
Fore
75.2305 598.815 m 1
 119.3 805.605 l 1
 89.9199 786.019 58.6562 772.081 25.5098 763.795 c 1
 34.5498 808.995 l 1
 75.2305 822.555 113.273 846.285 148.68 880.185 c 1
 190.49 880.185 l 1
 130.6 598.815 l 1
 75.2305 598.815 l 1
EndSplineSet
MinimumDistance: x5,-1 
EndChar
StartChar: ordmasculine
Encoding: 123 186
OldEncoding: 186
Width: 285
Flags: W
HStem: 616.32 54.24<98 114> 868.31 55.37<152 167>
VStem: -2.73047 58.7608<720 733> 210.84 59.89<807 825>
Fore
165.64 923.68 m 0
 207.826 923.68 237.584 908.613 254.91 878.48 c 0
 265.456 860.4 270.73 839.307 270.73 815.2 c 0
 270.73 800.887 268.847 785.82 265.08 770 c 0
 256.04 726.307 237.206 690.146 208.58 661.52 c 0
 179.2 631.387 143.04 616.32 100.1 616.32 c 0
 59.4199 616.32 29.6631 631.387 10.8301 661.52 c 1
 1.79004 678.847 -2.73047 699.187 -2.73047 722.54 c 0
 -2.73047 736.1 -1.22363 751.166 1.79004 767.74 c 0
 11.583 812.187 30.04 848.347 57.1602 876.22 c 0
 87.293 907.86 123.454 923.68 165.64 923.68 c 0
154.34 868.31 m 0
 106.126 868.31 74.8633 835.54 60.5498 770 c 0
 57.5371 754.934 56.0303 741.75 56.0303 730.45 c 0
 56.0303 690.523 74.4863 670.56 111.4 670.56 c 0
 160.366 670.56 192.006 704.084 206.32 771.13 c 0
 209.334 785.443 210.84 798.25 210.84 809.55 c 0
 210.84 848.724 192.006 868.31 154.34 868.31 c 0
EndSplineSet
MinimumDistance: x2,-1 
EndChar
StartChar: guillemotright
Encoding: 124 187
OldEncoding: 187
Width: 728
Flags: W
Fore
516.05 372 m 1
 241.46 17.1797 l 1
 353.33 17.1797 l 1
 675.38 372 l 1
 503.62 726.82 l 1
 390.62 726.82 l 1
 516.05 372 l 1
216.6 372 m 1
 -61.3799 17.1797 l 1
 56.1396 17.1797 l 1
 373.67 372 l 1
 207.56 726.82 l 1
 88.9102 726.82 l 1
 216.6 372 l 1
EndSplineSet
EndChar
StartChar: onequarter
Encoding: 125 188
OldEncoding: 188
Width: 1152
Flags: W
HStem: -31.7803 21G<3.09473 110.445> -17.0898 21G<813.305 913.875> 75.5703 64.4097<706 820 952 1005>
DStem: 226.835 766 352.265 883.52 156.775 437.17 257.345 437.17 879.975 294.79 1008.79 429.26 847.205 139.98 947.775 139.98 926.305 429.26 879.975 294.79 586.175 150.15 690.135 139.98 954.555 885.78 1061.91 885.78 3.09473 -31.7803 110.445 -31.7803
Fore
3.09473 -31.7803 m 1
 954.555 885.78 l 1
 1061.91 885.78 l 1
 110.445 -31.7803 l 1
 3.09473 -31.7803 l 1
156.775 437.17 m 1
 226.835 766 l 1
 175.608 735.113 119.861 712.89 59.5947 699.33 c 1
 75.415 773.91 l 1
 148.488 793.496 216.289 830.033 278.815 883.52 c 1
 352.265 883.52 l 1
 257.345 437.17 l 1
 156.775 437.17 l 1
813.305 -17.0898 m 1
 833.645 75.5703 l 1
 570.355 75.5703 l 1
 586.175 150.15 l 1
 926.305 429.26 l 1
 1008.79 429.26 l 1
 947.775 139.98 l 1
 1018.96 139.98 l 1
 1005.41 75.5703 l 1
 934.215 75.5703 l 1
 913.875 -17.0898 l 1
 813.305 -17.0898 l 1
847.205 139.98 m 1
 879.975 294.79 l 1
 690.135 139.98 l 1
 847.205 139.98 l 1
EndSplineSet
MinimumDistance: x2,-1 
EndChar
StartChar: onehalf
Encoding: 126 189
OldEncoding: 189
Width: 1151
Flags: W
HStem: -31.6504 21G<4.09473 111.445> 340.12 70.06<873 892>
VStem: 940.865 93.795<292.66 319.78>
DStem: 227.835 766.13 353.265 883.65 157.775 437.3 258.345 437.3 955.555 887.04 1062.91 887.04 4.09473 -31.6504 111.445 -31.6504
Fore
4.09473 -31.6504 m 1
 955.555 887.04 l 1
 1062.91 887.04 l 1
 111.445 -31.6504 l 1
 4.09473 -31.6504 l 1
157.775 437.3 m 1
 227.835 766.13 l 1
 176.608 735.244 121.238 713.02 61.7246 699.46 c 1
 76.415 774.04 l 1
 149.488 793.626 217.289 830.164 279.815 883.65 c 1
 353.265 883.65 l 1
 258.345 437.3 l 1
 157.775 437.3 l 1
617.685 -35.04 m 1
 627.479 12.4199 686.991 72.6865 796.225 145.76 c 0
 885.871 205.273 933.331 248.214 938.605 274.58 c 0
 940.111 281.36 940.865 287.387 940.865 292.66 c 0
 940.865 324.3 919.019 340.12 875.325 340.12 c 0
 834.645 340.12 802.629 318.273 779.275 274.58 c 1
 695.655 281.36 l 1
 734.829 367.24 800.369 410.18 892.275 410.18 c 0
 987.195 410.18 1034.66 380.046 1034.66 319.78 c 0
 1034.66 309.986 1033.15 299.816 1030.13 289.27 c 0
 1021.85 250.097 997.365 211.677 956.685 174.01 c 1
 842.555 93.7803 l 1
 763.455 38.4102 l 1
 979.285 38.4102 l 1
 963.465 -35.04 l 1
 617.685 -35.04 l 1
EndSplineSet
MinimumDistance: x2,-1 
EndChar
StartChar: threequarters
Encoding: 127 190
OldEncoding: 190
Width: 1152
Flags: W
HStem: -32.1055 21G<2.35547 110.835> -17.415 21G<813.695 914.265> 75.2451 64.4099<699 829 951 1004> 424.415 72.32<155 179> 822.175 68.93<235 255>
VStem: 283.725 97.18<577 594> 304.065 100.57<781.495 802.965>
DStem: 879.235 294.465 1009.18 428.935 846.465 139.655 947.035 139.655 925.565 428.935 879.235 294.465 586.565 149.825 689.395 139.655 953.815 885.455 1062.29 885.455 2.35547 -32.1055 110.835 -32.1055
Fore
-3.29492 555.495 m 1
 89.3652 563.405 l 1
 92.3789 518.959 119.121 496.735 169.595 496.735 c 0
 234.381 496.735 272.425 523.479 283.725 576.965 c 0
 284.479 582.238 284.855 587.512 284.855 592.785 c 0
 284.855 626.685 256.605 643.635 200.105 643.635 c 1
 177.505 640.245 l 1
 165.075 640.245 l 1
 192.195 706.915 l 1
 256.981 706.915 293.519 727.631 301.805 769.065 c 0
 303.312 773.585 304.065 777.729 304.065 781.495 c 0
 304.065 808.615 282.219 822.175 238.525 822.175 c 0
 196.339 822.175 162.815 802.589 137.955 763.415 c 1
 53.2051 776.975 l 1
 96.1445 853.062 162.815 891.105 253.215 891.105 c 0
 354.161 891.105 404.635 861.725 404.635 802.965 c 0
 404.635 794.679 403.505 786.015 401.245 776.975 c 0
 391.451 731.021 356.421 699.005 296.155 680.925 c 1
 352.655 665.858 380.905 635.725 380.905 590.525 c 0
 380.905 582.238 379.775 573.198 377.515 563.405 c 0
 368.475 518.959 340.225 484.305 292.765 459.445 c 0
 252.085 436.092 208.015 424.415 160.555 424.415 c 0
 51.3213 424.415 -3.29492 466.602 -3.29492 550.975 c 0
 -3.29492 555.495 l 1
2.35547 -32.1055 m 1
 953.815 885.455 l 1
 1062.29 885.455 l 1
 110.835 -32.1055 l 1
 2.35547 -32.1055 l 1
813.695 -17.415 m 1
 832.905 75.2451 l 1
 570.745 75.2451 l 1
 586.565 149.825 l 1
 925.565 428.935 l 1
 1009.18 428.935 l 1
 947.035 139.655 l 1
 1018.22 139.655 l 1
 1004.67 75.2451 l 1
 933.475 75.2451 l 1
 914.265 -17.415 l 1
 813.695 -17.415 l 1
846.465 139.655 m 1
 879.235 294.465 l 1
 689.395 139.655 l 1
 846.465 139.655 l 1
EndSplineSet
MinimumDistance: x25,-1 
EndChar
StartChar: questiondown
Encoding: 128 191
OldEncoding: 191
Width: 589
Flags: W
HStem: -244.885 93.79<178 199>
VStem: -56.085 115.26<-51 -21.1445>
DStem: 317.945 691.885 439.985 691.885 289.695 563.065 412.865 563.065
Fore
439.985 691.885 m 1
 412.865 563.065 l 1
 289.695 563.065 l 1
 317.945 691.885 l 1
 439.985 691.885 l 1
384.615 464.755 m 1
 377.835 433.115 l 2
 364.275 370.589 342.429 319.361 312.295 279.435 c 0
 288.941 249.302 246.379 210.881 184.605 164.175 c 0
 113.039 110.688 72.3584 60.9688 62.5654 15.0146 c 0
 60.3047 2.20801 59.1748 -9.84473 59.1748 -21.1445 c 0
 59.1748 -52.0312 68.9688 -79.1514 88.5547 -102.505 c 0
 115.675 -134.898 151.835 -151.095 197.035 -151.095 c 0
 294.215 -151.095 365.781 -89.3213 411.735 34.2246 c 1
 519.085 20.665 l 1
 458.818 -156.369 345.441 -244.885 178.955 -244.885 c 0
 102.115 -244.885 41.8486 -223.415 -1.84473 -180.475 c 0
 -38.0049 -145.821 -56.085 -102.505 -56.085 -50.5254 c 0
 -56.085 -32.4453 -53.8252 -13.2354 -49.3047 7.10547 c 0
 -33.4854 80.9316 27.1582 159.278 132.625 242.145 c 0
 183.852 282.071 217.751 313.711 234.325 337.065 c 0
 253.159 364.938 268.602 407.501 280.655 464.755 c 1
 384.615 464.755 l 1
EndSplineSet
MinimumDistance: x0,-1 
EndChar
StartChar: caron
Encoding: 129 711
OldEncoding: 711
Width: 1307
Flags: W
DStem: 308.77 1278.93 364.14 1355.77 613.87 1046.15 613.87 1163.67 864.73 1353.51 920.1 1278.93 613.87 1163.67 613.87 1046.15
Fore
613.87 1046.15 m 1
 308.77 1278.93 l 1
 283.91 1304.92 l 1
 280.144 1312.46 278.26 1319.24 278.26 1325.26 c 0
 278.26 1338.82 283.156 1350.49 292.95 1360.29 c 0
 301.99 1369.33 312.536 1373.85 324.59 1373.85 c 0
 334.384 1373.85 347.566 1367.83 364.14 1355.77 c 2
 613.87 1163.67 l 1
 864.73 1353.51 l 1
 880.55 1367.07 893.356 1373.85 903.15 1373.85 c 0
 917.464 1373.85 929.14 1369.33 938.18 1360.29 c 0
 947.22 1351.25 951.74 1339.58 951.74 1325.26 c 0
 951.74 1311.7 941.193 1296.25 920.1 1278.93 c 1
 613.87 1046.15 l 1
EndSplineSet
MinimumDistance: x12,-1 
EndChar
StartChar: ring
Encoding: 130 730
OldEncoding: 730
Width: 1307
Flags: W
HStem: 1041.86 66.67<601 619> 1377.47 66.67<601 619>
VStem: 410.535 67.8<1232 1250> 750.665 67.8<1232 1250>
Fore
818.465 1243 m 0
 818.465 1189.52 798.125 1142.43 757.445 1101.75 c 0
 719.025 1061.83 671.188 1041.86 613.935 1041.86 c 0
 556.682 1041.86 508.091 1061.83 468.165 1101.75 c 0
 429.745 1141.67 410.535 1188.76 410.535 1243 c 0
 410.535 1298.74 429.745 1346.59 468.165 1386.51 c 0
 506.585 1424.93 555.175 1444.14 613.935 1444.14 c 0
 671.941 1444.14 719.778 1424.93 757.445 1386.51 c 0
 798.125 1345.83 818.465 1298 818.465 1243 c 0
750.665 1243 m 0
 750.665 1279.92 737.481 1311.56 711.115 1337.92 c 0
 682.488 1364.28 650.095 1377.47 613.935 1377.47 c 0
 577.021 1377.47 544.629 1364.28 516.755 1337.92 c 1
 491.142 1310.8 478.335 1279.16 478.335 1243 c 0
 478.335 1206.84 491.142 1175.96 516.755 1150.34 c 0
 542.369 1122.46 574.762 1108.53 613.935 1108.53 c 0
 651.602 1108.53 683.995 1122.46 711.115 1150.34 c 1
 737.481 1175.2 750.665 1206.08 750.665 1243 c 0
EndSplineSet
MinimumDistance: x0,-1 
EndChar
StartChar: uni0E01
Encoding: 131 3585
OldEncoding: 3585
Width: 794
Flags: W
HStem: -1.08496 21G<-44.9805 52.2002 447.7 544.88> 716.465 83.62<462 489>
VStem: 633.02 103.96<593.295 628.325>
DStem: 82.71 389.895 182.15 394.415 -44.9805 -1.08496 52.2002 -1.08496 626.24 544.705 723.42 544.705 447.7 -1.08496 544.88 -1.08496
Fore
74.7998 617.025 m 1
 109.454 650.171 162.94 688.592 235.26 732.285 c 0
 310.594 777.485 395.344 800.085 489.51 800.085 c 0
 546.01 800.085 596.106 790.669 639.8 771.835 c 0
 682.74 754.509 712.12 725.881 727.94 685.955 c 0
 733.966 671.642 736.98 652.432 736.98 628.325 c 0
 736.98 603.465 732.46 575.592 723.42 544.705 c 1
 544.88 -1.08496 l 1
 447.7 -1.08496 l 1
 626.24 544.705 l 1
 630.76 562.031 633.02 578.229 633.02 593.295 c 0
 633.02 609.869 630.76 623.805 626.24 635.105 c 0
 614.187 662.225 594.224 682.188 566.35 694.995 c 0
 538.477 709.309 504.576 716.465 464.65 716.465 c 0
 381.784 716.465 302.307 690.852 226.22 639.625 c 1
 233.754 638.119 254.47 629.831 288.37 614.765 c 1
 313.983 599.698 336.96 579.735 357.3 554.875 c 1
 334.7 548.849 304.566 534.911 266.9 513.065 c 0
 228.48 489.711 200.23 450.161 182.15 394.415 c 2
 52.2002 -1.08496 l 1
 -44.9805 -1.08496 l 1
 82.71 389.895 l 1
 99.2842 438.108 119.246 473.515 142.6 496.115 c 0
 168.214 520.222 196.086 537.925 226.22 549.225 c 1
 219.44 557.512 203.244 569.941 177.63 586.515 c 0
 149.756 604.595 115.48 614.765 74.7998 617.025 c 1
EndSplineSet
MinimumDistance: x5,-1 
EndChar
StartChar: uni0E02
Encoding: 132 3586
OldEncoding: 3586
Width: 797
Flags: W
HStem: -1.08496 83.6202<86 185 283 409> 462.215 73.45<143.11 187.18> 725.505 74.58<346.541 364> 765.395 20G<705.85 803.03>
VStem: 54.9697 81.3603<557.135 586.515> 441.43 92.66<634 656>
DStem: 275.32 359.385 367.98 345.825 184.92 82.5352 282.1 82.5352 705.85 785.395 803.03 785.395 500.19 149.205 597.37 149.205
Fore
353.29 800.085 m 0
 400.75 800.085 440.3 790.669 471.94 771.835 c 1
 502.073 751.495 520.53 725.881 527.31 694.995 c 0
 531.83 681.435 534.09 667.875 534.09 654.315 c 0
 534.09 633.975 531.076 615.142 525.05 597.815 c 0
 515.256 564.669 505.086 541.691 494.54 528.885 c 0
 483.994 514.571 467.796 496.869 445.95 475.775 c 1
 399.62 422.665 l 1
 390.58 409.105 380.034 383.491 367.98 345.825 c 2
 282.1 82.5352 l 1
 407.53 82.5352 l 2
 437.664 82.5352 458.38 87.0547 469.68 96.0947 c 0
 478.72 101.368 488.89 119.071 500.19 149.205 c 1
 705.85 785.395 l 1
 803.03 785.395 l 1
 597.37 149.205 l 1
 574.77 83.665 549.91 42.9854 522.79 27.165 c 1
 494.916 8.33203 447.08 -1.08496 379.28 -1.08496 c 2
 59.4902 -1.08496 l 1
 87.7402 82.5352 l 1
 184.92 82.5352 l 1
 275.32 359.385 l 2
 285.866 391.778 295.66 414.379 304.7 427.185 c 0
 318.26 445.265 332.95 462.215 348.77 478.035 c 1
 369.11 495.361 385.307 512.312 397.36 528.885 c 0
 407.906 542.445 419.584 563.161 432.39 591.035 c 1
 438.416 608.361 441.43 624.559 441.43 639.625 c 0
 441.43 660.719 436.91 676.915 427.87 688.215 c 0
 410.544 713.075 383.424 725.505 346.51 725.505 c 1
 310.35 720.985 l 1
 322.403 718.725 335.21 707.801 348.77 688.215 c 0
 357.057 678.421 361.2 666.369 361.2 652.055 c 0
 361.2 630.961 357.057 610.621 348.77 591.035 c 1
 335.964 550.355 310.727 518.715 273.06 496.115 c 0
 236.146 473.515 192.83 462.215 143.11 462.215 c 1
 84.3496 468.995 54.9697 500.635 54.9697 557.135 c 0
 54.9697 580.488 59.8662 606.479 69.6602 635.105 c 1
 96.0264 686.331 136.706 726.635 191.7 756.015 c 0
 249.706 785.395 303.57 800.085 353.29 800.085 c 0
233.51 679.175 m 0
 210.91 679.175 191.7 672.395 175.88 658.835 c 0
 157.046 642.262 144.616 625.312 138.59 607.985 c 1
 136.33 586.515 l 1
 136.33 577.475 138.59 568.435 143.11 559.395 c 0
 149.137 543.575 163.826 535.665 187.18 535.665 c 0
 212.04 535.665 232.756 543.575 249.33 559.395 c 0
 266.656 573.709 277.58 589.905 282.1 607.985 c 1
 286.62 635.105 l 1
 282.1 658.835 l 1
 275.32 672.395 259.124 679.175 233.51 679.175 c 0
EndSplineSet
EndChar
StartChar: uni0E03
Encoding: 133 3587
OldEncoding: 3587
Width: 851
Flags: W
HStem: -1.08496 83.6202<140 238 344 469> 350.345 72.32<105 132.33> 765.395 20G<759.48 856.66>
VStem: -6.66016 85.8799<466 473> 231.77 79.1<522.105 544.705>
DStem: 375.28 506.285 470.2 500.635 238.55 82.5352 335.73 82.5352 759.48 785.395 856.66 785.395 553.82 149.205 651 149.205
Fore
592.24 652.055 m 1
 584.706 633.222 577.174 620.039 569.64 612.505 c 2
 534.61 581.995 l 1
 521.804 574.461 509.374 563.539 497.32 549.225 c 0
 486.02 537.925 476.98 521.729 470.2 500.635 c 2
 335.73 82.5352 l 1
 461.16 82.5352 l 2
 491.294 82.5352 512.01 87.0547 523.31 96.0947 c 0
 532.35 101.368 542.52 119.071 553.82 149.205 c 1
 759.48 785.395 l 1
 856.66 785.395 l 1
 651 149.205 l 1
 628.4 83.665 603.54 42.9854 576.42 27.165 c 1
 550.054 8.33203 502.216 -1.08496 432.91 -1.08496 c 2
 114.25 -1.08496 l 1
 141.37 82.5352 l 1
 238.55 82.5352 l 1
 375.28 506.285 l 2
 385.073 535.665 395.244 557.135 405.79 570.695 c 0
 415.584 582.749 426.884 594.425 439.69 605.725 c 1
 488.28 632.845 l 2
 500.334 639.625 508.244 648.289 512.01 658.835 c 1
 512.01 670.135 l 2
 512.01 678.421 508.244 689.345 500.71 702.905 c 1
 487.15 717.972 476.227 726.259 467.94 727.765 c 1
 349.29 663.355 l 1
 260.02 727.765 l 1
 226.12 720.985 195.986 704.035 169.62 676.915 c 0
 144.76 652.809 128.563 629.831 121.03 607.985 c 1
 124.044 610.999 133.084 616.271 148.15 623.805 c 0
 157.943 629.831 175.646 632.845 201.26 632.845 c 0
 241.94 630.585 272.073 618.908 291.66 597.815 c 0
 304.466 582.749 310.87 565.045 310.87 544.705 c 0
 310.87 527.379 307.48 509.675 300.7 491.595 c 0
 284.88 447.148 258.137 412.495 220.47 387.635 c 0
 181.296 362.775 143.254 350.345 106.34 350.345 c 0
 62.6465 350.345 29.5 368.049 6.90039 403.455 c 1
 -2.13965 424.549 -6.66016 446.395 -6.66016 468.995 c 0
 -6.66016 492.349 -2.13965 517.585 6.90039 544.705 c 0
 21.2129 584.631 37.4102 617.778 55.4902 644.145 c 1
 80.3496 688.592 119.146 726.635 171.88 758.275 c 0
 221.6 786.148 261.526 800.085 291.66 800.085 c 1
 375.28 736.805 l 1
 483.76 800.085 l 1
 521.427 786.525 550.807 767.691 571.9 743.585 c 0
 589.227 723.999 597.89 704.035 597.89 683.695 c 1
 592.24 652.055 l 1
178.66 566.175 m 0
 153.8 566.175 133.836 559.019 118.77 544.705 c 1
 99.9365 531.145 88.2598 514.195 83.7402 493.855 c 2
 79.2197 473.515 l 1
 79.2197 463.722 81.4805 454.305 86 445.265 c 0
 92.7803 430.198 108.224 422.665 132.33 422.665 c 0
 154.93 422.665 174.14 429.445 189.96 443.005 c 1
 210.3 464.852 222.73 481.802 227.25 493.855 c 1
 231.77 522.105 l 1
 231.77 530.392 229.51 537.925 224.99 544.705 c 0
 215.95 559.019 200.506 566.175 178.66 566.175 c 0
EndSplineSet
EndChar
StartChar: uni0E04
Encoding: 134 3588
OldEncoding: 3588
Width: 799
Flags: W
HStem: -1.47461 21G<17.7246 112.645 448.255 547.695> 327.355 68.93<306 330.735> 727.375 79.1<444 478.765>
VStem: 631.315 103.96<588.385 621.155>
DStem: 64.0547 139.775 229.035 354.475 17.7246 -1.47461 112.645 -1.47461 620.015 523.975 721.715 533.015 448.255 -1.47461 547.695 -1.47461
Fore
140.895 519.455 m 0
 134.869 502.129 131.855 482.165 131.855 459.565 c 1
 134.115 424.535 l 1
 138.635 366.905 l 1
 138.635 340.915 l 1
 161.235 415.495 l 1
 179.315 469.735 209.448 516.818 251.635 556.745 c 1
 293.821 593.658 343.165 612.115 399.665 612.115 c 0
 443.358 612.115 473.491 598.179 490.065 570.305 c 1
 497.599 552.979 501.365 536.028 501.365 519.455 c 0
 501.365 499.869 498.352 482.919 492.325 468.605 c 1
 480.271 427.925 458.049 394.778 425.655 369.165 c 0
 391.001 341.291 351.451 327.355 307.005 327.355 c 0
 266.325 327.355 240.335 336.395 229.035 354.475 c 1
 112.645 -1.47461 l 1
 17.7246 -1.47461 l 1
 64.0547 139.775 l 1
 73.8486 166.895 78.7451 191.379 78.7451 213.225 c 1
 76.4854 232.435 l 2
 74.9785 245.995 67.0684 278.389 52.7549 329.615 c 0
 41.4551 369.541 34.6748 402.688 32.415 429.055 c 1
 32.415 440.355 l 2
 32.415 460.695 37.6885 488.568 48.2354 523.975 c 0
 69.3291 586.501 101.722 637.352 145.415 676.525 c 1
 192.121 720.972 244.479 753.365 302.485 773.705 c 0
 361.245 795.551 420.005 806.475 478.765 806.475 c 0
 568.411 806.475 638.472 782.369 688.945 734.155 c 0
 719.831 704.775 735.275 667.108 735.275 621.155 c 0
 735.275 593.281 730.755 563.901 721.715 533.015 c 1
 547.695 -1.47461 l 1
 448.255 -1.47461 l 1
 620.015 523.975 l 1
 627.549 548.835 631.315 570.305 631.315 588.385 c 0
 631.315 622.285 620.392 650.911 598.545 674.265 c 0
 564.645 709.671 513.795 727.375 445.995 727.375 c 0
 381.961 727.375 320.188 709.671 260.675 674.265 c 0
 201.161 638.105 161.235 586.501 140.895 519.455 c 0
377.065 539.795 m 0
 352.959 539.795 332.995 533.015 317.175 519.455 c 0
 300.602 506.648 288.925 489.698 282.145 468.605 c 1
 277.625 444.875 l 1
 277.625 435.081 279.885 426.795 284.405 420.015 c 1
 290.432 404.195 305.875 396.285 330.735 396.285 c 0
 354.089 396.285 374.052 404.195 390.625 420.015 c 0
 408.705 435.081 419.629 451.278 423.395 468.605 c 1
 427.915 493.465 l 1
 423.395 519.455 l 1
 416.615 533.015 401.171 539.795 377.065 539.795 c 0
EndSplineSet
MinimumDistance: x27,-1 
EndChar
StartChar: uni0E05
Encoding: 135 3589
OldEncoding: 3589
Width: 799
Flags: W
HStem: -1.08496 21G<19.5947 114.515 452.385 549.565> 327.745 68.93<307 332.605> 540.185 72.32<377 401.535>
VStem: 432.045 74.58<493.855 519.845> 642.225 97.1801<611 643>
DStem: 65.9248 140.165 230.905 354.865 19.5947 -1.08496 114.515 -1.08496 343.905 718.725 359.725 800.085 406.055 667.875 467.075 709.685 624.145 524.365 723.585 533.405 452.385 -1.08496 549.565 -1.08496 626.405 800.085 595.895 718.725 467.075 709.685 441.085 635.105
Fore
47.8447 524.365 m 0
 65.9248 577.852 105.099 630.209 165.365 681.435 c 0
 224.125 732.661 288.911 772.211 359.725 800.085 c 1
 467.075 709.685 l 1
 626.405 800.085 l 1
 701.738 757.145 739.405 698.385 739.405 623.805 c 0
 739.405 594.425 734.131 564.291 723.585 533.405 c 1
 549.565 -1.08496 l 1
 452.385 -1.08496 l 1
 624.145 524.365 l 2
 633.185 552.991 639.211 582.371 642.225 612.505 c 1
 642.225 628.325 l 1
 644.485 642.639 642.979 655.068 637.705 665.615 c 1
 636.198 674.655 630.171 684.448 619.625 694.995 c 0
 606.065 707.049 598.155 714.959 595.895 718.725 c 1
 441.085 635.105 l 1
 441.085 635.105 l 1
 441.085 635.858 429.409 646.781 406.055 667.875 c 1
 343.905 718.725 l 1
 285.898 693.865 242.581 665.991 213.955 635.105 c 0
 180.809 598.945 157.079 560.525 142.765 519.845 c 0
 136.738 502.519 133.725 482.555 133.725 459.955 c 1
 135.985 424.925 l 1
 140.505 367.295 l 1
 140.505 341.305 l 1
 163.105 415.885 l 1
 181.938 473.139 212.071 520.222 253.505 557.135 c 1
 298.705 594.049 348.049 612.505 401.535 612.505 c 0
 445.229 612.505 475.361 598.568 491.935 570.695 c 0
 501.729 553.369 506.625 536.419 506.625 519.845 c 0
 506.625 501.765 503.235 484.815 496.455 468.995 c 1
 485.155 429.821 462.179 396.675 427.525 369.555 c 0
 392.871 341.682 353.321 327.745 308.875 327.745 c 0
 268.195 327.745 242.205 336.785 230.905 354.865 c 1
 114.515 -1.08496 l 1
 19.5947 -1.08496 l 1
 65.9248 140.165 l 1
 75.7188 167.285 80.6152 191.769 80.6152 213.615 c 1
 78.3555 232.825 l 2
 76.8486 246.385 68.9385 278.778 54.625 330.005 c 0
 43.3252 369.932 36.5449 403.079 34.2852 429.445 c 1
 34.2852 440.745 l 2
 34.2852 465.605 38.8047 493.479 47.8447 524.365 c 0
378.935 540.185 m 0
 354.829 540.185 334.865 533.405 319.045 519.845 c 0
 302.472 507.039 290.795 490.089 284.015 468.995 c 1
 279.495 445.265 l 1
 279.495 435.472 281.755 427.185 286.275 420.405 c 1
 292.302 404.585 307.745 396.675 332.605 396.675 c 0
 355.959 396.675 375.921 404.585 392.495 420.405 c 1
 409.068 433.965 420.745 450.161 427.525 468.995 c 1
 432.045 493.855 l 1
 432.045 504.401 429.785 513.065 425.265 519.845 c 0
 418.485 533.405 403.041 540.185 378.935 540.185 c 0
EndSplineSet
MinimumDistance: x5,-1 
EndChar
StartChar: uni0E06
Encoding: 136 3590
OldEncoding: 3590
Width: 996
Flags: W
HStem: -13.8652 80.2304<183 207.875> -0.304688 21G<651.965 749.145> 351.125 72.32<118 142.335> 566.955 66.67<188.665 212.395> 766.175 20G<906.215 1003.39>
VStem: 5.60547 85.8799<465 471> 80.1846 85.8804<89 117.215> 524.275 83.62<669 684.475>
DStem: 309.575 270.895 406.755 266.375 256.465 105.915 358.165 119.475 385.285 507.065 480.205 501.415 332.175 342.085 429.355 342.085 906.215 786.175 1003.39 786.175 705.075 163.545 749.145 -0.304688
Fore
332.175 342.085 m 1
 385.285 507.065 l 1
 398.845 540.965 409.015 562.435 415.795 571.475 c 0
 423.329 582.775 436.512 595.205 455.345 608.765 c 1
 499.415 633.625 l 2
 510.715 640.405 518.249 649.068 522.015 659.615 c 1
 524.275 670.915 l 1
 524.275 679.201 520.509 690.125 512.975 703.685 c 1
 500.921 717.999 489.245 726.285 477.945 728.545 c 1
 360.425 664.135 l 1
 272.285 728.545 l 1
 240.645 722.519 209.759 705.568 179.625 677.695 c 0
 151.751 649.821 134.802 626.845 128.775 608.765 c 1
 159.285 624.585 l 2
 169.079 630.611 186.781 633.625 212.395 633.625 c 0
 252.321 631.365 282.455 618.935 302.795 596.335 c 0
 314.849 584.281 320.875 567.331 320.875 545.485 c 0
 320.875 534.185 317.108 516.481 309.575 492.375 c 0
 294.509 447.929 268.142 413.275 230.475 388.415 c 0
 191.302 363.555 154.389 351.125 119.735 351.125 c 0
 72.2754 351.125 39.1279 368.829 20.2949 404.235 c 0
 10.502 425.329 5.60547 447.175 5.60547 469.775 c 0
 5.60547 490.869 10.502 516.105 20.2949 545.485 c 0
 28.582 576.371 44.0254 609.519 66.625 644.925 c 0
 96.0049 690.879 134.425 728.921 181.885 759.055 c 1
 231.605 786.929 271.909 800.865 302.795 800.865 c 1
 383.025 737.585 l 1
 497.155 800.865 l 1
 531.809 788.059 560.059 769.225 581.905 744.365 c 0
 599.231 725.531 607.895 705.568 607.895 684.475 c 0
 607.895 674.682 605.635 664.135 601.115 652.835 c 0
 595.841 634.755 587.932 621.571 577.385 613.285 c 0
 568.345 604.245 557.045 594.075 543.485 582.775 c 1
 526.159 571.475 513.729 560.551 506.195 550.005 c 1
 495.648 539.459 486.985 523.262 480.205 501.415 c 2
 429.355 342.085 l 1
 480.581 337.565 524.651 325.135 561.565 304.795 c 1
 598.479 288.222 630.119 265.999 656.485 238.125 c 0
 682.099 210.251 698.295 185.392 705.075 163.545 c 1
 906.215 786.175 l 1
 1003.39 786.175 l 1
 749.145 -0.304688 l 1
 651.965 -0.304688 l 1
 656.485 34.7246 l 1
 656.485 57.3252 651.211 80.3018 640.665 103.655 c 0
 620.325 145.841 590.945 181.249 552.525 209.875 c 0
 511.845 239.255 463.255 258.089 406.755 266.375 c 1
 358.165 119.475 l 1
 342.345 76.5352 320.499 44.1416 292.625 22.2949 c 0
 263.999 -1.81152 227.839 -13.8652 184.145 -13.8652 c 0
 138.945 -13.8652 108.059 3.08496 91.4854 36.9854 c 0
 83.9512 54.3115 80.1846 72.0146 80.1846 90.0947 c 0
 80.1846 108.175 83.9512 129.645 91.4854 154.505 c 0
 109.565 207.238 138.945 250.555 179.625 284.455 c 0
 224.825 320.615 275.675 339.825 332.175 342.085 c 1
172.845 87.835 m 0
 179.625 73.5215 191.302 66.3652 207.875 66.3652 c 0
 229.722 66.3652 245.919 79.5488 256.465 105.915 c 1
 309.575 270.895 l 1
 280.195 270.895 251.568 259.972 223.695 238.125 c 1
 199.589 212.512 183.392 186.145 175.105 159.025 c 0
 169.079 144.711 166.065 130.775 166.065 117.215 c 0
 166.065 104.408 168.325 94.6152 172.845 87.835 c 0
188.665 566.955 m 0
 165.312 566.955 146.102 559.799 131.035 545.485 c 1
 112.955 532.679 100.525 515.729 93.7451 494.635 c 1
 91.4854 472.035 l 1
 91.4854 462.241 93.7451 452.825 98.2646 443.785 c 0
 106.552 430.225 121.241 423.445 142.335 423.445 c 0
 164.935 423.445 186.028 430.225 205.615 443.785 c 1
 219.929 456.592 230.475 473.541 237.255 494.635 c 1
 241.775 522.885 l 1
 237.255 545.485 l 1
 228.215 559.799 212.019 566.955 188.665 566.955 c 0
EndSplineSet
EndChar
StartChar: uni0E07
Encoding: 137 3591
OldEncoding: 3591
Width: 625
Flags: W
HStem: -15.7354 87.0108<247 269> 511.975 71.19<398 425> 724.415 72.32<468 491.67>
VStem: 297.31 74.58<610 631.755>
DStem: 26.1104 492.765 116.51 534.575 142.5 53.1953 237.42 97.2646 447.6 521.015 588.85 653.225 315.39 108.565 410.31 101.785
Fore
315.39 108.565 m 1
 447.6 521.015 l 1
 437.807 514.988 421.61 511.975 399.01 511.975 c 0
 356.823 511.975 327.443 526.665 310.87 556.045 c 0
 301.83 571.865 297.31 590.321 297.31 611.415 c 0
 297.31 624.222 299.57 638.911 304.09 655.485 c 0
 318.403 696.165 342.51 730.065 376.41 757.185 c 0
 410.31 783.551 448.73 796.735 491.67 796.735 c 0
 521.05 796.735 545.156 790.331 563.99 777.525 c 0
 580.563 765.472 591.11 748.521 595.63 726.675 c 1
 597.89 706.335 l 1
 597.89 686.749 594.876 669.045 588.85 653.225 c 1
 410.31 101.785 l 1
 399.01 65.625 377.54 36.2451 345.9 13.6445 c 0
 316.52 -5.94141 284.126 -15.7354 248.72 -15.7354 c 0
 222.354 -15.7354 200.884 -10.4619 184.31 0.0849609 c 0
 166.23 10.6318 152.294 28.335 142.5 53.1953 c 1
 26.1104 492.765 l 1
 116.51 534.575 l 1
 237.42 97.2646 l 1
 239.68 79.9385 250.227 71.2754 269.06 71.2754 c 0
 278.854 71.2754 288.27 74.665 297.31 81.4453 c 0
 305.597 89.7314 311.624 98.7715 315.39 108.565 c 1
469.07 724.415 m 0
 448.73 724.415 429.144 717.635 410.31 704.075 c 1
 391.477 683.735 379.424 667.539 374.15 655.485 c 1
 371.89 631.755 l 1
 371.89 621.961 374.15 613.675 378.67 606.895 c 0
 386.956 591.075 402.4 583.165 425 583.165 c 0
 449.86 583.165 470.576 591.075 487.15 606.895 c 0
 505.23 621.961 516.153 638.158 519.92 655.485 c 2
 524.44 675.825 l 1
 524.44 684.865 522.18 694.281 517.66 704.075 c 1
 507.113 717.635 490.916 724.415 469.07 724.415 c 0
EndSplineSet
MinimumDistance: x11,-1 
EndChar
StartChar: uni0E08
Encoding: 138 3592
OldEncoding: 3592
Width: 741
Flags: W
HStem: -1.08496 21G<394.56 491.74> 496.115 76.84<315 339.19> 725.505 74.58<414 440>
VStem: 144.83 74.58<382 405.715> 579.88 101.7<603.465 626.065>
DStem: 570.84 540.185 668.02 540.185 498.52 318.705 491.74 -1.08496
Fore
339.19 572.955 m 0
 385.896 572.955 420.55 556.759 443.15 524.365 c 0
 465.75 491.219 480.44 450.161 487.22 401.195 c 2
 498.52 318.705 l 1
 570.84 540.185 l 1
 576.866 561.278 579.88 582.371 579.88 603.465 c 0
 579.88 632.092 571.594 655.821 555.02 674.655 c 0
 523.38 708.555 477.05 725.505 416.03 725.505 c 0
 312.07 727.765 215.644 685.201 126.75 597.815 c 1
 80.4199 646.405 l 1
 118.086 687.839 168.937 723.621 232.97 753.755 c 0
 297.756 784.642 367.063 800.085 440.89 800.085 c 0
 499.65 800.085 549.746 789.915 591.18 769.575 c 0
 632.613 748.481 659.733 719.102 672.54 681.435 c 0
 678.566 667.121 681.58 648.665 681.58 626.065 c 0
 681.58 599.698 677.06 571.071 668.02 540.185 c 1
 491.74 -1.08496 l 1
 394.56 -1.08496 l 1
 407.366 36.582 417.536 84.418 425.07 142.425 c 1
 427.33 221.525 l 1
 425.07 279.155 l 1
 420.55 321.342 412.64 352.229 401.34 371.815 c 1
 392.3 357.501 375.35 340.552 350.49 320.965 c 0
 326.384 299.871 291.73 288.195 246.53 285.935 c 0
 208.11 285.935 179.483 299.871 160.65 327.745 c 0
 150.104 342.812 144.83 361.269 144.83 383.115 c 0
 144.83 401.195 147.844 418.145 153.87 433.965 c 0
 168.937 476.905 193.044 510.052 226.19 533.405 c 0
 260.844 559.771 298.51 572.955 339.19 572.955 c 0
316.59 496.115 m 0
 292.483 496.115 272.144 489.335 255.57 475.775 c 0
 240.504 462.215 229.204 446.019 221.67 427.185 c 1
 219.41 405.715 l 1
 219.41 394.415 221.67 385.375 226.19 378.595 c 1
 232.97 362.775 247.66 354.865 270.26 354.865 c 0
 290.6 354.865 309.81 362.021 327.89 376.335 c 0
 343.71 389.895 355.387 406.845 362.92 427.185 c 1
 367.44 452.045 l 1
 367.44 461.839 364.804 469.749 359.53 475.775 c 1
 352.75 489.335 338.437 496.115 316.59 496.115 c 0
EndSplineSet
MinimumDistance: x14,-1 
EndChar
StartChar: uni0E09
Encoding: 139 3593
OldEncoding: 3593
Width: 856
Flags: W
HStem: -0.304688 21G<58.4297 155.61> 266.375 68.93<99 123.97> 478.815 71.19<170.3 192.9> 724.025 76.84<488 517>
VStem: -3.71973 73.4502<360.165 383.895> 223.41 73.45<434.745 458.475> 651.68 101.7<605 629.105>
DStem: 546.59 260.725 643.77 260.725 488.96 78.7949 586.14 83.3154 639.25 540.965 736.43 540.965 572.58 337.565 669.76 337.565
Fore
287.82 404.235 m 2
 210.98 169.195 l 1
 256.934 213.642 315.693 252.062 387.26 284.455 c 1
 455.813 313.081 517.586 330.785 572.58 337.565 c 1
 639.25 540.965 l 2
 647.536 565.071 651.68 586.919 651.68 606.505 c 0
 651.68 634.379 643.77 657.355 627.95 675.435 c 0
 600.076 707.829 554.5 724.025 491.22 724.025 c 0
 439.24 724.025 387.637 710.842 336.41 684.475 c 1
 289.704 662.629 246.387 631.741 206.46 591.815 c 1
 160.13 640.405 l 1
 207.59 687.865 261.076 725.908 320.59 754.535 c 0
 386.13 785.421 451.67 800.865 517.21 800.865 c 0
 607.61 800.865 673.903 777.512 716.09 730.805 c 0
 740.95 703.685 753.38 669.785 753.38 629.105 c 0
 753.38 600.479 747.73 571.099 736.43 540.965 c 1
 669.76 337.565 l 1
 716.466 328.525 748.106 308.562 764.68 277.675 c 1
 770.706 262.608 773.72 244.905 773.72 224.565 c 0
 773.72 206.485 769.954 183.131 762.42 154.505 c 0
 746.6 105.538 717.974 65.6113 676.54 34.7246 c 1
 637.366 2.33203 595.557 -13.8652 551.11 -13.8652 c 0
 523.236 -13.8652 503.273 -5.57812 491.22 10.9951 c 0
 485.193 19.2812 482.18 30.2051 482.18 43.7646 c 0
 482.18 55.0654 484.44 66.7412 488.96 78.7949 c 1
 546.59 260.725 l 1
 478.036 247.919 419.653 228.709 371.44 203.095 c 1
 321.72 178.988 274.637 145.841 230.19 103.655 c 0
 194.03 69.002 169.17 34.3486 155.61 -0.304688 c 1
 58.4297 -0.304688 l 1
 146.57 275.415 l 1
 138.284 269.389 122.84 266.375 100.24 266.375 c 0
 56.5469 266.375 26.4131 280.688 9.83984 309.315 c 0
 0.799805 325.889 -3.71973 342.839 -3.71973 360.165 c 0
 -3.71973 376.738 -1.45996 392.935 3.05957 408.755 c 0
 13.6064 447.175 36.96 480.698 73.1201 509.325 c 0
 107.02 536.445 146.946 550.005 192.9 550.005 c 0
 237.347 550.005 267.48 536.445 283.3 509.325 c 0
 292.34 491.999 296.86 475.049 296.86 458.475 c 0
 296.86 441.148 293.847 423.068 287.82 404.235 c 2
170.3 478.815 m 0
 148.454 478.815 128.113 472.035 109.28 458.475 c 1
 92.7061 443.408 81.4062 426.081 75.3799 406.495 c 1
 69.7305 383.895 l 1
 69.7305 374.102 72.3662 364.685 77.6396 355.645 c 0
 84.4199 342.085 99.8633 335.305 123.97 335.305 c 0
 145.063 335.305 165.026 342.085 183.86 355.645 c 1
 199.68 372.972 211.356 389.921 218.89 406.495 c 1
 223.41 434.745 l 1
 223.41 443.031 221.15 450.941 216.63 458.475 c 0
 209.097 472.035 193.653 478.815 170.3 478.815 c 0
687.84 154.505 m 1
 692.36 171.831 694.62 187.275 694.62 200.835 c 1
 692.36 229.085 l 1
 685.58 247.919 669.384 258.465 643.77 260.725 c 1
 586.14 83.3154 l 1
 583.88 70.8848 l 1
 583.88 64.8584 587.646 61.8447 595.18 61.8447 c 0
 612.506 61.8447 630.21 71.2617 648.29 90.0947 c 0
 665.616 108.929 678.8 130.398 687.84 154.505 c 1
EndSplineSet
MinimumDistance: x14,-1 
EndChar
StartChar: uni0E0A
Encoding: 140 3594
OldEncoding: 3594
Width: 793
Flags: W
HStem: -3.62012 83.6201<73 172 269 395> 459.68 73.45<129.78 173.85> 722.97 74.58<333.231 348>
VStem: 41.6396 81.3604<554.6 583.98> 597.6 103.96<514 542.17>
DStem: 261.99 356.85 354.65 343.29 171.59 80 268.77 80 582.91 449.51 688 468.72 485.73 146.67 582.91 146.67
Fore
629.24 628.05 m 1
 638.28 628.05 649.956 625.036 664.27 619.01 c 1
 677.83 610.724 688.754 595.28 697.04 572.68 c 1
 701.56 542.17 l 1
 701.56 522.584 697.04 498.1 688 468.72 c 1
 582.91 146.67 l 1
 561.816 83.3896 538.086 42.71 511.72 24.6299 c 0
 481.586 5.79688 432.996 -3.62012 365.95 -3.62012 c 2
 46.1602 -3.62012 l 1
 74.4102 80 l 1
 171.59 80 l 1
 261.99 356.85 l 2
 272.536 389.244 282.33 411.844 291.37 424.65 c 0
 300.41 438.21 315.1 455.16 335.44 475.5 c 1
 355.78 492.826 371.977 509.776 384.03 526.35 c 0
 396.836 543.677 408.514 564.394 419.06 588.5 c 0
 425.086 605.826 428.1 622.023 428.1 637.09 c 0
 428.1 658.184 423.58 674.38 414.54 685.68 c 0
 396.46 710.54 369.34 722.97 333.18 722.97 c 1
 295.89 718.45 l 1
 308.696 716.19 321.88 705.267 335.44 685.68 c 0
 342.974 675.887 346.74 663.834 346.74 649.52 c 0
 346.74 628.426 342.974 608.086 335.44 588.5 c 0
 322.634 549.326 297.396 517.687 259.73 493.58 c 0
 222.816 470.98 179.5 459.68 129.78 459.68 c 1
 71.0195 466.46 41.6396 498.1 41.6396 554.6 c 0
 41.6396 577.2 46.1602 603.19 55.2002 632.57 c 1
 83.0732 684.55 124.13 724.854 178.37 753.48 c 0
 236.376 782.86 290.24 797.55 339.96 797.55 c 0
 373.86 797.55 406.254 791.146 437.14 778.34 c 0
 462 767.794 482.34 750.844 498.16 727.49 c 0
 511.72 707.15 518.5 684.174 518.5 658.56 c 1
 542.606 658.56 582.534 670.613 638.28 694.72 c 0
 695.534 718.073 758.813 767.04 828.12 841.62 c 1
 882.36 797.55 l 1
 839.42 742.557 793.844 702.254 745.63 676.64 c 1
 686.87 649.52 648.073 633.323 629.24 628.05 c 1
507.2 588.5 m 1
 501.174 565.146 491.004 543.677 476.69 524.09 c 0
 460.116 500.736 445.427 483.786 432.62 473.24 c 1
 386.29 417.87 l 1
 373.483 396.023 362.937 371.164 354.65 343.29 c 1
 268.77 80 l 1
 393.07 80 l 2
 422.45 80 443.544 84.5195 456.35 93.5596 c 0
 466.144 99.5869 475.937 117.29 485.73 146.67 c 2
 582.91 449.51 l 1
 592.704 474.37 597.6 496.217 597.6 515.05 c 0
 597.6 564.017 567.466 588.5 507.2 588.5 c 1
222.44 676.64 m 0
 198.334 676.64 178.37 669.86 162.55 656.3 c 0
 145.224 641.233 133.546 624.283 127.52 605.45 c 1
 123 583.98 l 1
 123 574.94 125.26 565.9 129.78 556.86 c 0
 135.807 541.04 150.496 533.13 173.85 533.13 c 0
 198.71 533.13 219.427 541.04 236 556.86 c 0
 253.326 571.174 265.004 587.37 271.03 605.45 c 1
 275.55 632.57 l 1
 275.55 641.61 273.29 649.52 268.77 656.3 c 0
 261.99 669.86 246.546 676.64 222.44 676.64 c 0
EndSplineSet
MinimumDistance: x3,-1 
EndChar
StartChar: uni0E0B
Encoding: 141 3595
OldEncoding: 3595
Width: 846
Flags: W
HStem: -4.91992 83.6201<124 222 328 452> 346.51 72.32<89 116.48>
VStem: -22.5098 85.8799<458 469> 215.92 77.97<517 540.87>
DStem: 359.43 502.45 454.35 496.8 222.7 78.7002 319.88 78.7002 641.93 467.42 739.11 467.42 536.84 145.37 634.02 145.37
Fore
583.17 670.82 m 1
 619.33 679.86 662.646 697.563 713.12 723.93 c 0
 770.374 751.804 828.38 798.134 887.14 862.92 c 1
 942.51 816.59 l 1
 912.376 782.69 877.724 751.05 838.55 721.67 c 1
 797.87 696.057 763.97 677.6 736.85 666.3 c 0
 699.184 649.727 678.844 641.063 675.83 640.31 c 1
 694.664 638.05 715.756 625.996 739.11 604.15 c 0
 749.656 592.85 754.93 575.9 754.93 553.3 c 0
 756.437 534.467 751.164 505.84 739.11 467.42 c 1
 634.02 145.37 l 1
 612.927 82.0898 589.196 41.4102 562.83 23.3301 c 0
 532.696 4.49707 484.106 -4.91992 417.06 -4.91992 c 2
 97.2695 -4.91992 l 1
 125.52 78.7002 l 1
 222.7 78.7002 l 1
 359.43 502.45 l 1
 369.977 537.104 384.666 563.094 403.5 580.42 c 0
 421.58 598.5 444.557 614.696 472.43 629.01 c 0
 483.73 635.79 491.64 644.454 496.16 655 c 1
 496.16 666.3 l 2
 496.16 673.08 492.017 684.004 483.73 699.07 c 0
 473.937 713.384 463.39 721.67 452.09 723.93 c 1
 333.44 659.52 l 1
 243.04 723.93 l 1
 209.894 717.15 179.76 700.2 152.64 673.08 c 0
 128.534 648.974 112.336 625.996 104.05 604.15 c 1
 132.3 619.97 l 2
 142.094 625.996 159.796 629.01 185.41 629.01 c 0
 226.09 626.75 256.224 615.074 275.81 593.98 c 0
 287.863 579.666 293.89 561.964 293.89 540.87 c 0
 293.89 524.296 290.876 506.594 284.85 487.76 c 0
 269.03 444.066 241.91 409.414 203.49 383.8 c 0
 165.07 358.94 127.403 346.51 90.4902 346.51 c 0
 45.29 346.51 12.1436 364.214 -8.9502 399.62 c 1
 -17.9902 420.714 -22.5098 442.56 -22.5098 465.16 c 0
 -22.5098 488.514 -17.9902 513.75 -8.9502 540.87 c 0
 0.0898438 569.496 16.2871 602.644 39.6396 640.31 c 0
 70.5264 687.77 108.946 725.813 154.9 754.44 c 1
 204.62 782.313 245.677 796.25 278.07 796.25 c 1
 359.43 732.97 l 1
 467.91 796.25 l 1
 502.563 787.964 527.046 775.533 541.36 758.96 c 0
 559.44 738.62 570.363 719.41 574.13 701.33 c 1
 583.17 670.82 l 1
 583.17 670.82 l 1
553.79 604.15 m 1
 518.76 578.16 l 1
 499.174 566.86 485.99 556.69 479.21 547.65 c 0
 466.403 525.804 458.116 508.854 454.35 496.8 c 2
 319.88 78.7002 l 1
 444.18 78.7002 l 2
 476.573 78.7002 498.42 83.2197 509.72 92.2598 c 0
 517.254 96.7803 526.294 114.483 536.84 145.37 c 1
 641.93 467.42 l 1
 649.464 492.28 653.23 512.244 653.23 527.31 c 0
 653.23 578.536 620.084 604.15 553.79 604.15 c 1
162.81 562.34 m 0
 140.964 562.34 120.624 555.184 101.79 540.87 c 0
 85.2158 526.557 73.916 509.606 67.8896 490.02 c 1
 63.3701 469.68 l 1
 63.3701 459.887 65.6299 450.47 70.1504 441.43 c 0
 78.4365 426.363 93.8799 418.83 116.48 418.83 c 0
 138.326 418.83 158.29 425.61 176.37 439.17 c 1
 192.19 456.496 203.866 473.446 211.4 490.02 c 1
 215.92 518.27 l 1
 215.92 526.557 213.66 534.09 209.14 540.87 c 0
 199.347 555.184 183.903 562.34 162.81 562.34 c 0
EndSplineSet
MinimumDistance: x7,-1 
EndChar
StartChar: uni0E0C
Encoding: 142 3596
OldEncoding: 3596
Width: 1032
Flags: W
HStem: -13.8652 71.1904<76 98.2002> -0.304688 21G<689.19 786.37> 198.575 72.32<143 170.52> 728.545 72.32<407 451> 766.175 20G<943.44 1040.62>
VStem: -30.6201 75.7099<77 105.915> 572.8 101.7<632 659.615>
DStem: 71.0801 408.755 168.26 414.405 -21.5801 129.645 119.67 260.725 448.5 222.305 541.16 209.875 406.69 92.3555 501.61 87.835 563.76 578.255 660.94 578.255 468.84 288.975 566.02 286.715 660.94 578.255 943.44 786.175 566.02 286.715 735.52 140.945 943.44 786.175 1040.62 786.175 735.52 140.945 786.37 -0.304688
Fore
168.26 414.405 m 1
 119.67 260.725 l 1
 127.204 267.505 144.153 270.895 170.52 270.895 c 0
 211.954 270.895 241.334 256.959 258.66 229.085 c 1
 266.193 210.251 269.96 194.055 269.96 180.495 c 0
 269.96 162.415 266.946 145.465 260.92 129.645 c 0
 250.374 94.2383 227.02 61.0918 190.86 30.2051 c 0
 157.714 0.825195 120.046 -13.8652 77.8604 -13.8652 c 0
 36.4268 -13.8652 5.54004 -0.681641 -14.7998 25.6846 c 0
 -25.3467 40.752 -30.6201 58.4551 -30.6201 78.7949 c 0
 -30.6201 95.3682 -27.6064 112.318 -21.5801 129.645 c 2
 71.0801 408.755 l 1
 100.46 499.908 150.557 556.408 221.37 578.255 c 1
 210.823 588.801 193.874 601.985 170.52 617.805 c 0
 150.934 629.858 117.034 643.041 68.8203 657.355 c 1
 94.4336 682.969 140.764 713.102 207.81 747.755 c 0
 274.856 783.161 353.58 800.865 443.98 800.865 c 0
 597.66 800.865 674.5 753.781 674.5 659.615 c 0
 674.5 635.509 669.98 608.389 660.94 578.255 c 1
 566.02 286.715 l 1
 602.18 279.935 636.08 263.738 667.72 238.125 c 0
 700.113 212.512 722.714 180.119 735.52 140.945 c 1
 943.44 786.175 l 1
 1040.62 786.175 l 1
 786.37 -0.304688 l 1
 689.19 -0.304688 l 1
 686.93 23.8018 682.034 47.5312 674.5 70.8848 c 0
 667.72 94.2383 653.784 119.852 632.69 147.725 c 0
 613.856 171.831 583.347 192.549 541.16 209.875 c 1
 501.61 87.835 l 1
 480.517 20.0352 438.706 -13.8652 376.18 -13.8652 c 0
 337.006 -13.8652 311.77 1.57812 300.47 32.4648 c 1
 293.69 43.7646 290.3 59.208 290.3 78.7949 c 0
 290.3 96.875 294.443 118.345 302.73 143.205 c 0
 314.03 183.131 335.5 217.031 367.14 244.905 c 0
 396.52 272.025 430.42 286.715 468.84 288.975 c 1
 563.76 578.255 l 2
 569.786 596.335 572.8 614.791 572.8 633.625 c 0
 572.8 656.225 566.02 675.435 552.46 691.255 c 1
 527.6 716.115 488.05 728.545 433.81 728.545 c 0
 363.75 728.545 289.924 709.335 212.33 670.915 c 1
 221.37 667.901 242.84 656.979 276.74 638.145 c 0
 302.354 623.831 326.46 602.361 349.06 573.735 c 1
 336.254 573.735 320.81 570.722 302.73 564.695 c 0
 283.896 558.669 259.79 543.979 230.41 520.625 c 1
 200.276 489.738 179.56 454.331 168.26 414.405 c 1
406.69 92.3555 m 1
 448.5 222.305 l 1
 409.326 214.019 382.206 184.639 367.14 134.165 c 1
 362.62 105.915 l 1
 362.62 98.3818 363.374 93.8613 364.88 92.3555 c 0
 369.4 80.3018 375.427 74.2754 382.96 74.2754 c 0
 391.246 74.2754 399.156 80.3018 406.69 92.3555 c 1
98.2002 57.3252 m 0
 122.307 57.3252 142.646 64.4814 159.22 78.7949 c 0
 175.794 93.1084 187.094 110.059 193.12 129.645 c 1
 195.38 149.985 l 1
 195.38 162.039 193.12 171.455 188.6 178.235 c 0
 181.82 191.795 167.13 198.575 144.53 198.575 c 0
 123.437 198.575 103.474 191.795 84.6396 178.235 c 1
 68.8203 163.921 57.1436 147.725 49.6104 129.645 c 1
 45.0898 105.915 l 1
 45.0898 94.6152 47.3496 85.5752 51.8701 78.7949 c 0
 61.6641 64.4814 77.1064 57.3252 98.2002 57.3252 c 0
EndSplineSet
EndChar
StartChar: uni0E0D
Encoding: 143 3597
OldEncoding: 3597
Width: 1025
Flags: W
HStem: -371.705 68.93<431.237 454> 7.97461 71.1904<131 156.59> 21.5352 83.6198<361 458 567 699> 220.415 72.32<200.66 225.52> 750.385 72.32<471 505>
VStem: 24.3799 76.8401<99 127.755> 628.93 101.7<654 681.455>
DStem: 123.82 430.595 223.26 436.245 33.4199 151.485 172.41 282.565 618.76 600.095 715.94 600.095 457.17 105.155 554.35 105.155 715.94 600.095 998.44 808.015 554.35 105.155 792.78 171.825 998.44 808.015 1095.62 808.015 792.78 171.825 889.96 171.825
Fore
813.12 -59.8252 m 1
 793.534 -126.871 761.894 -184.501 718.2 -232.715 c 1
 677.52 -280.929 632.32 -315.581 582.6 -336.675 c 1
 532.88 -360.028 483.536 -371.705 434.57 -371.705 c 0
 369.03 -371.705 319.31 -354.755 285.41 -320.855 c 1
 259.796 -299.762 246.99 -273.395 246.99 -241.755 c 0
 246.99 -227.441 249.25 -212.375 253.77 -196.555 c 0
 265.823 -162.655 288.046 -129.131 320.44 -95.9854 c 1
 353.586 -66.6055 394.644 -53.0449 443.61 -55.3047 c 0
 483.536 -55.3047 511.034 -68.8652 526.1 -95.9854 c 0
 532.88 -110.299 536.27 -126.495 536.27 -144.575 c 0
 536.27 -160.395 533.634 -175.839 528.36 -190.905 c 0
 523.086 -208.985 511.034 -230.831 492.2 -256.445 c 1
 477.134 -272.265 456.794 -287.709 431.18 -302.775 c 1
 480.9 -302.775 533.634 -287.331 589.38 -256.445 c 0
 640.606 -227.065 683.546 -161.525 718.2 -59.8252 c 1
 813.12 -59.8252 l 1
33.4199 151.485 m 1
 123.82 430.595 l 1
 153.954 520.995 204.804 577.495 276.37 600.095 c 1
 266.576 609.135 248.874 622.318 223.26 639.645 c 0
 203.674 652.451 170.526 665.635 123.82 679.195 c 1
 150.94 704.809 197.27 734.941 262.81 769.595 c 0
 332.116 805.001 411.594 822.705 501.24 822.705 c 0
 654.166 822.705 730.63 775.621 730.63 681.455 c 0
 730.63 656.595 725.733 629.475 715.94 600.095 c 2
 554.35 105.155 l 1
 697.86 105.155 l 2
 729.5 105.155 750.97 109.675 762.27 118.715 c 1
 772.816 124.741 782.986 142.445 792.78 171.825 c 2
 998.44 808.015 l 1
 1095.62 808.015 l 1
 889.96 171.825 l 1
 877.906 132.651 862.464 100.259 843.63 74.6445 c 0
 827.057 52.7988 807.094 38.8613 783.74 32.835 c 0
 755.113 25.3018 717.823 21.5352 671.87 21.5352 c 2
 334 21.5352 l 1
 362.25 105.155 l 1
 457.17 105.155 l 1
 618.76 600.095 l 2
 625.54 620.435 628.93 638.892 628.93 655.465 c 0
 628.93 677.312 621.773 696.521 607.46 713.095 c 0
 583.354 737.955 544.934 750.385 492.2 750.385 c 0
 421.387 750.385 346.43 731.175 267.33 692.755 c 1
 279.384 688.988 300.854 678.065 331.74 659.985 c 0
 357.354 645.671 381.46 624.201 404.06 595.575 c 1
 391.254 595.575 375.81 592.562 357.73 586.535 c 0
 335.13 579.755 311.023 565.065 285.41 542.465 c 1
 258.29 514.592 237.573 479.185 223.26 436.245 c 2
 172.41 282.565 l 1
 182.204 289.345 199.906 292.735 225.52 292.735 c 0
 270.72 292.735 300.1 278.799 313.66 250.925 c 0
 321.193 232.091 324.96 215.895 324.96 202.335 c 0
 324.96 184.255 321.946 167.305 315.92 151.485 c 0
 305.374 113.818 283.15 80.6719 249.25 52.0449 c 0
 215.35 22.665 176.554 7.97461 132.86 7.97461 c 0
 92.1797 7.97461 62.0459 21.1582 42.46 47.5254 c 0
 30.4062 64.0986 24.3799 81.8018 24.3799 100.635 c 0
 24.3799 117.208 27.3936 134.158 33.4199 151.485 c 1
371.29 -254.185 m 0
 392.384 -254.185 410.086 -247.781 424.4 -234.975 c 1
 439.466 -225.182 449.637 -210.491 454.91 -190.905 c 1
 457.17 -170.565 l 1
 454.91 -147.965 l 1
 448.13 -135.159 434.193 -128.755 413.1 -128.755 c 0
 393.514 -128.755 376.563 -135.159 362.25 -147.965 c 1
 346.43 -159.265 334.754 -173.579 327.22 -190.905 c 1
 322.7 -210.115 l 1
 322.7 -220.661 325.714 -228.949 331.74 -234.975 c 1
 340.026 -247.781 353.21 -254.185 371.29 -254.185 c 0
156.59 79.165 m 0
 179.19 79.165 199.153 86.3213 216.48 100.635 c 0
 231.546 113.441 242.47 130.392 249.25 151.485 c 1
 251.51 171.825 l 1
 251.51 181.619 250.004 191.035 246.99 200.075 c 1
 237.196 213.635 221.754 220.415 200.66 220.415 c 0
 178.06 220.415 158.474 213.635 141.9 200.075 c 0
 124.573 185.762 112.52 169.565 105.74 151.485 c 1
 101.22 127.755 l 1
 101.22 115.701 104.233 106.662 110.26 100.635 c 1
 117.04 86.3213 132.483 79.165 156.59 79.165 c 0
EndSplineSet
EndChar
StartChar: uni0E0E
Encoding: 144 3598
OldEncoding: 3598
Width: 881
Flags: W
HStem: -141.914 84.7499<144 176.22> 8.37598 71.1894<56 83.5596> 220.815 72.321<126 150.23> 739.485 83.62<613 644>
VStem: -44.1299 74.5801<103.296 130.416> 788.68 102.83<616.315 653.605>
DStem: 236.11 412.916 335.55 417.436 194.3 282.966 247.41 147.365 779.64 567.726 874.56 567.726 516.35 -244.744 569.46 -373.564
Fore
194.3 282.966 m 1
 236.11 412.916 l 2
 245.15 442.296 258.334 469.416 275.66 494.275 c 1
 296 519.89 312.95 536.839 326.51 545.126 c 0
 343.084 555.672 361.54 564.712 381.88 572.246 c 1
 378.113 578.271 361.164 590.702 331.03 609.535 c 0
 303.156 627.615 269.256 637.785 229.33 640.046 c 1
 259.464 670.932 312.573 709.352 388.66 755.306 c 1
 467.76 800.506 552.51 823.105 642.91 823.105 c 0
 737.076 823.105 806.006 801.26 849.7 757.565 c 1
 877.573 731.952 891.51 697.299 891.51 653.605 c 0
 891.51 628.746 885.86 600.119 874.56 567.726 c 1
 569.46 -373.564 l 1
 474.54 -373.564 l 1
 457.966 -332.885 433.106 -295.971 399.96 -262.824 c 0
 381.126 -243.238 357.396 -223.274 328.77 -202.935 c 1
 304.664 -244.368 264.36 -284.294 207.86 -322.715 c 0
 152.113 -361.888 96.7441 -380.345 41.75 -378.084 c 0
 -6.46289 -378.084 -39.6104 -362.641 -57.6904 -331.754 c 1
 -68.2363 -316.688 -73.5098 -297.479 -73.5098 -274.124 c 0
 -73.5098 -256.798 -69.7432 -236.834 -62.21 -214.234 c 0
 -47.1436 -165.269 -16.2568 -125.718 30.4502 -95.584 c 0
 73.3896 -69.9707 121.98 -57.1641 176.22 -57.1641 c 0
 217.653 -57.1641 262.477 -65.4512 310.69 -82.0244 c 1
 333.29 -44.7344 l 1
 363.8 21.9355 l 1
 446.29 3.85547 l 1
 412.39 -70.7246 l 1
 381.88 -119.314 l 1
 414.273 -137.395 443.653 -158.864 470.02 -183.725 c 1
 494.88 -210.091 510.323 -230.431 516.35 -244.744 c 1
 779.64 567.726 l 1
 785.666 582.792 788.68 598.989 788.68 616.315 c 0
 788.68 634.396 785.666 648.332 779.64 658.126 c 1
 767.586 685.246 747.624 705.209 719.75 718.016 c 0
 691.876 732.329 658.73 739.485 620.31 739.485 c 0
 538.95 739.485 459.474 713.872 381.88 662.646 c 1
 393.18 660.386 413.144 652.1 441.77 637.785 c 0
 466.63 624.979 490.736 605.016 514.09 577.896 c 1
 490.736 572.622 460.604 558.686 423.69 536.086 c 0
 383.01 511.226 353.63 471.676 335.55 417.436 c 2
 247.41 147.365 l 1
 236.11 106.686 213.134 74.292 178.48 50.1855 c 1
 143.826 22.3125 103.523 8.37598 57.5703 8.37598 c 0
 15.3838 8.37598 -13.9971 22.3125 -30.5703 50.1855 c 0
 -39.6104 66.0059 -44.1299 83.709 -44.1299 103.296 c 0
 -44.1299 120.622 -41.1162 136.819 -35.0898 151.886 c 0
 -23.0371 190.306 0.316406 223.452 34.9697 251.325 c 0
 71.1299 279.199 109.55 293.136 150.23 293.136 c 0
 169.816 293.136 184.506 289.746 194.3 282.966 c 1
136.67 -276.385 m 0
 164.544 -265.084 190.156 -246.628 213.51 -221.015 c 1
 258.71 -163.385 l 1
 218.03 -149.07 180.363 -141.914 145.71 -141.914 c 0
 80.9238 -141.914 41.75 -166.021 28.1904 -214.234 c 1
 23.6699 -249.265 l 1
 25.9297 -274.878 47.4004 -287.685 88.0801 -287.685 c 0
 103.146 -287.685 119.344 -283.918 136.67 -276.385 c 0
83.5596 79.5654 m 0
 108.42 79.5654 128.384 86.7227 143.45 101.035 c 0
 163.036 117.609 175.466 134.559 180.74 151.886 c 1
 183 174.485 l 1
 183 185.032 180.74 193.695 176.22 200.476 c 0
 167.18 214.035 150.983 220.815 127.63 220.815 c 0
 105.03 220.815 85.8203 214.035 70 200.476 c 0
 51.167 183.902 39.4902 167.706 34.9697 151.886 c 1
 30.4502 130.416 l 1
 30.4502 119.115 32.71 110.075 37.2305 103.296 c 1
 43.2568 87.4756 58.7002 79.5654 83.5596 79.5654 c 0
EndSplineSet
EndChar
StartChar: uni0E0F
Encoding: 145 3599
OldEncoding: 3599
Width: 882
Flags: W
HStem: -179.215 75.71<82 102> 8.36523 71.1895<57 84.4053> 220.805 72.32<127 151.075> 739.475 83.62<615 645>
VStem: -87.3555 88.1407<-287.695 -262.835> -43.2852 74.5801<103.285 130.405> 789.525 102.83<616.305 653.595>
DStem: 236.955 412.905 336.395 417.425 195.145 282.955 248.255 147.355 435.835 -147.575 410.975 -244.755 301.365 -253.795 250.515 -378.095 780.485 567.715 875.405 567.715 512.675 -258.315 570.305 -373.575
Fore
195.145 282.955 m 1
 236.955 412.905 l 2
 245.995 442.285 259.179 469.405 276.505 494.265 c 1
 296.845 519.879 313.795 536.829 327.355 545.115 c 0
 343.929 555.661 362.385 564.701 382.725 572.235 c 1
 378.959 578.262 362.009 590.691 331.875 609.525 c 0
 304.001 627.605 270.102 637.775 230.175 640.035 c 1
 260.309 670.921 313.419 709.342 389.505 755.295 c 1
 468.605 800.495 553.355 823.095 643.755 823.095 c 0
 737.921 823.095 806.852 801.249 850.545 757.555 c 1
 878.419 731.941 892.355 697.289 892.355 653.595 c 0
 892.355 628.735 886.705 600.108 875.405 567.715 c 1
 570.305 -373.575 l 1
 475.385 -373.575 l 1
 410.975 -244.755 l 1
 250.515 -378.095 l 1
 245.995 -356.249 239.215 -335.531 230.175 -315.945 c 1
 204.185 -267.355 l 1
 187.611 -286.188 162.375 -309.165 128.475 -336.285 c 0
 91.5615 -364.158 50.5049 -378.095 5.30469 -378.095 c 0
 -32.3613 -378.095 -59.1055 -364.158 -74.9248 -336.285 c 0
 -83.2119 -321.972 -87.3555 -305.775 -87.3555 -287.695 c 0
 -87.3555 -271.875 -83.2119 -250.405 -74.9248 -223.285 c 1
 -59.8584 -185.619 -36.1279 -155.485 -3.73535 -132.885 c 1
 27.9053 -113.299 63.3115 -103.505 102.485 -103.505 c 0
 145.425 -103.505 182.715 -116.312 214.355 -141.925 c 1
 224.148 -130.625 238.461 -107.648 257.295 -72.9951 c 1
 275.375 -44.3682 291.571 -12.7285 305.885 21.9248 c 1
 384.985 3.84473 l 1
 375.945 -16.4951 357.488 -51.5254 329.615 -101.245 c 1
 293.455 -156.991 271.985 -188.631 265.205 -196.165 c 1
 267.465 -196.165 279.519 -215.375 301.365 -253.795 c 1
 435.835 -147.575 l 1
 512.675 -258.315 l 1
 780.485 567.715 l 1
 786.512 582.781 789.525 598.979 789.525 616.305 c 0
 789.525 634.385 786.512 648.321 780.485 658.115 c 1
 768.432 685.235 748.469 705.198 720.595 718.005 c 0
 692.722 732.318 659.575 739.475 621.155 739.475 c 0
 539.795 739.475 460.318 713.861 382.725 662.635 c 1
 394.025 660.375 413.988 652.089 442.615 637.775 c 0
 467.475 624.969 491.581 605.005 514.935 577.885 c 1
 491.581 572.611 461.448 558.675 424.535 536.075 c 0
 383.855 511.215 354.475 471.665 336.395 417.425 c 2
 248.255 147.355 l 1
 236.955 106.675 213.979 74.2812 179.325 50.1748 c 1
 144.671 22.3018 104.369 8.36523 58.415 8.36523 c 0
 16.2285 8.36523 -13.1514 22.3018 -29.7246 50.1748 c 0
 -38.7646 65.9951 -43.2852 83.6982 -43.2852 103.285 c 0
 -43.2852 120.611 -40.2715 136.809 -34.2451 151.875 c 0
 -22.1914 190.295 1.16211 223.441 35.8154 251.315 c 0
 71.9746 279.188 110.395 293.125 151.075 293.125 c 0
 174.429 293.125 189.119 289.735 195.145 282.955 c 1
75.3652 -289.955 m 0
 90.4316 -281.669 108.889 -267.355 130.735 -247.015 c 1
 162.375 -209.725 l 1
 142.789 -189.385 117.552 -179.215 86.665 -179.215 c 0
 50.5049 -179.215 24.1387 -193.151 7.56543 -221.025 c 1
 3.04492 -236.845 0.785156 -250.781 0.785156 -262.835 c 0
 0.785156 -286.941 13.9688 -300.125 40.335 -302.385 c 0
 50.8818 -302.385 62.5586 -298.241 75.3652 -289.955 c 0
84.4053 79.5547 m 0
 109.265 79.5547 129.229 86.7119 144.295 101.025 c 0
 163.881 117.599 176.312 134.549 181.585 151.875 c 1
 183.845 174.475 l 1
 183.845 185.021 181.585 193.685 177.065 200.465 c 0
 168.025 214.025 151.829 220.805 128.475 220.805 c 0
 105.875 220.805 86.665 214.025 70.8447 200.465 c 0
 52.0117 183.892 40.335 167.695 35.8154 151.875 c 1
 31.2949 130.405 l 1
 31.2949 119.105 33.5547 110.065 38.0752 103.285 c 1
 44.1016 87.4648 59.5449 79.5547 84.4053 79.5547 c 0
EndSplineSet
EndChar
StartChar: uni0E10
Encoding: 146 3600
OldEncoding: 3600
Width: 702
Flags: W
HStem: -269.08 53.11<334 340> -246.48 63.28<-40 -16.0801> -105.23 58.7603<372.64 390.72> 223.6 70.06<250 275.46> 437.17 71.19<320 344.39> 677.86 84.75<743 774.92> 746.79 79.1<497 520>
VStem: 147.77 76.84<318.52 344.51>
DStem: 550.05 406.66 649.49 411.18 490.16 216.82 525.19 24.7197
Fore
344.39 508.36 m 0
 373.017 508.36 398.63 500.073 421.23 483.5 c 0
 442.323 466.174 455.13 443.573 459.65 415.7 c 1
 490.16 216.82 l 1
 550.05 406.66 l 1
 562.856 442.82 569.26 470.693 569.26 490.28 c 0
 569.26 504.594 566.246 515.894 560.22 524.18 c 0
 548.92 544.52 520.294 563.354 474.34 580.68 c 1
 427.634 594.994 376.03 607.046 319.53 616.84 c 1
 265.29 628.894 223.48 636.05 194.1 638.31 c 1
 243.066 691.796 295.424 736.62 351.17 772.78 c 1
 411.437 808.187 467.184 825.89 518.41 825.89 c 0
 551.557 825.89 577.546 823.254 596.38 817.98 c 0
 628.02 808.187 651.374 799.9 666.44 793.12 c 2
 726.33 769.39 l 1
 742.15 764.87 758.347 762.61 774.92 762.61 c 0
 802.04 762.61 831.42 769.014 863.06 781.82 c 1
 856.28 700.46 l 1
 814.094 685.394 776.804 677.86 744.41 677.86 c 0
 726.33 677.86 708.626 680.12 691.3 684.64 c 1
 626.89 709.5 l 1
 554.57 737.75 l 2
 540.256 743.776 521.046 746.79 496.94 746.79 c 0
 476.6 746.79 450.61 740.764 418.97 728.71 c 1
 390.344 715.15 373.394 704.227 368.12 695.94 c 1
 408.8 684.64 l 1
 485.64 660.91 l 1
 556.83 642.83 l 2
 625.384 623.244 664.18 597.63 673.22 565.99 c 1
 675.48 538.87 l 1
 675.48 507.983 666.816 465.42 649.49 411.18 c 2
 525.19 24.7197 l 1
 408.8 24.7197 l 1
 414.073 51.0869 416.71 80.4668 416.71 112.86 c 0
 416.71 131.693 414.826 152.41 411.06 175.01 c 0
 402.773 239.796 396.746 279.347 392.98 293.66 c 1
 380.927 274.826 360.964 257.876 333.09 242.81 c 0
 305.97 230.004 278.85 223.6 251.73 223.6 c 0
 208.036 223.6 177.903 237.536 161.33 265.41 c 0
 152.29 281.23 147.77 298.934 147.77 318.52 c 0
 147.77 335.094 150.784 350.536 156.81 364.85 c 1
 168.11 405.53 191.464 439.43 226.87 466.55 c 1
 260.017 494.424 299.19 508.36 344.39 508.36 c 0
319.53 -317.67 m 2
 323.296 -315.41 327.816 -307.876 333.09 -295.07 c 1
 342.13 -269.08 l 1
 335.35 -269.08 l 1
 319.53 -271.34 l 1
 281.11 -271.34 256.25 -260.416 244.95 -238.57 c 0
 237.416 -223.504 233.65 -209.943 233.65 -197.89 c 0
 233.65 -185.836 235.91 -174.16 240.43 -162.86 c 0
 249.47 -131.974 267.927 -104.854 295.8 -81.5 c 0
 324.427 -58.1465 356.066 -46.4697 390.72 -46.4697 c 0
 424.62 -46.4697 448.727 -56.6396 463.04 -76.9805 c 0
 469.066 -86.7734 472.08 -99.9561 472.08 -116.53 c 0
 472.08 -133.104 469.066 -148.546 463.04 -162.86 c 1
 421.23 -299.59 l 1
 415.204 -313.15 408.046 -326.334 399.76 -339.14 c 1
 393.733 -345.166 383.187 -352.7 368.12 -361.74 c 2
 326.31 -384.34 l 1
 244.95 -423.89 l 1
 176.02 -366.26 l 1
 64.1504 -419.37 l 1
 48.3301 -335.75 l 1
 6.14355 -387.73 -43.9531 -412.59 -101.96 -410.33 c 0
 -154.693 -410.33 -181.06 -387.354 -181.06 -341.4 c 0
 -181.06 -323.32 -178.046 -306.37 -172.02 -290.55 c 0
 -159.214 -258.91 -138.12 -233.296 -108.74 -213.71 c 0
 -79.3604 -193.37 -48.4736 -183.2 -16.0801 -183.2 c 0
 12.5469 -183.2 38.5371 -192.616 61.8896 -211.45 c 1
 68.6699 -202.41 78.8398 -185.46 92.4004 -160.6 c 1
 134.21 -56.6396 l 1
 205.4 -56.6396 l 1
 182.046 -129.714 146.64 -199.773 99.1797 -266.82 c 1
 117.26 -322.19 l 1
 150.03 -308.63 l 1
 203.14 -282.64 l 1
 277.72 -341.4 l 1
 319.53 -317.67 l 2
337.61 -215.97 m 0
 355.69 -215.97 371.134 -210.696 383.94 -200.15 c 1
 396.746 -185.836 405.034 -172.653 408.8 -160.6 c 1
 411.06 -141.39 l 1
 406.54 -121.05 l 1
 400.514 -110.504 389.214 -105.23 372.64 -105.23 c 0
 352.3 -105.23 336.856 -110.504 326.31 -121.05 c 0
 314.256 -132.35 304.84 -145.534 298.06 -160.6 c 1
 295.8 -176.42 l 1
 300.32 -200.15 l 1
 306.347 -210.696 318.776 -215.97 337.61 -215.97 c 0
275.46 293.66 m 0
 295.8 293.66 315.764 300.44 335.35 314 c 1
 351.924 330.573 362.847 347.523 368.12 364.85 c 1
 372.64 393.1 l 1
 368.12 415.7 l 1
 359.834 430.014 344.39 437.17 321.79 437.17 c 0
 301.45 437.17 281.11 430.014 260.77 415.7 c 1
 244.95 402.14 233.65 385.19 226.87 364.85 c 1
 224.61 344.51 l 1
 224.61 332.456 226.87 323.04 231.39 316.26 c 0
 238.17 301.193 252.86 293.66 275.46 293.66 c 0
-39.8096 -246.48 m 0
 -60.1504 -246.48 -75.5938 -251.754 -86.1396 -262.3 c 0
 -98.9463 -275.106 -107.233 -287.536 -111 -299.59 c 1
 -113.26 -313.15 l 1
 -108.74 -331.23 l 1
 -102.713 -342.53 -90.6602 -348.18 -72.5801 -348.18 c 0
 -57.5137 -348.18 -43.5771 -343.283 -30.7695 -333.49 c 1
 -15.7031 -324.45 -4.02637 -314.656 4.25977 -304.11 c 2
 20.0801 -282.64 l 1
 18.5732 -278.12 12.5469 -270.586 2 -260.04 c 0
 -7.04004 -251 -20.9766 -246.48 -39.8096 -246.48 c 0
EndSplineSet
MinimumDistance: x30,-1 
EndChar
StartChar: uni0E11
Encoding: 147 3601
OldEncoding: 3601
Width: 1026
Flags: W
HStem: -1.08496 21G<203.435 300.615 679.165 776.345> 350.345 72.32<97 124.335> 697.255 88.14<848.665 883.695>
VStem: -14.6553 85.8799<466 473> 223.775 79.1<522.105 544.705> 506.275 85.88<669 683.695>
DStem: 369.545 506.285 464.465 500.635 203.435 -1.08496 422.655 376.335 879.175 607.985 976.355 607.985 679.165 -1.08496 776.345 -1.08496
Fore
203.435 -1.08496 m 1
 369.545 506.285 l 2
 379.339 535.665 389.509 557.135 400.055 570.695 c 0
 409.849 582.749 421.148 594.425 433.955 605.725 c 1
 480.285 632.845 l 2
 494.599 640.379 502.509 649.041 504.015 658.835 c 1
 506.275 670.135 l 1
 506.275 679.175 501.755 690.099 492.715 702.905 c 1
 479.155 717.972 468.231 726.259 459.945 727.765 c 1
 341.295 663.355 l 1
 252.025 727.765 l 1
 218.125 720.985 187.991 704.035 161.625 676.915 c 0
 136.765 652.809 120.568 629.831 113.035 607.985 c 1
 116.049 610.999 125.089 616.271 140.155 623.805 c 0
 149.948 629.831 167.651 632.845 193.265 632.845 c 0
 233.945 630.585 264.079 618.908 283.665 597.815 c 0
 296.472 582.749 302.875 565.045 302.875 544.705 c 0
 302.875 527.379 299.485 509.675 292.705 491.595 c 0
 276.885 447.148 250.142 412.495 212.475 387.635 c 0
 173.302 362.775 135.259 350.345 98.3447 350.345 c 0
 54.6514 350.345 21.5049 368.049 -1.09473 403.455 c 1
 -10.1348 424.549 -14.6553 446.395 -14.6553 468.995 c 0
 -14.6553 492.349 -10.1348 517.585 -1.09473 544.705 c 0
 13.2188 584.631 29.415 617.778 47.4951 644.145 c 1
 72.3555 688.592 111.151 726.635 163.885 758.275 c 0
 213.605 786.148 253.531 800.085 283.665 800.085 c 1
 367.285 736.805 l 1
 475.765 800.085 l 1
 513.432 786.525 542.812 767.691 563.905 743.585 c 1
 582.738 724.751 592.155 704.789 592.155 683.695 c 0
 592.155 673.148 589.519 662.602 584.245 652.055 c 1
 579.725 634.729 572.945 621.545 563.905 612.505 c 0
 552.605 601.205 540.175 591.035 526.615 581.995 c 0
 513.809 574.461 501.379 563.539 489.325 549.225 c 0
 480.285 540.185 471.999 523.988 464.465 500.635 c 2
 422.655 376.335 l 1
 526.615 515.325 l 1
 578.595 582.371 635.849 642.262 698.375 694.995 c 1
 763.915 755.262 825.688 785.395 883.695 785.395 c 0
 931.909 785.395 963.549 767.691 978.615 732.285 c 0
 984.642 717.972 987.655 700.269 987.655 679.175 c 0
 987.655 652.055 983.889 628.325 976.355 607.985 c 1
 776.345 -1.08496 l 1
 679.165 -1.08496 l 1
 879.175 607.985 l 2
 885.201 626.065 888.215 643.015 888.215 658.835 c 0
 888.215 684.448 875.031 697.255 848.665 697.255 c 0
 821.545 697.255 783.125 673.525 733.405 626.065 c 0
 679.165 575.592 623.419 514.571 566.165 443.005 c 0
 508.911 373.698 454.295 296.481 402.315 211.355 c 0
 357.115 139.035 323.215 68.2217 300.615 -1.08496 c 1
 203.435 -1.08496 l 1
170.665 566.175 m 0
 145.805 566.175 125.841 559.019 110.775 544.705 c 1
 91.9414 531.145 80.2646 514.195 75.7451 493.855 c 2
 71.2246 473.515 l 1
 71.2246 463.722 73.4854 454.305 78.0049 445.265 c 0
 84.7852 430.198 100.229 422.665 124.335 422.665 c 0
 146.935 422.665 166.145 429.445 181.965 443.005 c 1
 202.305 464.852 214.735 481.802 219.255 493.855 c 1
 223.775 522.105 l 1
 223.775 530.392 221.515 537.925 216.995 544.705 c 0
 207.955 559.019 192.512 566.175 170.665 566.175 c 0
EndSplineSet
MinimumDistance: x41,-1 
EndChar
StartChar: uni0E12
Encoding: 148 3602
OldEncoding: 3602
Width: 1090
Flags: W
HStem: -13.8652 88.1406<432 443> -0.304688 21G<-10.7646 86.415 748.595 843.515> 527.405 71.1899<367 392.645> 766.175 20G<1002.84 1097.76>
VStem: 6.18457 84.75<387 419> 196.025 73.45<414.405 434.745> 422.025 72.32<481.075 501.415> 623.165 99.44<625 640>
DStem: 324.845 719.505 341.795 800.865 388.125 668.655 448.015 710.465 505.645 222.305 598.305 209.875 463.835 92.3555 558.755 87.835 602.825 520.625 700.005 520.625 525.985 288.975 623.165 286.715 607.345 800.865 576.835 719.505 448.015 710.465 422.025 635.885 1002.84 786.175 1097.76 786.175 794.925 140.945 843.515 -0.304688
Fore
525.985 288.975 m 1
 602.825 520.625 l 2
 616.385 560.551 623.165 597.465 623.165 631.365 c 2
 623.165 640.405 l 1
 620.905 669.031 605.461 695.398 576.835 719.505 c 1
 422.025 635.885 l 1
 422.025 635.885 l 1
 388.125 668.655 l 1
 324.845 719.505 l 1
 208.079 667.525 135.005 594.829 105.625 501.415 c 0
 95.8311 472.789 90.9346 439.642 90.9346 401.975 c 0
 90.9346 361.295 96.585 322.121 107.885 284.455 c 0
 116.925 246.789 121.445 218.161 121.445 198.575 c 1
 119.185 178.235 l 1
 202.805 268.635 l 2
 218.625 284.455 238.589 301.405 262.695 319.485 c 1
 234.821 327.771 214.858 345.475 202.805 372.595 c 0
 198.285 383.895 196.025 397.831 196.025 414.405 c 0
 196.025 427.211 198.285 441.901 202.805 458.475 c 0
 214.105 496.895 237.081 530.041 271.735 557.915 c 0
 307.142 585.035 347.445 598.595 392.645 598.595 c 0
 437.091 598.595 466.849 584.281 481.915 555.655 c 0
 490.201 537.575 494.345 519.495 494.345 501.415 c 0
 494.345 484.089 491.331 467.892 485.305 452.825 c 0
 477.771 431.731 468.355 412.521 457.055 395.195 c 1
 443.495 379.375 428.052 364.685 410.725 351.125 c 2
 357.615 309.315 l 1
 325.222 281.441 289.815 249.049 251.395 212.135 c 1
 218.249 182.755 188.115 150.361 160.995 114.955 c 0
 134.629 82.5615 109.769 44.1416 86.415 -0.304688 c 1
 -10.7646 -0.304688 l 1
 7.31543 19.2812 19.7451 39.998 26.5254 61.8447 c 0
 32.5518 80.6787 35.5654 111.565 35.5654 154.505 c 2
 35.5654 169.195 l 2
 35.5654 184.262 31.0449 214.771 22.0049 260.725 c 0
 13.7188 302.158 8.44531 344.722 6.18457 388.415 c 1
 6.18457 399.715 l 2
 6.18457 432.861 12.2119 471.658 24.2646 516.105 c 1
 49.125 580.892 90.1816 637.015 147.435 684.475 c 0
 206.948 734.949 271.735 773.745 341.795 800.865 c 1
 448.015 710.465 l 1
 607.345 800.865 l 1
 651.791 774.499 682.679 748.885 700.005 724.025 c 1
 715.071 699.165 722.605 672.799 722.605 644.925 c 2
 722.605 640.405 l 2
 722.605 606.505 715.071 566.579 700.005 520.625 c 2
 623.165 286.715 l 1
 654.052 280.688 687.198 264.491 722.605 238.125 c 0
 760.271 207.991 784.379 175.599 794.925 140.945 c 1
 1002.84 786.175 l 1
 1097.76 786.175 l 1
 843.515 -0.304688 l 1
 748.595 -0.304688 l 1
 732.775 110.435 682.679 180.495 598.305 209.875 c 1
 558.755 87.835 l 1
 538.415 20.0352 496.605 -13.8652 433.325 -13.8652 c 0
 394.151 -13.8652 368.915 1.57812 357.615 32.4648 c 1
 351.589 44.5186 348.575 59.9619 348.575 78.7949 c 0
 348.575 95.3682 352.341 116.839 359.875 143.205 c 0
 374.188 184.639 395.659 218.539 424.285 244.905 c 0
 453.665 272.025 487.565 286.715 525.985 288.975 c 1
368.915 527.405 m 0
 346.315 527.405 327.105 520.625 311.285 507.065 c 0
 292.451 489.738 280.021 472.411 273.995 455.085 c 1
 269.475 434.745 l 1
 269.475 423.445 271.735 414.028 276.255 406.495 c 0
 283.035 391.429 297.725 383.895 320.325 383.895 c 0
 345.938 383.895 366.655 390.675 382.475 404.235 c 0
 399.802 419.302 411.479 436.251 417.505 455.085 c 1
 422.025 481.075 l 1
 422.025 490.115 419.765 498.778 415.245 507.065 c 0
 408.465 520.625 393.021 527.405 368.915 527.405 c 0
463.835 92.3555 m 1
 505.645 222.305 l 1
 467.225 214.019 440.105 184.639 424.285 134.165 c 1
 419.765 125.125 417.505 115.709 417.505 105.915 c 0
 417.505 99.8887 419.012 95.3682 422.025 92.3555 c 1
 426.545 80.3018 432.948 74.2754 441.235 74.2754 c 0
 448.769 74.2754 456.302 80.3018 463.835 92.3555 c 1
EndSplineSet
EndChar
StartChar: uni0E13
Encoding: 149 3603
OldEncoding: 3603
Width: 1068
Flags: W
HStem: -13.7354 71.1905<77 98> -0.174805 21G<376.96 474.14> 198.705 72.32<144 171.3> 728.675 72.32<417 451> 766.305 20G<930.66 1027.84>
VStem: -29.8398 75.7099<78.9248 106.045> 573.58 101.7<632 659.745> 911.45 79.1<207.745 235.995>
DStem: 71.8604 408.885 169.04 414.535 -20.7998 129.775 120.45 260.855 564.54 578.385 661.72 578.385 376.96 -0.174805 529.51 169.325 661.72 578.385 930.66 786.305 529.51 169.325 784.89 333.175 756.64 254.075 858.34 266.505 699.01 71.0146 800.71 87.9648 930.66 786.305 1027.84 786.305 784.89 333.175 884.33 339.955
Fore
-20.7998 129.775 m 2
 71.8604 408.885 l 1
 101.24 500.039 151.336 556.539 222.15 578.385 c 1
 211.604 588.932 194.653 602.115 171.3 617.935 c 0
 151.714 629.988 117.813 643.171 69.5996 657.485 c 1
 95.2139 683.099 141.544 713.231 208.59 747.885 c 0
 275.637 783.291 354.36 800.995 444.76 800.995 c 0
 598.44 800.995 675.28 753.911 675.28 659.745 c 0
 675.28 635.639 670.76 608.519 661.72 578.385 c 1
 529.51 169.325 l 1
 612.376 253.698 697.504 308.315 784.89 333.175 c 1
 930.66 786.305 l 1
 1027.84 786.305 l 1
 884.33 339.955 l 1
 928.023 333.175 958.91 315.472 976.99 286.845 c 0
 986.03 273.285 990.55 256.335 990.55 235.995 c 0
 990.55 217.915 985.276 192.302 974.73 159.155 c 1
 952.884 100.395 923.504 57.4551 886.59 30.335 c 0
 846.664 -0.551758 806.36 -15.9951 765.68 -15.9951 c 0
 738.56 -15.9951 718.597 -8.46191 705.79 6.60547 c 0
 698.256 16.3984 694.49 28.8281 694.49 43.8945 c 1
 699.01 71.0146 l 1
 756.64 254.075 l 1
 696.374 234.488 638.366 196.068 582.62 138.815 c 0
 529.134 83.8213 492.974 37.4912 474.14 -0.174805 c 1
 376.96 -0.174805 l 1
 564.54 578.385 l 2
 570.566 596.465 573.58 614.921 573.58 633.755 c 0
 573.58 656.355 566.8 675.565 553.24 691.385 c 1
 528.38 716.245 488.83 728.675 434.59 728.675 c 0
 364.53 728.675 290.704 709.465 213.11 671.045 c 1
 222.15 668.031 243.62 657.108 277.52 638.275 c 0
 303.134 623.961 327.24 602.491 349.84 573.865 c 1
 337.034 573.865 321.59 570.852 303.51 564.825 c 0
 284.677 558.799 260.57 544.108 231.19 520.755 c 1
 201.057 489.869 180.34 454.461 169.04 414.535 c 1
 120.45 260.855 l 1
 127.983 267.635 144.934 271.025 171.3 271.025 c 0
 212.733 271.025 242.113 257.089 259.44 229.215 c 1
 266.974 210.381 270.74 194.185 270.74 180.625 c 0
 270.74 162.545 267.727 145.595 261.7 129.775 c 0
 251.153 94.3682 227.8 61.2217 191.64 30.335 c 0
 158.494 0.955078 120.826 -13.7354 78.6396 -13.7354 c 0
 37.207 -13.7354 6.32031 -0.551758 -14.0195 25.8154 c 0
 -24.5664 40.8818 -29.8398 58.585 -29.8398 78.9248 c 0
 -29.8398 95.498 -26.8262 112.448 -20.7998 129.775 c 2
800.71 87.9648 m 1
 798.45 74.4053 l 1
 798.45 66.1182 802.216 61.9746 809.75 61.9746 c 0
 824.063 61.9746 841.014 71.3916 860.6 90.2246 c 1
 878.68 105.292 892.616 128.269 902.41 159.155 c 0
 908.437 176.481 911.45 192.679 911.45 207.745 c 0
 911.45 240.892 893.746 260.479 858.34 266.505 c 1
 800.71 87.9648 l 1
98.9805 57.4551 m 0
 123.086 57.4551 143.427 64.6113 160 78.9248 c 0
 176.573 93.2383 187.874 110.188 193.9 129.775 c 1
 196.16 150.115 l 1
 196.16 162.169 193.9 171.585 189.38 178.365 c 0
 182.6 191.925 167.91 198.705 145.31 198.705 c 0
 124.216 198.705 104.254 191.925 85.4199 178.365 c 1
 69.5996 164.052 57.9238 147.855 50.3896 129.775 c 1
 45.8701 106.045 l 1
 45.8701 94.7451 48.1299 85.7051 52.6504 78.9248 c 0
 62.4434 64.6113 77.8867 57.4551 98.9805 57.4551 c 0
EndSplineSet
MinimumDistance: x12,-1 
EndChar
